<?xml version="1.0" encoding="utf-8"?>
<svg version="1.1" baseProfile="full" width="26" height="26" viewBox="0 0 26.00 26.00" enable-background="new 0 0 26.00 26.00" xmlns="http://www.w3.org/2000/svg">
  <rect x="5" y="5.75" fill="#FF7878" fill-opacity="1" stroke-linejoin="round" stroke="#000000" stroke-opacity="1" width="13" height="12"/>
  <path fill="#181801" fill-opacity="0.501961" stroke-width="0.2" stroke-linejoin="round" d="M 7.056 11.5 L 16.056 11.5 L 16.056 12.5 L 7.056 12.5 L 7.056 11.5 Z M 7.056 13.5 L 16.056 13.5 L 16.056 14.5 L 7.056 14.5 L 7.056 13.5 Z M 7.056 7.5 L 16.056 7.5 L 16.056 8.5 L 7.056 8.5 L 7.056 7.5 Z M 7.056 9.5 L 16.056 9.5 L 16.056 10.5 L 7.056 10.5 L 7.056 9.5 Z"/>
  <rect x="5.5" y="5.25" fill="#181801" fill-opacity="1" stroke-width="0.2" stroke-linejoin="round" width="12" height="1"/>
  <path fill="#FFFF11" fill-opacity="1" stroke-linejoin="round" stroke="#000000" stroke-opacity="1" d="M 2.542 8.621 L 13.519 8.621 L 13.519 19.991 L 2.542 19.991 L 2.542 8.621 Z" style=""/>
  <path fill="#181801" fill-opacity="0.501961" stroke-width="0.2" stroke-linejoin="round" d="M 4.092 14.853 L 12.179 14.853 L 12.179 15.934 L 4.092 15.934 L 4.092 14.853 Z M 4.092 17.016 L 12.179 17.016 L 12.179 18.098 L 4.092 18.098 L 4.092 17.016 Z M 4.092 10.525 L 12.179 10.525 L 12.179 11.607 L 4.092 11.607 L 4.092 10.525 Z M 4.092 12.689 L 12.179 12.689 L 12.179 13.771 L 4.092 13.771 L 4.092 12.689 Z" style=""/>
  <rect x="10.761" y="10.582" fill="#4DEFFD" fill-opacity="1" stroke-linejoin="round" stroke="#000000" stroke-opacity="1" width="8.875" height="10.417" style=""/>
  <path fill="#181801" fill-opacity="0.501961" stroke-width="0.2" stroke-linejoin="round" d="M 11.912 16.244 L 18.569 16.244 L 18.569 17.277 L 11.912 17.277 L 11.912 16.244 Z M 11.912 18.309 L 18.569 18.309 L 18.569 19.343 L 11.912 19.343 L 11.912 18.309 Z M 11.912 12.112 L 18.569 12.112 L 18.569 13.145 L 11.912 13.145 L 11.912 12.112 Z M 11.912 14.178 L 18.569 14.178 L 18.569 15.211 L 11.912 15.211 L 11.912 14.178 Z" style=""/>
</svg>