<?xml version="1.0" encoding="utf-8"?>
<svg version="1.1" baseProfile="full" width="26" height="26" viewBox="0 0 26.00 26.00" enable-background="new 0 0 26.00 26.00" xmlns="http://www.w3.org/2000/svg">
  <path fill="#FFFF11" fill-opacity="1" stroke-linejoin="round" stroke="#000000" stroke-opacity="1" d="M 6.053 5.523 L 18.303 5.523 L 18.303 20.523 L 6.053 20.523 L 6.053 5.523 Z"/>
  <path fill="#181801" fill-opacity="0.501961" stroke-width="0.2" stroke-linejoin="round" d="M 7.55627,13.4643L 16.5563,13.4643L 16.5563,14.8929L 7.55627,14.8929L 7.55627,13.4643 Z M 7.55625,16.3215L 16.5562,16.3215L 16.5562,17.75L 7.55625,17.75L 7.55625,16.3215 Z M 7.55626,7.75002L 16.5562,7.75002L 16.5562,9.17859L 7.55626,9.17859L 7.55626,7.75002 Z M 7.55625,10.6072L 16.5562,10.6072L 16.5562,12.0357L 7.55625,12.0357L 7.55625,10.6072 Z "/>
  <rect x="10.563" y="8.899" fill="#93F1F8" fill-opacity="1" stroke-linejoin="round" stroke="#000000" stroke-opacity="1" width="10" height="12.912" style=""/>
  <path fill="#102319" fill-opacity="0.501961" stroke-width="0.2" stroke-linejoin="round" d="M 11.86 15.851 L 19.36 15.851 L 19.36 16.965 L 11.86 16.965 L 11.86 15.851 Z M 11.859 18.079 L 19.36 18.079 L 19.36 19.193 L 11.859 19.193 L 11.859 18.079 Z M 11.86 11.393 L 19.36 11.393 L 19.36 12.508 L 11.86 12.508 L 11.86 11.393 Z M 11.859 13.622 L 19.36 13.622 L 19.36 14.736 L 11.859 14.736 L 11.859 13.622 Z"/>
</svg>