<?xml version="1.0" encoding="utf-8"?>
<!DOCTYPE svg PUBLIC "-//W3C//DTD SVG 1.1//EN" "http://www.w3.org/Graphics/SVG/1.1/DTD/svg11.dtd">
<svg xmlns="http://www.w3.org/2000/svg" xmlns:xlink="http://www.w3.org/1999/xlink" version="1.1" baseProfile="full" width="26" height="26" viewBox="0 0 26.00 26.00" enable-background="new 0 0 26.00 26.00" xml:space="preserve">
	<rect x="5.00012" y="2.75" fill="#FF7878" fill-opacity="1" stroke-linejoin="round" stroke="#000000" stroke-opacity="1" width="13" height="12"/>
	<path fill="#181801" fill-opacity="0.501961" stroke-width="0.2" stroke-linejoin="round" d="M 7.05626,9.49999L 16.0562,9.49999L 16.0562,10.5L 7.05626,10.5L 7.05626,9.49999 Z M 7.05625,11.5L 16.0562,11.5L 16.0562,12.5L 7.05625,12.5L 7.05625,11.5 Z M 7.05625,5.49999L 16.0562,5.49999L 16.0562,6.49999L 7.05625,6.49999L 7.05625,5.49999 Z M 7.05625,7.5L 16.0562,7.5L 16.0562,8.5L 7.05625,8.5L 7.05625,7.5 Z "/>
	<rect x="5.5" y="3.25" fill="#181801" fill-opacity="1" stroke-width="0.2" stroke-linejoin="round" width="12" height="1"/>
	<rect x="2.49989" y="12" fill="#4DEFFD" fill-opacity="1" stroke-linejoin="round" stroke="#000000" stroke-opacity="1" width="12" height="11"/>
	<path fill="#181801" fill-opacity="0.501961" stroke-width="0.2" stroke-linejoin="round" d="M 4.05626,18.25L 13.0562,18.25L 13.0562,19.25L 4.05626,19.25L 4.05626,18.25 Z M 4.05625,20.25L 13.0562,20.25L 13.0562,21.25L 4.05625,21.25L 4.05625,20.25 Z M 4.05625,14.25L 13.0562,14.25L 13.0562,15.25L 4.05625,15.25L 4.05625,14.25 Z M 4.05625,16.25L 13.0562,16.25L 13.0562,17.25L 4.05625,17.25L 4.05625,16.25 Z "/>
	<rect x="2.5" y="12" fill="#181801" fill-opacity="1" stroke-width="0.2" stroke-linejoin="round" width="12" height="1"/>
	<path fill="#FFFF11" fill-opacity="1" stroke-linejoin="round" stroke="#000000" stroke-opacity="1" d="M 11.7499,9.25L 23.7499,9.25L 23.7499,20.25L 11.7499,20.25L 11.7499,9.25 Z "/>
	<path fill="#181801" fill-opacity="0.501961" stroke-width="0.2" stroke-linejoin="round" d="M 13.3063,15.5L 22.3062,15.5L 22.3062,16.5L 13.3063,16.5L 13.3063,15.5 Z M 13.3062,17.5L 22.3062,17.5L 22.3062,18.5L 13.3062,18.5L 13.3062,17.5 Z M 13.3063,11.5L 22.3062,11.5L 22.3062,12.5L 13.3063,12.5L 13.3063,11.5 Z M 13.3062,13.5L 22.3062,13.5L 22.3062,14.5L 13.3062,14.5L 13.3062,13.5 Z "/>
	<rect x="12.25" y="9.25" fill="#181801" fill-opacity="1" stroke-width="0.2" stroke-linejoin="round" width="12" height="1"/>
</svg>
