<?xml version="1.0" encoding="utf-8"?>
<svg viewBox="0 0 64 64" version="1.1" width="64" height="64" xmlns="http://www.w3.org/2000/svg">
  <path style=" fill:#FAEFDE;" d="M 42.859 1.52 L 10.434 1.52 C 8.561 1.52 7.052 3.031 7.052 4.903 L 7.052 59.025 C 7.052 60.893 8.561 62.408 10.434 62.408 L 53.281 62.408 C 55.148 62.408 56.664 60.893 56.664 59.025 L 56.664 15.32 C 56.667 14.431 56.324 13.567 55.703 12.929 L 45.251 2.511 C 44.617 1.878 43.758 1.52 42.859 1.52 Z"/>
  <path style=" fill:#FFF7F0;" d="M 56.664 28.815 L 56.664 22.922 L 56.403 13.99 C 56.236 13.567 55.985 13.183 55.668 12.862 L 50.796 7.991 L 7.052 51.806 L 7.218 59.88 C 7.611 61.36 8.949 62.391 10.478 62.395 L 23.071 62.395 Z"/>
  <path style=" fill:#FFF7F0;" d="M 45.251 2.511 C 45.146 2.41 45.031 2.317 44.912 2.229 L 7.052 40.09 L 7.218 46.689 L 48.33 5.577 Z"/>
  <path style=" fill:#FFF7F0;" d="M 7.052 33.325 L 38.79 1.587 L 42.172 1.587 L 7.052 36.707 Z"/>
  <path style=" fill:#FFFFFF;" d="M 13.253 13.99 L 11.852 16.54 L 9.307 17.936 L 11.852 19.332 L 13.253 21.882 L 14.649 19.332 L 17.2 17.936 L 14.649 16.54 Z"/>
  <path style=" fill:#FFFFFF;" d="M 33.637 4.969 L 32.676 6.727 L 30.92 7.7 L 32.676 8.656 L 33.637 10.427 L 34.605 8.656 L 36.368 7.7 L 34.605 6.727 Z"/>
  <path style=" fill:#FFFFFF;" d="M 50.29 43.306 L 49.638 44.5 L 48.44 45.164 L 49.638 45.82 L 50.29 47.028 L 50.955 45.82 L 52.154 45.164 L 50.955 44.5 Z"/>
  <path style=" fill:#BBDEF9;" d="M 43.133 1.587 L 43.133 15.117 L 56.664 15.117 Z"/>
  <path style=" fill:#8D6C9F;" d="M 56.311 11.871 L 46.546 2.106 C 45.489 1.049 44.053 0.455 42.556 0.459 L 9.474 0.459 C 7.606 0.459 6.091 1.974 6.091 3.842 L 6.091 60.219 C 6.091 62.086 7.606 63.602 9.474 63.602 L 54.575 63.602 C 56.443 63.602 57.958 62.086 57.958 60.219 L 57.958 15.861 C 57.963 14.364 57.368 12.929 56.311 11.871 Z M 54.721 13.461 C 54.883 13.62 55.024 13.791 55.153 13.976 L 45.555 13.976 C 44.934 13.976 44.428 13.474 44.428 12.849 L 44.428 3.278 C 44.612 3.401 44.788 3.546 44.947 3.705 Z M 54.575 61.347 L 9.474 61.347 C 8.852 61.347 8.346 60.84 8.346 60.219 L 8.346 3.842 C 8.346 3.22 8.852 2.714 9.474 2.714 L 42.172 2.714 L 42.172 12.862 C 42.172 14.729 43.688 16.245 45.555 16.245 L 55.703 16.245 L 55.703 60.219 C 55.703 60.84 55.197 61.347 54.575 61.347 Z"/>
  <path style=" fill:#8D6C9F;" d="M 39.917 21.882 C 39.917 22.504 40.424 23.01 41.045 23.01 L 45.555 23.01 C 46.176 23.01 46.683 22.504 46.683 21.882 C 46.683 21.261 46.176 20.755 45.555 20.755 L 41.045 20.755 C 40.424 20.755 39.917 21.261 39.917 21.882 Z"/>
  <path style=" fill:#8D6C9F;" d="M 18.494 23.01 L 36.535 23.01 C 37.156 23.01 37.662 22.504 37.662 21.882 C 37.662 21.261 37.156 20.755 36.535 20.755 L 18.494 20.755 C 17.873 20.755 17.366 21.261 17.366 21.882 C 17.366 22.504 17.873 23.01 18.494 23.01 Z"/>
  <path style=" fill:#8D6C9F;" d="M 18.494 18.5 L 41.045 18.5 C 41.666 18.5 42.172 17.994 42.172 17.372 C 42.172 16.751 41.666 16.245 41.045 16.245 L 18.494 16.245 C 17.873 16.245 17.366 16.751 17.366 17.372 C 17.366 17.994 17.873 18.5 18.494 18.5 Z"/>
  <path style=" fill:#8D6C9F;" d="M 18.494 13.99 L 38.79 13.99 C 39.411 13.99 39.917 13.483 39.917 12.862 C 39.917 12.241 39.411 11.735 38.79 11.735 L 18.494 11.735 C 17.873 11.735 17.366 12.241 17.366 12.862 C 17.366 13.483 17.873 13.99 18.494 13.99 Z"/>
  <path style=" fill:#8D6C9F;" d="M 18.494 27.52 L 45.555 27.52 C 46.176 27.52 46.683 27.014 46.683 26.393 C 46.683 25.771 46.176 25.265 45.555 25.265 L 18.494 25.265 C 17.873 25.265 17.366 25.771 17.366 26.393 C 17.366 27.014 17.873 27.52 18.494 27.52 Z"/>
  <path style=" fill:#8D6C9F;" d="M 35.407 35.413 C 35.407 34.792 34.901 34.286 34.28 34.286 L 18.494 34.286 C 17.873 34.286 17.366 34.792 17.366 35.413 C 17.366 36.034 17.873 36.541 18.494 36.541 L 34.28 36.541 C 34.901 36.541 35.407 36.034 35.407 35.413 Z"/>
  <path style=" fill:#8D6C9F;" d="M 18.494 32.03 L 45.555 32.03 C 46.176 32.03 46.683 31.524 46.683 30.903 C 46.683 30.282 46.176 29.775 45.555 29.775 L 18.494 29.775 C 17.873 29.775 17.366 30.282 17.366 30.903 C 17.366 31.524 17.873 32.03 18.494 32.03 Z"/>
  <path style=" fill:#8D6C9F;" d="M 11.729 52.326 C 11.107 52.326 10.601 52.833 10.601 53.454 L 10.601 55.709 C 10.601 56.33 11.107 56.836 11.729 56.836 C 12.35 56.836 12.856 56.33 12.856 55.709 L 12.856 53.454 C 12.856 52.833 12.35 52.326 11.729 52.326 Z"/>
  <path style=" fill:#8D6C9F;" d="M 17.366 52.326 C 16.745 52.326 16.239 52.833 16.239 53.454 L 16.239 55.709 C 16.239 56.33 16.745 56.836 17.366 56.836 C 17.988 56.836 18.494 56.33 18.494 55.709 L 18.494 53.454 C 18.494 52.833 17.988 52.326 17.366 52.326 Z"/>
  <path style=" fill:#8D6C9F;" d="M 28.642 52.326 C 28.021 52.326 27.514 52.833 27.514 53.454 L 27.514 55.709 C 27.514 56.33 28.021 56.836 28.642 56.836 C 29.263 56.836 29.769 56.33 29.769 55.709 L 29.769 53.454 C 29.769 52.833 29.263 52.326 28.642 52.326 Z"/>
  <path style=" fill:#8D6C9F;" d="M 23.004 52.326 C 22.383 52.326 21.877 52.833 21.877 53.454 L 21.877 55.709 C 21.877 56.33 22.383 56.836 23.004 56.836 C 23.625 56.836 24.132 56.33 24.132 55.709 L 24.132 53.454 C 24.132 52.833 23.625 52.326 23.004 52.326 Z"/>
  <g transform="matrix(0.73422, 0, 0, 0.73422, -120.290962, -216.475937)" style="">
    <g>
      <path d="M 233.088 361.216 L 222.949 361.216 L 222.949 371.355 C 222.949 373.217 221.431 374.735 219.569 374.735 C 217.708 374.735 216.189 373.217 216.189 371.355 L 216.189 361.216 L 206.05 361.216 C 204.188 361.216 202.67 359.697 202.67 357.836 C 202.67 355.974 204.188 354.456 206.05 354.456 L 216.189 354.456 L 216.189 344.317 C 216.189 342.455 217.708 340.937 219.569 340.937 C 221.431 340.937 222.949 342.455 222.949 344.317 L 222.949 354.456 L 233.088 354.456 C 234.95 354.456 236.468 355.974 236.468 357.836 C 236.468 359.697 234.95 361.216 233.088 361.216 Z" transform="matrix(-1, 0, 0, -1, 439.138006, 715.672014)" style="fill: rgb(47, 173, 135);"/>
    </g>
  </g>
</svg>