<?xml version="1.0" encoding="utf-8"?>
<svg viewBox="0 0 500 500" xmlns="http://www.w3.org/2000/svg">
  <g transform="matrix(2.613358, 0, 0, 2.613358, -657.164062, -292.942108)">
    <path style=" fill:#FAEFDE;" d="M 313.321 298.856 L 410.53 298.856 C 416.128 298.856 420.669 294.327 420.669 288.716 L 420.669 126.485 C 420.669 120.887 416.128 116.346 410.53 116.346 L 282.097 116.346 C 276.499 116.346 271.958 120.887 271.958 126.485 L 271.958 257.493 C 271.958 260.186 273.027 262.76 274.928 264.661 L 306.165 295.885 C 308.066 297.786 310.641 298.856 313.321 298.856 Z" transform="matrix(-1, 0, 0, -1, 692.627004, 415.201967)"/>
    <path style=" fill:#FFF7F0;" d="M 272.46 120.122 L 271.958 152.098 L 418.94 299.054 L 421.171 221.516 L 319.777 120.122 Z" transform="matrix(-1, 0, 0, -1, 693.129037, 419.175969)"/>
    <path style=" fill:#FFF7F0;" d="M 286.124 136.123 L 401.737 251.737 L 421.171 250.892 L 286.626 116.346 Z" transform="matrix(-1, 0, 0, -1, 707.294973, 368.083016)"/>
    <path style=" fill:#FFF7F0;" d="M 315.895 126.683 L 411.031 221.82 L 421.171 221.82 L 315.895 116.544 Z" transform="matrix(-1, 0, 0, -1, 737.065987, 338.364008)"/>
    <path style=" fill:#FFFFFF;" d="M 304.065 167.242 L 308.25 159.598 L 315.895 155.413 L 308.25 151.228 L 304.065 143.583 L 299.88 151.228 L 292.236 155.413 L 299.88 159.598 Z" transform="matrix(-1, 0, 0, -1, 608.130984, 310.825008)"/>
    <path style=" fill:#FFFFFF;" d="M 355.041 153.181 L 357.906 147.913 L 363.213 144.995 L 357.906 142.13 L 355.041 136.823 L 352.123 142.13 L 346.855 144.995 L 352.123 147.913 Z" transform="matrix(-1, 0, 0, -1, 710.067983, 290.004003)"/>
    <path style=" fill:#FFFFFF;" d="M 401.565 252.754 L 403.532 249.177 L 407.15 247.183 L 403.532 245.216 L 401.565 241.598 L 399.611 245.216 L 395.994 247.183 L 399.611 249.177 Z" transform="matrix(-1, 0, 0, -1, 803.14397, 494.35199)"/>
    <path style=" fill:#BBDEF9;" d="M 420.669 157.102 L 420.669 116.544 L 380.112 116.544 Z" transform="matrix(-1, 0, 0, -1, 800.781014, 273.646002)"/>
    <path style=" fill:#8D6C9F;" d="M 413.91 302.434 L 314.747 302.434 C 310.258 302.448 305.954 300.665 302.785 297.497 L 273.515 268.227 C 270.347 265.058 268.565 260.754 268.578 256.266 L 268.578 123.304 C 268.578 117.706 273.119 113.165 278.717 113.165 L 413.91 113.165 C 419.508 113.165 424.049 117.706 424.049 123.304 L 424.049 292.295 C 424.049 297.893 419.508 302.434 413.91 302.434 Z M 307.578 292.704 C 308.053 293.18 308.581 293.615 309.136 293.985 L 309.136 265.257 C 309.136 263.395 307.617 261.877 305.756 261.877 L 277.027 261.877 C 277.397 262.431 277.833 262.959 278.308 263.435 Z M 417.29 123.304 C 417.29 121.443 415.771 119.924 413.91 119.924 L 278.717 119.924 C 276.856 119.924 275.337 121.443 275.337 123.304 L 275.337 255.117 L 305.756 255.117 C 311.354 255.117 315.895 259.659 315.895 265.257 L 315.895 295.675 L 413.91 295.675 C 415.771 295.675 417.29 294.157 417.29 292.295 Z" transform="matrix(-1, 0, 0, -1, 692.626954, 415.599054)"/>
    <path style="fill: rgb(141, 108, 159); fill-opacity: 0.25;" d="M 407.15 282.155 C 405.288 282.155 403.77 280.637 403.77 278.775 L 403.77 272.015 C 403.77 270.154 405.288 268.636 407.15 268.636 C 409.011 268.636 410.53 270.154 410.53 272.015 L 410.53 278.775 C 410.53 280.637 409.011 282.155 407.15 282.155 Z" transform="matrix(-1, 0, 0, -1, 814.299984, 550.791003)"/>
    <path style="fill: rgb(141, 108, 159); fill-opacity: 0.25;" d="M 390.251 282.155 C 388.389 282.155 386.871 280.637 386.871 278.775 L 386.871 272.015 C 386.871 270.154 388.389 268.636 390.251 268.636 C 392.112 268.636 393.631 270.154 393.631 272.015 L 393.631 278.775 C 393.631 280.637 392.112 282.155 390.251 282.155 Z" transform="matrix(-1, 0, 0, -1, 780.502015, 550.791003)"/>
    <path style="fill: rgb(141, 108, 159); fill-opacity: 0.25;" d="M 373.352 282.155 C 371.49 282.155 369.972 280.637 369.972 278.775 L 369.972 272.015 C 369.972 270.154 371.49 268.636 373.352 268.636 C 375.214 268.636 376.732 270.154 376.732 272.015 L 376.732 278.775 C 376.732 280.637 375.214 282.155 373.352 282.155 Z" transform="matrix(-1, 0, 0, -1, 746.703971, 550.791003)"/>
    <path style="fill: rgb(141, 108, 159); fill-opacity: 0.25;" d="M 356.453 282.155 C 354.592 282.155 353.073 280.637 353.073 278.775 L 353.073 272.015 C 353.073 270.154 354.592 268.636 356.453 268.636 C 358.315 268.636 359.833 270.154 359.833 272.015 L 359.833 278.775 C 359.833 280.637 358.315 282.155 356.453 282.155 Z" transform="matrix(-1, 0, 0, -1, 712.906003, 550.791003)"/>
    <path style="fill: rgb(141, 108, 159); fill-opacity: 0.25;" d="M 339.554 282.155 C 337.693 282.155 336.174 280.637 336.174 278.775 L 336.174 272.015 C 336.174 270.154 337.693 268.636 339.554 268.636 C 341.416 268.636 342.934 270.154 342.934 272.015 L 342.934 278.775 C 342.934 280.637 341.416 282.155 339.554 282.155 Z" transform="matrix(-1, 0, 0, -1, 679.108034, 550.791003)"/>
    <path style="fill: rgb(141, 108, 159); fill-opacity: 0.25;" d="M 322.655 282.155 C 320.794 282.155 319.275 280.637 319.275 278.775 L 319.275 272.015 C 319.275 270.154 320.794 268.636 322.655 268.636 C 324.517 268.636 326.035 270.154 326.035 272.015 L 326.035 278.775 C 326.035 280.637 324.517 282.155 322.655 282.155 Z" transform="matrix(-1, 0, 0, -1, 645.310003, 550.791003)"/>
    <path style="fill: rgb(141, 108, 159); fill-opacity: 0.25;" d="M 305.755 282.155 C 303.894 282.155 302.376 280.637 302.376 278.775 L 302.376 272.015 C 302.376 270.154 303.894 268.636 305.755 268.636 C 307.617 268.636 309.135 270.154 309.135 272.015 L 309.135 278.775 C 309.135 280.637 307.617 282.155 305.755 282.155 Z" transform="matrix(-1, 0, 0, -1, 611.510985, 550.791003)"/>
    <path style="fill: rgb(141, 108, 159); fill-opacity: 0.25;" d="M 288.856 282.155 C 286.995 282.155 285.477 280.637 285.477 278.775 L 285.477 272.015 C 285.477 270.154 286.995 268.636 288.856 268.636 C 290.718 268.636 292.236 270.154 292.236 272.015 L 292.236 278.775 C 292.236 280.637 290.718 282.155 288.856 282.155 Z" transform="matrix(-1, 0, 0, -1, 577.713017, 550.791003)"/>
    <g transform="matrix(1.717518, 0, 0, 1.717518, 3.556101, -357.552612)">
      <g>
        <path d="M 233.088 361.216 L 222.949 361.216 L 222.949 371.355 C 222.949 373.217 221.431 374.735 219.569 374.735 C 217.708 374.735 216.189 373.217 216.189 371.355 L 216.189 361.216 L 206.05 361.216 C 204.188 361.216 202.67 359.697 202.67 357.836 C 202.67 355.974 204.188 354.456 206.05 354.456 L 216.189 354.456 L 216.189 344.317 C 216.189 342.455 217.708 340.937 219.569 340.937 C 221.431 340.937 222.949 342.455 222.949 344.317 L 222.949 354.456 L 233.088 354.456 C 234.95 354.456 236.468 355.974 236.468 357.836 C 236.468 359.697 234.95 361.216 233.088 361.216 Z" transform="matrix(-1, 0, 0, -1, 439.138006, 715.672014)" style="fill: rgb(47, 173, 135);"/>
      </g>
    </g>
    <g id="surface1" transform="matrix(1.574875, 0, 0, 1.574875, 286.177887, 132.533157)">
      <path style=" fill:#ED7899;" d="M 63 49.441406 L 63 53 C 63 54.105469 62.105469 55 61 55 L 51 55 L 50.5 49.191406 L 39.378906 38.378906 L 43.109375 31.121094 L 58.429688 41 C 61.292969 42.851563 63.015625 46.03125 63 49.441406 Z "/>
      <path style=" fill:#F9E3AE;" d="M 35.730469 7.699219 C 40.160156 5.699219 42.910156 7.699219 42.910156 7.699219 C 45.5 7.496094 48.058594 8.355469 50 10.078125 C 52.734375 12.324219 54.542969 15.503906 55.078125 19 C 55.855469 22.167969 56.832031 25.285156 58 28.328125 L 60 31.660156 L 60 33.328125 L 51 36.261719 L 47.171875 34 L 35.421875 35.171875 L 36.050781 8 "/>
      <path style=" fill:#8D6C9F;" d="M 54 52 C 53.449219 52 53 51.550781 53 51 L 53 49 C 53 48.449219 53.449219 48 54 48 C 54.550781 48 55 48.449219 55 49 L 55 51 C 55 51.550781 54.550781 52 54 52 Z "/>
      <path style=" fill:#8D6C9F;" d="M 59 52 C 58.449219 52 58 51.550781 58 51 L 58 49 C 58 48.449219 58.449219 48 59 48 C 59.550781 48 60 48.449219 60 49 L 60 51 C 60 51.550781 59.550781 52 59 52 Z "/>
      <path style=" fill:#C2CDE7;" d="M 45 41.53125 L 32 34 L 20 34 L 7 41.53125 C 3.289063 43.671875 1 47.632813 1 51.921875 L 1 59 C 1 60.105469 1.894531 61 3 61 L 49 61 C 50.105469 61 51 60.105469 51 59 L 51 51.921875 C 51 47.632813 48.710938 43.671875 45 41.53125 Z "/>
      <path style=" fill:#FAEFDE;" d="M 38.441406 17.628906 C 40.441406 18.511719 43.058594 19.570313 50 19.378906 L 51.558594 23.511719 L 51.558594 27.449219 L 49.140625 30.859375 L 45 35.558594 C 45 35.558594 41.378906 38.058594 39.378906 38.371094 C 37.378906 38.679688 34.671875 35.539063 34.671875 35.539063 Z "/>
      <path style=" fill:#D6DFF2;" d="M 36.28125 41.859375 L 26 47 L 15.71875 41.859375 C 14.859375 41.429688 14.257813 40.609375 14.101563 39.660156 C 13.949219 38.707031 14.261719 37.742188 14.941406 37.058594 L 15 37 L 37 37 L 37.058594 37.058594 C 37.738281 37.742188 38.050781 38.707031 37.898438 39.660156 C 37.742188 40.609375 37.140625 41.429688 36.28125 41.859375 Z "/>
      <path style=" fill:#ACB7D0;" d="M 47 56 L 5 56 C 2.789063 56 1 57.789063 1 60 C 1 60.550781 1.449219 61 2 61 L 50 61 C 50.550781 61 51 60.550781 51 60 C 51 57.789063 49.210938 56 47 56 Z "/>
      <path style=" fill:#FAEFDE;" d="M 40 21.140625 C 39.625 21.066406 39.234375 21.15625 38.929688 21.390625 C 38.875 19.882813 38.558594 18.398438 38 17 C 37.078125 14.488281 40.660156 16 40.660156 16 C 39.300781 9.710938 34.75 5 27 5 L 26 5 C 23.523438 4.996094 21.097656 5.6875 19 7 C 15.691406 7 13.378906 9.25 13 13 C 12.621094 16.75 13.359375 18.921875 13.21875 19.710938 C 13.109375 20.265625 13.039063 20.824219 13 21.390625 C 12.714844 21.175781 12.351563 21.085938 12 21.140625 C 10.929688 21.429688 10.53125 23.390625 11.101563 25.519531 C 11.621094 27.519531 12.789063 28.878906 13.800781 28.878906 C 15.570313 35 20.371094 41 26 41 C 31.628906 41 36.429688 35 38.230469 28.878906 C 39.230469 28.878906 40.398438 27.480469 40.929688 25.519531 C 41.5 23.378906 41.101563 21.421875 40 21.140625 Z "/>
      <path style=" fill:#CDA1A7;" d="M 13.511719 18 C 16.5 17.796875 19.078125 15.828125 20.058594 13 C 23.058594 14 24.058594 17 38.058594 16 C 39.449219 15.898438 39.660156 16.390625 40.058594 16 C 40.460938 15.609375 39.339844 14 40.058594 14.070313 C 38.171875 8.28125 33.53125 5 27.121094 5 L 26.058594 5 C 23.675781 4.992188 21.339844 5.648438 19.308594 6.898438 C 19.128906 7.035156 18.90625 7.109375 18.679688 7.109375 C 15.679688 7.109375 13.679688 9.109375 13.371094 12.5 C 13.191406 14.3125 13.234375 16.136719 13.5 17.941406 Z "/>
      <path style=" fill:#8D6C9F;" d="M 59 40.199219 L 53.058594 36.398438 C 55.453125 35.78125 57.792969 34.980469 60.058594 34 C 60.59375 33.761719 61 33.300781 61.164063 32.738281 C 61.328125 32.175781 61.238281 31.570313 60.921875 31.078125 L 59.199219 28.460938 C 58.296875 27.078125 57.648438 25.546875 57.28125 23.941406 L 55.578125 16.53125 C 54.269531 10.953125 49.464844 6.894531 43.75 6.53125 C 42.96875 6.019531 42.054688 5.75 41.121094 5.75 C 39.289063 5.671875 37.457031 5.949219 35.730469 6.570313 C 33.148438 4.84375 30.105469 3.945313 27 4 L 26 4 C 23.429688 4.011719 20.90625 4.699219 18.691406 6 C 15 6.140625 12.421875 8.761719 12 12.898438 C 11.816406 14.765625 11.863281 16.644531 12.140625 18.5 C 12.191406 18.832031 12.222656 19.164063 12.230469 19.5 L 12.140625 20.070313 C 11.996094 20.074219 11.851563 20.09375 11.710938 20.128906 C 10.722656 20.46875 10.023438 21.351563 9.921875 22.390625 C 9.730469 23.507813 9.792969 24.652344 10.101563 25.738281 C 10.640625 27.738281 11.761719 29.230469 12.988281 29.738281 C 13.640625 31.722656 14.554688 33.605469 15.710938 35.339844 L 6.488281 40.671875 C 2.472656 42.992188 0 47.28125 0 51.921875 L 0 59 C 0 60.65625 1.34375 62 3 62 L 49 62 C 50.65625 62 52 60.65625 52 59 L 52 56 L 61 56 C 62.65625 56 64 54.65625 64 53 L 64 49.441406 C 64.007813 45.710938 62.125 42.234375 59 40.199219 Z M 14.730469 28.601563 C 14.601563 28.160156 14.1875 27.863281 13.730469 27.878906 C 13.429688 27.878906 12.488281 27.101563 11.988281 25.261719 C 11.765625 24.46875 11.714844 23.640625 11.839844 22.828125 C 11.949219 22.320313 12.128906 22.121094 12.179688 22.101563 C 12.277344 22.125 12.367188 22.164063 12.449219 22.21875 C 12.75 22.417969 13.128906 22.441406 13.449219 22.28125 C 13.769531 22.113281 13.976563 21.789063 13.988281 21.429688 C 14.011719 20.914063 14.066406 20.398438 14.160156 19.890625 C 14.210938 19.34375 14.183594 18.789063 14.078125 18.25 C 13.84375 16.542969 13.816406 14.8125 14 13.101563 C 14.308594 9.910156 16.191406 8 19 8 C 19.214844 8 19.425781 7.929688 19.601563 7.800781 C 21.519531 6.609375 23.738281 5.984375 26 6 L 27 6 C 33.070313 6 37.449219 9.101563 39.25 14.578125 C 38.578125 14.453125 37.882813 14.628906 37.351563 15.058594 C 36.777344 15.6875 36.664063 16.613281 37.070313 17.359375 C 37.597656 18.65625 37.902344 20.03125 37.96875 21.429688 C 37.984375 21.789063 38.191406 22.113281 38.511719 22.28125 C 38.828125 22.441406 39.210938 22.417969 39.511719 22.21875 C 39.59375 22.167969 39.683594 22.128906 39.78125 22.101563 C 39.976563 22.296875 40.09375 22.554688 40.121094 22.828125 C 40.253906 23.640625 40.214844 24.46875 40 25.261719 C 39.824219 25.984375 39.5 26.664063 39.050781 27.261719 C 38.71875 27.679688 38.410156 27.878906 38.261719 27.878906 C 37.800781 27.863281 37.386719 28.160156 37.261719 28.601563 C 36.65625 30.636719 35.746094 32.566406 34.558594 34.328125 C 34.191406 34.890625 33.789063 35.429688 33.351563 35.941406 C 31.339844 38.351563 28.78125 40 26 40 C 23.21875 40 20.660156 38.351563 18.640625 35.941406 C 18.203125 35.429688 17.796875 34.890625 17.429688 34.328125 C 16.246094 32.566406 15.335938 30.636719 14.730469 28.601563 Z M 50 59 C 50 59.550781 49.550781 60 49 60 L 3 60 C 2.449219 60 2 59.550781 2 59 L 2 51.921875 C 2 47.996094 4.09375 44.367188 7.488281 42.398438 L 16.910156 36.941406 C 19.328125 39.910156 22.5 42 26 42 C 29.5 42 32.671875 39.910156 35.089844 36.941406 L 44.511719 42.398438 C 47.90625 44.367188 50 47.996094 50 51.921875 Z M 62 53 C 62 53.550781 61.550781 54 61 54 L 52 54 L 52 51.921875 C 52 47.28125 49.527344 42.992188 45.511719 40.671875 L 36.289063 35.328125 C 37.441406 33.59375 38.355469 31.710938 39 29.730469 C 40.230469 29.269531 41.351563 27.730469 41.890625 25.730469 C 42.199219 24.640625 42.261719 23.496094 42.070313 22.378906 C 41.964844 21.339844 41.265625 20.457031 40.28125 20.121094 C 40.140625 20.082031 39.996094 20.0625 39.851563 20.058594 C 39.679688 18.882813 39.371094 17.726563 38.929688 16.621094 L 38.929688 16.511719 C 39.402344 16.570313 39.867188 16.691406 40.308594 16.871094 C 40.652344 17.011719 41.046875 16.953125 41.332031 16.714844 C 41.617188 16.476563 41.746094 16.101563 41.671875 15.738281 C 41.078125 12.8125 39.648438 10.125 37.550781 8 C 38.722656 7.75 39.921875 7.644531 41.121094 7.679688 C 41.734375 7.683594 42.328125 7.882813 42.820313 8.25 C 42.980469 8.371094 43.175781 8.441406 43.378906 8.449219 C 48.332031 8.664063 52.53125 12.164063 53.628906 17 L 55.328125 24.410156 C 55.75 26.25 56.496094 28 57.53125 29.578125 L 59.25 32.199219 C 56.496094 33.402344 53.625 34.304688 50.679688 34.898438 L 48.609375 33.570313 C 49.570313 32.382813 50.296875 31.027344 50.761719 29.570313 C 50.914063 29.238281 51.152344 28.949219 51.449219 28.738281 C 52.320313 27.933594 52.84375 26.824219 52.910156 25.640625 C 53.132813 24.40625 52.761719 23.140625 51.910156 22.21875 C 51.671875 22 51.628906 21.878906 51.621094 21.820313 L 51.621094 21.578125 C 51.554688 20.765625 51.417969 19.953125 51.21875 19.160156 C 51.085938 18.726563 50.671875 18.4375 50.21875 18.460938 L 48.320313 18.460938 C 46.871094 18.425781 45.425781 18.273438 44 18 C 43.449219 17.902344 42.917969 18.269531 42.820313 18.820313 C 42.71875 19.371094 43.085938 19.902344 43.640625 20 C 45.203125 20.285156 46.789063 20.441406 48.378906 20.460938 L 49.5 20.460938 C 49.570313 20.921875 49.628906 21.460938 49.671875 21.800781 L 49.671875 22.039063 C 49.765625 22.683594 50.097656 23.269531 50.601563 23.679688 C 50.945313 24.203125 51.0625 24.839844 50.929688 25.449219 C 50.90625 26.09375 50.652344 26.703125 50.210938 27.171875 C 49.632813 27.605469 49.183594 28.1875 48.910156 28.859375 C 48 31.300781 47.109375 33 43.289063 35 C 42.945313 35.148438 42.714844 35.476563 42.6875 35.851563 C 42.664063 36.222656 42.847656 36.582031 43.167969 36.773438 C 43.488281 36.96875 43.890625 36.964844 44.210938 36.769531 C 45.234375 36.273438 46.210938 35.683594 47.121094 35 L 57.890625 41.929688 C 60.4375 43.578125 61.984375 46.402344 62 49.441406 Z "/>
      <path style=" fill:#8D6C9F;" d="M 33.550781 42.109375 L 26 45.878906 L 18.449219 42.101563 C 17.960938 41.875 17.378906 42.078125 17.136719 42.5625 C 16.898438 43.046875 17.082031 43.632813 17.558594 43.890625 L 25.558594 47.890625 C 25.839844 48.027344 26.167969 48.027344 26.449219 47.890625 L 34.449219 43.890625 C 34.78125 43.738281 35.003906 43.417969 35.03125 43.054688 C 35.054688 42.691406 34.882813 42.339844 34.578125 42.140625 C 34.269531 41.945313 33.882813 41.925781 33.558594 42.101563 Z "/>
      <path style=" fill:#8D6C9F;" d="M 41 54 C 40.449219 54 40 54.449219 40 55 L 40 57 C 40 57.550781 40.449219 58 41 58 C 41.550781 58 42 57.550781 42 57 L 42 55 C 42 54.449219 41.550781 54 41 54 Z "/>
      <path style=" fill:#8D6C9F;" d="M 46 54 C 45.449219 54 45 54.449219 45 55 L 45 57 C 45 57.550781 45.449219 58 46 58 C 46.550781 58 47 57.550781 47 57 L 47 55 C 47 54.449219 46.550781 54 46 54 Z "/>
      <path style=" fill:#8D6C9F;" d="M 36 54 C 35.449219 54 35 54.449219 35 55 L 35 57 C 35 57.550781 35.449219 58 36 58 C 36.550781 58 37 57.550781 37 57 L 37 55 C 37 54.449219 36.550781 54 36 54 Z "/>
      <path style=" fill:#8D6C9F;" d="M 31 54 C 30.449219 54 30 54.449219 30 55 L 30 57 C 30 57.550781 30.449219 58 31 58 C 31.550781 58 32 57.550781 32 57 L 32 55 C 32 54.449219 31.550781 54 31 54 Z "/>
      <path style=" fill:#8D6C9F;" d="M 26 54 C 25.449219 54 25 54.449219 25 55 L 25 57 C 25 57.550781 25.449219 58 26 58 C 26.550781 58 27 57.550781 27 57 L 27 55 C 27 54.449219 26.550781 54 26 54 Z "/>
      <path style=" fill:#8D6C9F;" d="M 21 54 C 20.449219 54 20 54.449219 20 55 L 20 57 C 20 57.550781 20.449219 58 21 58 C 21.550781 58 22 57.550781 22 57 L 22 55 C 22 54.449219 21.550781 54 21 54 Z "/>
      <path style=" fill:#8D6C9F;" d="M 16 54 C 15.449219 54 15 54.449219 15 55 L 15 57 C 15 57.550781 15.449219 58 16 58 C 16.550781 58 17 57.550781 17 57 L 17 55 C 17 54.449219 16.550781 54 16 54 Z "/>
      <path style=" fill:#8D6C9F;" d="M 11 54 C 10.449219 54 10 54.449219 10 55 L 10 57 C 10 57.550781 10.449219 58 11 58 C 11.550781 58 12 57.550781 12 57 L 12 55 C 12 54.449219 11.550781 54 11 54 Z "/>
      <path style=" fill:#8D6C9F;" d="M 6 54 C 5.449219 54 5 54.449219 5 55 L 5 57 C 5 57.550781 5.449219 58 6 58 C 6.550781 58 7 57.550781 7 57 L 7 55 C 7 54.449219 6.550781 54 6 54 Z "/>
      <path style=" fill:#8D6C9F;" d="M 17.910156 17 C 17.542969 17 17.207031 16.796875 17.035156 16.472656 C 16.859375 16.148438 16.878906 15.757813 17.078125 15.449219 L 18.679688 13 C 19.234375 12.15625 20.324219 11.859375 21.230469 12.300781 L 22.789063 13.058594 C 25.382813 14.328125 28.226563 14.988281 31.109375 15 L 33.660156 15 C 34.210938 15 34.660156 15.449219 34.660156 16 C 34.660156 16.550781 34.210938 17 33.660156 17 L 31.109375 17 C 27.921875 16.996094 24.777344 16.273438 21.910156 14.878906 L 20.351563 14.121094 L 18.75 16.550781 C 18.5625 16.832031 18.25 17 17.910156 17 Z "/>
    </g>
  </g>
  <g transform="matrix(5.051841, 0, 0, 5.051841, -770.225769, -1428.847778)" style="">
    <g>
      <path d="M 233.088 361.216 L 222.949 361.216 L 222.949 371.355 C 222.949 373.217 221.431 374.735 219.569 374.735 C 217.708 374.735 216.189 373.217 216.189 371.355 L 216.189 361.216 L 206.05 361.216 C 204.188 361.216 202.67 359.697 202.67 357.836 C 202.67 355.974 204.188 354.456 206.05 354.456 L 216.189 354.456 L 216.189 344.317 C 216.189 342.455 217.708 340.937 219.569 340.937 C 221.431 340.937 222.949 342.455 222.949 344.317 L 222.949 354.456 L 233.088 354.456 C 234.95 354.456 236.468 355.974 236.468 357.836 C 236.468 359.697 234.95 361.216 233.088 361.216 Z" transform="matrix(-1, 0, 0, -1, 439.138006, 715.672014)" style="fill: rgb(47, 173, 135);"/>
    </g>
  </g>
</svg>