<?xml version="1.0" encoding="utf-8"?>
<svg viewBox="0 0 500 500" xmlns="http://www.w3.org/2000/svg">
  <title>Icons8 RSL Colored Part 10</title>
  <g transform="matrix(2.623808, 0, 0, 2.623808, -51.38578, -726.82959)">
    <path style=" fill:#FAEFDE;" d="M 81.72 463.358 L 178.929 463.358 C 184.527 463.358 189.068 458.829 189.068 453.218 L 189.068 290.987 C 189.068 285.389 184.527 280.848 178.929 280.848 L 50.496 280.848 C 44.898 280.848 40.357 285.389 40.357 290.987 L 40.357 421.995 C 40.357 424.688 41.426 427.262 43.327 429.163 L 74.564 460.387 C 76.465 462.288 79.04 463.358 81.72 463.358 Z" transform="matrix(-1, 0, 0, -1, 229.425003, 744.206)"/>
    <path style=" fill:#FFF7F0;" d="M 40.859 284.624 L 40.357 316.6 L 187.339 463.556 L 189.57 386.018 L 88.176 284.624 Z" transform="matrix(-1, 0, 0, -1, 229.926991, 748.180023)"/>
    <path style=" fill:#FFF7F0;" d="M 54.523 300.625 L 170.136 416.239 L 189.57 415.394 L 55.025 280.848 Z" transform="matrix(-1, 0, 0, -1, 244.093026, 697.087059)"/>
    <path style=" fill:#FFF7F0;" d="M 84.294 291.185 L 179.43 386.322 L 189.57 386.322 L 84.294 281.046 Z" transform="matrix(-1, 0, 0, -1, 273.864012, 667.367959)"/>
    <path style=" fill:#FFFFFF;" d="M 72.464 331.744 L 76.649 324.1 L 84.294 319.915 L 76.649 315.73 L 72.464 308.085 L 68.279 315.73 L 60.635 319.915 L 68.279 324.1 Z" transform="matrix(-1, 0, 0, -1, 144.928998, 639.82895)"/>
    <path style=" fill:#FFFFFF;" d="M 123.44 317.683 L 126.305 312.415 L 131.612 309.497 L 126.305 306.632 L 123.44 301.325 L 120.522 306.632 L 115.254 309.497 L 120.522 312.415 Z" transform="matrix(-1, 0, 0, -1, 246.865997, 619.008035)"/>
    <path style=" fill:#FFFFFF;" d="M 169.964 417.256 L 171.931 413.679 L 175.549 411.685 L 171.931 409.718 L 169.964 406.1 L 168.01 409.718 L 164.393 411.685 L 168.01 413.679 Z" transform="matrix(-1, 0, 0, -1, 339.942031, 823.356045)"/>
    <path style=" fill:#BBDEF9;" d="M 189.068 321.604 L 189.068 281.046 L 148.511 281.046 Z" transform="matrix(-1, 0, 0, -1, 337.578967, 602.650019)"/>
    <path style=" fill:#8D6C9F;" d="M 182.309 466.936 L 83.146 466.936 C 78.657 466.95 74.353 465.167 71.184 461.999 L 41.914 432.729 C 38.746 429.56 36.964 425.256 36.977 420.768 L 36.977 287.806 C 36.977 282.208 41.518 277.667 47.116 277.667 L 182.309 277.667 C 187.907 277.667 192.448 282.208 192.448 287.806 L 192.448 456.797 C 192.448 462.395 187.907 466.936 182.309 466.936 Z M 75.977 457.206 C 76.452 457.682 76.98 458.117 77.535 458.487 L 77.535 429.759 C 77.535 427.897 76.016 426.379 74.155 426.379 L 45.426 426.379 C 45.796 426.933 46.232 427.461 46.707 427.937 Z M 185.689 287.806 C 185.689 285.945 184.17 284.426 182.309 284.426 L 47.116 284.426 C 45.255 284.426 43.736 285.945 43.736 287.806 L 43.736 419.619 L 74.155 419.619 C 79.753 419.619 84.294 424.161 84.294 429.759 L 84.294 460.177 L 182.309 460.177 C 184.17 460.177 185.689 458.659 185.689 456.797 Z" transform="matrix(-1, 0, 0, -1, 229.424937, 744.603059)"/>
    <path style="fill: rgb(141, 108, 159); fill-opacity: 0.25;" d="M 175.549 446.657 C 173.687 446.657 172.169 445.139 172.169 443.277 L 172.169 436.517 C 172.169 434.656 173.687 433.138 175.549 433.138 C 177.41 433.138 178.929 434.656 178.929 436.517 L 178.929 443.277 C 178.929 445.139 177.41 446.657 175.549 446.657 Z" transform="matrix(-1, 0, 0, -1, 351.098022, 879.795067)"/>
    <path style="fill: rgb(141, 108, 159); fill-opacity: 0.25;" d="M 158.65 446.657 C 156.788 446.657 155.27 445.139 155.27 443.277 L 155.27 436.517 C 155.27 434.656 156.788 433.138 158.65 433.138 C 160.511 433.138 162.03 434.656 162.03 436.517 L 162.03 443.277 C 162.03 445.139 160.511 446.657 158.65 446.657 Z" transform="matrix(-1, 0, 0, -1, 317.300004, 879.795067)"/>
    <path style="fill: rgb(141, 108, 159); fill-opacity: 0.25;" d="M 141.751 446.657 C 139.889 446.657 138.371 445.139 138.371 443.277 L 138.371 436.517 C 138.371 434.656 139.889 433.138 141.751 433.138 C 143.613 433.138 145.131 434.656 145.131 436.517 L 145.131 443.277 C 145.131 445.139 143.613 446.657 141.751 446.657 Z" transform="matrix(-1, 0, 0, -1, 283.502018, 879.795067)"/>
    <path style="fill: rgb(141, 108, 159); fill-opacity: 0.25;" d="M 124.852 446.657 C 122.991 446.657 121.472 445.139 121.472 443.277 L 121.472 436.517 C 121.472 434.656 122.991 433.138 124.852 433.138 C 126.714 433.138 128.232 434.656 128.232 436.517 L 128.232 443.277 C 128.232 445.139 126.714 446.657 124.852 446.657 Z" transform="matrix(-1, 0, 0, -1, 249.703999, 879.795067)"/>
    <path style="fill: rgb(141, 108, 159); fill-opacity: 0.25;" d="M 107.953 446.657 C 106.092 446.657 104.573 445.139 104.573 443.277 L 104.573 436.517 C 104.573 434.656 106.092 433.138 107.953 433.138 C 109.815 433.138 111.333 434.656 111.333 436.517 L 111.333 443.277 C 111.333 445.139 109.815 446.657 107.953 446.657 Z" transform="matrix(-1, 0, 0, -1, 215.906014, 879.795067)"/>
    <path style="fill: rgb(141, 108, 159); fill-opacity: 0.25;" d="M 91.054 446.657 C 89.193 446.657 87.674 445.139 87.674 443.277 L 87.674 436.517 C 87.674 434.656 89.193 433.138 91.054 433.138 C 92.916 433.138 94.434 434.656 94.434 436.517 L 94.434 443.277 C 94.434 445.139 92.916 446.657 91.054 446.657 Z" transform="matrix(-1, 0, 0, -1, 182.107995, 879.795067)"/>
    <path style="fill: rgb(141, 108, 159); fill-opacity: 0.25;" d="M 74.154 446.657 C 72.293 446.657 70.775 445.139 70.775 443.277 L 70.775 436.517 C 70.775 434.656 72.293 433.138 74.154 433.138 C 76.016 433.138 77.534 434.656 77.534 436.517 L 77.534 443.277 C 77.534 445.139 76.016 446.657 74.154 446.657 Z" transform="matrix(-1, 0, 0, -1, 148.308985, 879.795067)"/>
    <path style="fill: rgb(141, 108, 159); fill-opacity: 0.25;" d="M 57.255 446.657 C 55.394 446.657 53.876 445.139 53.876 443.277 L 53.876 436.517 C 53.876 434.656 55.394 433.138 57.255 433.138 C 59.117 433.138 60.635 434.656 60.635 436.517 L 60.635 443.277 C 60.635 445.139 59.117 446.657 57.255 446.657 Z" transform="matrix(-1, 0, 0, -1, 114.511, 879.795067)"/>
  </g>
  <path style="fill: rgb(255, 255, 255);" d="M 180.529 120.305 L 166.883 145.153 L 142.077 158.756 L 166.883 172.364 L 180.529 197.21 L 194.134 172.364 L 218.983 158.756 L 194.134 145.153 Z"/>
  <path style="fill: rgb(141, 108, 159); fill-opacity: 0.25;" d="M 109.625 260.812 L 329.358 260.812 C 335.41 260.812 340.344 255.876 340.344 249.825 C 340.344 243.773 335.41 238.837 329.358 238.837 L 109.625 238.837 C 103.575 238.837 98.638 243.773 98.638 249.825 C 98.638 255.876 103.575 260.812 109.625 260.812 Z"/>
  <path style="fill: rgb(141, 108, 159); fill-opacity: 0.25;" d="M 109.625 305.662 L 307.384 305.662 C 313.435 305.662 318.37 300.726 318.37 294.674 C 318.37 288.627 313.435 283.688 307.384 283.688 L 109.625 283.688 C 103.575 283.688 98.638 288.627 98.638 294.674 C 98.638 300.726 103.575 305.662 109.625 305.662 Z"/>
  <path d="M 389.636 268.229 C 389.636 249.34 380.322 232.626 366.048 222.414 C 362.832 220.137 361.232 216.257 361.871 212.358 C 364.77 195.048 359.532 176.657 346.18 163.286 C 332.808 149.932 314.416 144.692 297.082 147.576 C 293.206 148.23 289.33 146.632 287.048 143.416 C 276.836 129.142 260.125 119.825 241.232 119.825 C 222.344 119.825 205.628 129.142 195.417 143.416 C 193.139 146.632 189.259 148.23 185.361 147.593 C 168.049 144.692 149.661 149.932 136.289 163.286 C 122.934 176.657 117.695 195.048 120.576 212.379 C 121.232 216.257 119.614 220.137 116.417 222.435 C 102.146 232.626 92.829 249.34 92.829 268.229 C 92.829 287.124 102.146 303.831 116.417 314.048 C 119.635 316.329 121.232 320.205 120.593 324.1 C 117.716 341.413 122.934 359.806 136.289 373.179 C 149.661 386.529 168.049 391.768 185.382 388.889 C 189.259 388.23 193.139 389.849 195.437 393.045 C 205.628 407.321 222.344 416.635 241.232 416.635 C 260.125 416.635 276.836 407.321 287.048 393.045 C 289.33 389.828 293.206 388.23 297.103 388.868 C 314.416 391.748 332.808 386.529 346.18 373.179 C 359.532 359.806 364.77 341.413 361.892 324.084 C 361.232 320.205 362.851 316.329 366.048 314.026 C 380.322 303.831 389.636 287.124 389.636 268.229 Z" style="fill: rgb(114, 202, 175);"/>
  <path d="M 338.462 268.229 C 338.462 321.921 294.925 365.459 241.232 365.459 C 187.54 365.459 144.003 321.921 144.003 268.229 C 144.003 214.538 187.54 170.999 241.232 170.999 C 294.925 170.999 338.462 214.538 338.462 268.229 Z" style="fill: rgb(136, 215, 182);"/>
  <path d="M 369.029 218.258 C 367.41 217.096 366.608 215.156 366.93 213.199 C 370.187 193.671 363.771 173.661 349.798 159.667 C 338.203 148.07 322.79 141.693 306.378 141.693 C 303.002 141.693 299.603 141.977 296.262 142.535 C 294.305 142.855 292.367 142.055 291.209 140.437 C 279.691 124.323 261.003 114.709 241.232 114.709 C 221.462 114.709 202.774 124.323 191.257 140.437 C 190.099 142.055 188.163 142.855 186.203 142.535 C 182.887 141.977 179.467 141.693 176.085 141.693 C 159.675 141.693 144.262 148.07 132.667 159.667 C 118.697 173.661 112.297 193.671 115.538 213.199 C 115.858 215.156 115.058 217.096 113.438 218.258 C 97.326 229.77 87.713 248.458 87.713 268.229 C 87.713 288.001 97.326 306.69 113.438 318.208 C 115.058 319.364 115.858 321.304 115.538 323.261 C 112.277 342.793 118.697 362.8 132.667 376.795 C 144.262 388.391 159.675 394.768 176.085 394.768 C 179.467 394.768 182.866 394.487 186.203 393.927 C 188.163 393.608 190.099 394.409 191.257 396.027 C 202.774 412.136 221.462 421.752 241.232 421.752 C 261.003 421.752 279.691 412.136 291.209 396.027 C 292.367 394.409 294.305 393.608 296.262 393.927 C 299.582 394.487 303.002 394.768 306.378 394.768 C 322.79 394.768 338.203 388.391 349.798 376.795 C 363.771 362.8 370.167 342.793 366.93 323.261 C 366.608 321.304 367.41 319.364 369.029 318.208 C 385.138 306.69 394.752 288.001 394.752 268.229 C 394.752 248.458 385.138 229.77 369.029 218.258 Z M 363.07 309.89 C 358.255 313.329 355.874 319.084 356.833 324.941 C 359.532 341.232 354.196 357.906 342.56 369.558 C 332.886 379.215 320.05 384.532 306.378 384.532 C 303.56 384.532 300.725 384.29 297.943 383.83 C 292.085 382.85 286.27 385.349 282.891 390.068 C 273.275 403.503 257.704 411.516 241.232 411.516 C 224.761 411.516 209.186 403.503 199.573 390.068 C 196.697 386.03 192.017 383.634 187.08 383.634 C 186.24 383.634 185.382 383.691 184.521 383.83 C 181.745 384.29 178.903 384.532 176.085 384.532 C 162.415 384.532 149.58 379.215 139.924 369.558 C 128.273 357.906 122.934 341.232 125.631 324.941 C 126.611 319.084 124.214 313.329 119.396 309.89 C 105.958 300.272 97.945 284.702 97.945 268.229 C 97.945 251.757 105.958 236.187 119.396 226.571 C 124.214 223.132 126.59 217.376 125.631 211.52 C 122.934 195.229 128.273 178.556 139.904 166.901 C 149.58 157.247 162.415 151.933 176.085 151.933 C 178.903 151.933 181.745 152.168 184.521 152.63 C 190.399 153.611 196.195 151.11 199.573 146.394 C 209.186 132.962 224.761 124.945 241.232 124.945 C 257.704 124.945 273.275 132.962 282.891 146.394 C 286.27 151.11 292.085 153.611 297.943 152.63 C 300.725 152.168 303.56 151.933 306.378 151.933 C 320.05 151.933 332.886 157.247 342.54 166.901 C 354.196 178.556 359.532 195.246 356.833 211.541 C 355.853 217.376 358.255 223.132 363.07 226.59 C 376.506 236.187 384.518 251.757 384.518 268.229 C 384.518 284.702 376.506 300.272 363.07 309.89 Z" style="fill: rgb(141, 108, 159);"/>
  <path d="M 229.985 223.382 L 252.247 223.382 C 261.465 223.382 268.943 229.972 268.943 238.097 C 268.943 240.801 271.444 243.004 274.51 243.004 C 277.575 243.004 280.075 240.801 280.075 238.097 C 280.075 224.548 267.618 213.568 252.247 213.568 L 246.682 213.568 L 246.682 198.846 C 246.682 196.143 244.181 193.941 241.115 193.941 C 238.051 193.941 235.552 196.143 235.552 198.846 L 235.552 213.568 L 229.985 213.568 C 214.614 213.568 202.157 224.548 202.157 238.097 L 202.157 247.91 C 202.157 261.461 214.614 272.443 229.985 272.443 L 252.247 272.443 C 261.465 272.443 268.943 279.035 268.943 287.163 L 268.943 296.977 C 268.943 305.101 261.465 311.695 252.247 311.695 L 246.682 311.695 L 246.682 282.255 C 246.682 279.553 244.181 277.35 241.115 277.35 C 238.051 277.35 235.552 279.553 235.552 282.255 L 235.552 311.695 L 229.985 311.695 C 220.767 311.695 213.289 305.101 213.289 296.977 C 213.289 294.275 210.788 292.068 207.724 292.068 C 204.657 292.068 202.157 294.275 202.157 296.977 C 202.157 310.524 214.614 321.506 229.985 321.506 L 235.552 321.506 L 235.552 336.227 C 235.552 338.927 238.051 341.133 241.115 341.133 C 244.181 341.133 246.682 338.927 246.682 336.227 L 246.682 321.506 L 252.247 321.506 C 267.618 321.506 280.075 310.524 280.075 296.977 L 280.075 287.163 C 280.075 273.612 267.618 262.63 252.247 262.63 L 246.682 262.63 L 246.682 233.194 C 246.682 230.491 244.181 228.285 241.115 228.285 C 238.051 228.285 235.552 230.491 235.552 233.194 L 235.552 262.63 L 229.985 262.63 C 220.767 262.63 213.289 256.036 213.289 247.91 L 213.289 238.097 C 213.289 229.972 220.767 223.382 229.985 223.382 Z" style="fill: rgb(0, 0, 15);"/>
  <path d="M 241.232 355.227 C 238.393 355.227 236.113 357.523 236.113 360.343 L 236.113 370.575 C 236.113 373.397 238.393 375.696 241.232 375.696 C 244.07 375.696 246.348 373.397 246.348 370.575 L 246.348 360.343 C 246.348 357.523 244.07 355.227 241.232 355.227 Z" style="fill: rgb(141, 108, 159);"/>
  <path d="M 241.232 181.235 C 244.07 181.235 246.348 178.937 246.348 176.119 L 246.348 165.882 C 246.348 163.064 244.07 160.766 241.232 160.766 C 238.393 160.766 236.113 163.064 236.113 165.882 L 236.113 176.119 C 236.113 178.937 238.393 181.235 241.232 181.235 Z" style="fill: rgb(141, 108, 159);"/>
  <path d="M 343.578 263.112 L 333.346 263.112 C 330.508 263.112 328.23 265.413 328.23 268.229 C 328.23 271.047 330.508 273.348 333.346 273.348 L 343.578 273.348 C 346.421 273.348 348.697 271.047 348.697 268.229 C 348.697 265.413 346.421 263.112 343.578 263.112 Z" style="fill: rgb(141, 108, 159);"/>
  <path d="M 149.122 273.348 C 151.957 273.348 154.238 271.047 154.238 268.229 C 154.238 265.413 151.957 263.112 149.122 263.112 L 138.887 263.112 C 136.044 263.112 133.767 265.413 133.767 268.229 C 133.767 271.047 136.044 273.348 138.887 273.348 Z" style="fill: rgb(141, 108, 159);"/>
  <path d="M 172.487 329.74 L 165.233 336.977 C 163.232 338.975 163.232 342.232 165.233 344.23 C 166.233 345.233 167.551 345.73 168.849 345.73 C 170.171 345.73 171.47 345.233 172.47 344.23 L 179.725 336.998 C 181.724 334.995 181.724 331.759 179.725 329.761 C 177.726 327.763 174.488 327.763 172.487 329.74 Z" style="fill: rgb(141, 108, 159);"/>
  <path d="M 306.359 208.219 C 307.68 208.219 308.982 207.722 309.978 206.721 L 317.234 199.484 C 319.233 197.486 319.233 194.248 317.234 192.25 C 315.236 190.25 311.996 190.25 309.999 192.25 L 302.741 199.484 C 300.743 201.485 300.743 204.723 302.741 206.721 C 303.74 207.722 305.061 208.219 306.359 208.219 Z" style="fill: rgb(141, 108, 159);"/>
  <path d="M 309.978 329.74 C 307.979 327.763 304.739 327.763 302.741 329.74 C 300.743 331.738 300.743 334.995 302.741 336.998 L 309.999 344.23 C 310.997 345.233 312.295 345.712 313.616 345.712 C 314.914 345.712 316.235 345.212 317.234 344.211 C 319.233 342.213 319.233 338.975 317.234 336.977 Z" style="fill: rgb(141, 108, 159);"/>
  <path d="M 172.487 206.721 C 173.487 207.722 174.788 208.199 176.106 208.199 C 177.403 208.199 178.727 207.702 179.725 206.701 C 181.724 204.703 181.724 201.465 179.725 199.467 L 172.47 192.23 C 170.467 190.232 167.23 190.232 165.233 192.23 C 163.232 194.228 163.232 197.47 165.233 199.467 Z" style="fill: rgb(141, 108, 159);"/>
  <path d="M 270.02 355.887 C 269.278 353.148 266.482 351.529 263.743 352.268 C 261.02 352.987 259.402 355.805 260.125 358.529 L 262.784 368.421 C 263.381 370.698 265.458 372.22 267.719 372.22 C 268.159 372.22 268.598 372.157 269.061 372.039 C 271.778 371.297 273.394 368.5 272.676 365.761 Z" style="fill: rgb(141, 108, 159);"/>
  <path d="M 212.449 180.573 C 213.047 182.875 215.126 184.374 217.383 184.374 C 217.827 184.374 218.265 184.312 218.725 184.194 C 221.445 183.473 223.062 180.656 222.344 177.937 L 219.681 168.043 C 218.943 165.303 216.168 163.684 213.408 164.422 C 210.689 165.164 209.07 167.964 209.788 170.7 Z" style="fill: rgb(141, 108, 159);"/>
  <path d="M 325.269 245.725 C 325.871 248.002 327.946 249.52 330.207 249.52 C 330.648 249.52 331.086 249.459 331.53 249.34 L 341.425 246.68 C 344.141 245.942 345.778 243.145 345.04 240.406 C 344.32 237.688 341.523 236.068 338.762 236.785 L 328.889 239.448 C 326.15 240.183 324.528 242.985 325.269 245.725 Z" style="fill: rgb(141, 108, 159);"/>
  <path d="M 157.196 290.74 C 156.474 288.02 153.678 286.399 150.939 287.124 L 141.044 289.781 C 138.326 290.518 136.687 293.32 137.425 296.058 C 138.045 298.336 140.105 299.856 142.364 299.856 C 142.804 299.856 143.244 299.795 143.703 299.675 L 153.574 297.018 C 156.315 296.276 157.936 293.48 157.196 290.74 Z" style="fill: rgb(141, 108, 159);"/>
  <path d="M 197.735 343.571 C 195.278 342.154 192.159 342.992 190.736 345.45 L 185.62 354.306 C 184.221 356.745 185.061 359.883 187.499 361.3 C 188.3 361.762 189.181 361.983 190.058 361.983 C 191.82 361.983 193.538 361.065 194.497 359.422 L 199.613 350.57 C 201.03 348.111 200.193 344.99 197.735 343.571 Z" style="fill: rgb(141, 108, 159);"/>
  <path d="M 284.729 192.889 C 285.533 193.346 286.41 193.567 287.29 193.567 C 289.05 193.567 290.768 192.666 291.724 191.011 L 296.844 182.154 C 298.244 179.717 297.403 176.579 294.965 175.157 C 292.527 173.76 289.39 174.596 287.966 177.035 L 282.854 185.894 C 281.434 188.35 282.271 191.468 284.729 192.889 Z" style="fill: rgb(141, 108, 159);"/>
  <path d="M 332.423 314.965 L 323.572 309.851 C 321.112 308.431 317.991 309.268 316.574 311.727 C 315.156 314.167 315.996 317.305 318.452 318.722 L 327.308 323.841 C 328.107 324.304 328.988 324.521 329.866 324.521 C 331.626 324.521 333.346 323.603 334.306 321.962 C 335.723 319.525 334.885 316.386 332.423 314.965 Z" style="fill: rgb(141, 108, 159);"/>
  <path d="M 150.037 221.495 L 158.894 226.611 C 159.696 227.073 160.574 227.292 161.455 227.292 C 163.232 227.292 164.951 226.373 165.89 224.733 C 167.314 222.295 166.473 219.157 164.012 217.735 L 155.157 212.619 C 152.72 211.201 149.58 212.038 148.158 214.498 C 146.743 216.937 147.581 220.075 150.037 221.495 Z" style="fill: rgb(141, 108, 159);"/>
  <path d="M 291.724 345.45 C 290.308 342.992 287.169 342.154 284.729 343.571 C 282.271 344.969 281.434 348.111 282.854 350.57 L 287.966 359.422 C 288.93 361.065 290.645 361.983 292.407 361.983 C 293.284 361.983 294.166 361.762 294.965 361.3 C 297.423 359.883 298.264 356.745 296.844 354.306 Z" style="fill: rgb(141, 108, 159);"/>
  <path d="M 190.736 191.011 C 191.697 192.666 193.416 193.567 195.178 193.567 C 196.054 193.567 196.936 193.346 197.735 192.889 C 200.193 191.489 201.03 188.35 199.613 185.894 L 194.497 177.035 C 193.078 174.581 189.939 173.76 187.499 175.157 C 185.04 176.579 184.205 179.717 185.62 182.154 Z" style="fill: rgb(141, 108, 159);"/>
  <path d="M 316.574 224.733 C 317.533 226.373 319.233 227.292 321.013 227.292 C 321.891 227.292 322.773 227.073 323.572 226.611 L 332.423 221.495 C 334.885 220.075 335.723 216.937 334.306 214.498 C 332.886 212.038 329.747 211.201 327.308 212.619 L 318.452 217.735 C 315.996 219.157 315.156 222.295 316.574 224.733 Z" style="fill: rgb(141, 108, 159);"/>
  <path d="M 165.89 311.727 C 164.47 309.268 161.332 308.431 158.894 309.851 L 150.037 314.965 C 147.581 316.386 146.743 319.525 148.158 321.962 C 149.122 323.603 150.838 324.521 152.599 324.521 C 153.476 324.521 154.358 324.304 155.157 323.841 L 164.012 318.722 C 166.473 317.305 167.314 314.167 165.89 311.727 Z" style="fill: rgb(141, 108, 159);"/>
  <path d="M 218.725 352.268 C 215.984 351.55 213.186 353.148 212.449 355.887 L 209.788 365.761 C 209.07 368.5 210.689 371.297 213.408 372.039 C 213.867 372.157 214.306 372.22 214.747 372.22 C 217.005 372.22 219.084 370.698 219.681 368.421 L 222.344 358.529 C 223.062 355.805 221.445 352.987 218.725 352.268 Z" style="fill: rgb(141, 108, 159);"/>
  <path d="M 263.743 184.194 C 264.2 184.312 264.642 184.374 265.08 184.374 C 267.339 184.374 269.418 182.875 270.02 180.573 L 272.676 170.7 C 273.394 167.964 271.778 165.164 269.061 164.422 C 266.341 163.684 263.521 165.303 262.784 168.043 L 260.125 177.937 C 259.402 180.656 261.02 183.473 263.743 184.194 Z" style="fill: rgb(141, 108, 159);"/>
  <path d="M 341.425 289.781 L 331.53 287.124 C 328.808 286.399 325.989 288.001 325.269 290.74 C 324.528 293.48 326.15 296.276 328.889 297.018 L 338.762 299.654 C 339.204 299.774 339.664 299.836 340.102 299.836 C 342.364 299.836 344.423 298.336 345.04 296.038 C 345.757 293.32 344.141 290.518 341.425 289.781 Z" style="fill: rgb(141, 108, 159);"/>
  <path d="M 141.044 246.68 L 150.939 249.34 C 151.376 249.459 151.821 249.52 152.257 249.52 C 154.514 249.52 156.598 248.002 157.196 245.725 C 157.936 242.985 156.315 240.183 153.574 239.448 L 143.703 236.806 C 140.984 236.068 138.165 237.688 137.425 240.424 C 136.708 243.145 138.326 245.942 141.044 246.68 Z" style="fill: rgb(141, 108, 159);"/>
  <path style=" fill:#FFFFFF;" d="M 467.429 352.057 L 464.021 358.296 L 457.758 361.774 L 464.021 365.204 L 467.429 371.514 L 470.906 365.204 L 477.169 361.774 L 470.906 358.296 Z"/>
</svg>