<?xml version="1.0" encoding="utf-8"?>
<svg viewBox="0 0 500 500" xmlns="http://www.w3.org/2000/svg">
  <g transform="matrix(2.749677, 0, 0, 2.749677, -229.823105, -414.137207)">
    <g>
      <path style=" fill:#FAEFDE;" d="M 205.154 154.298 L 112.644 154.298 C 107.303 154.298 102.993 158.608 102.993 163.949 L 102.993 318.359 C 102.993 323.687 107.303 328.009 112.644 328.009 L 234.885 328.009 C 240.213 328.009 244.535 323.687 244.535 318.359 L 244.535 193.667 C 244.548 191.129 243.568 188.666 241.796 186.844 L 211.977 157.125 C 210.168 155.316 207.717 154.298 205.154 154.298 Z"/>
      <path style=" fill:#FFF7F0;" d="M 244.535 232.169 L 244.535 215.356 L 243.794 189.872 C 243.317 188.666 242.6 187.573 241.696 186.655 L 227.798 172.757 L 102.993 297.763 L 103.471 320.796 C 104.589 325.018 108.409 327.959 112.769 327.971 L 148.695 327.971 Z"/>
      <path style=" fill:#FFF7F0;" d="M 211.977 157.125 C 211.676 156.836 211.349 156.573 211.01 156.321 L 102.993 264.338 L 103.471 283.161 L 220.761 165.871 Z"/>
      <path style=" fill:#FFF7F0;" d="M 102.993 245.037 L 193.543 154.487 L 203.194 154.487 L 102.993 254.687 Z"/>
      <path style=" fill:#FFFFFF;" d="M 156.4 212.599 L 152.404 219.875 L 145.141 223.858 L 152.404 227.842 L 156.4 235.117 L 160.383 227.842 L 167.659 223.858 L 160.383 219.875 Z"/>
      <path style=" fill:#FFFFFF;" d="M 178.841 164.137 L 176.102 169.151 L 171.088 171.928 L 176.102 174.655 L 178.841 179.706 L 181.605 174.655 L 186.632 171.928 L 181.605 169.151 Z"/>
      <path style=" fill:#FFFFFF;" d="M 226.353 273.511 L 224.493 276.916 L 221.075 278.814 L 224.493 280.686 L 226.353 284.129 L 228.25 280.686 L 231.668 278.814 L 228.25 276.916 Z"/>
      <path style=" fill:#BBDEF9;" d="M 205.933 154.487 L 205.933 193.089 L 244.535 193.089 Z"/>
      <path style=" fill:#8D6C9F;" d="M 243.53 183.828 L 215.672 155.969 C 212.656 152.954 208.559 151.257 204.287 151.27 L 109.904 151.27 C 104.576 151.27 100.254 155.592 100.254 160.92 L 100.254 321.764 C 100.254 327.092 104.576 331.415 109.904 331.415 L 238.579 331.415 C 243.907 331.415 248.23 327.092 248.23 321.764 L 248.23 195.213 C 248.242 190.94 246.546 186.844 243.53 183.828 Z M 238.994 188.364 C 239.459 188.817 239.861 189.307 240.225 189.834 L 212.844 189.834 C 211.072 189.834 209.627 188.402 209.627 186.618 L 209.627 159.312 C 210.155 159.664 210.658 160.078 211.11 160.531 Z M 238.579 324.981 L 109.904 324.981 C 108.133 324.981 106.687 323.536 106.687 321.764 L 106.687 160.92 C 106.687 159.149 108.133 157.703 109.904 157.703 L 203.194 157.703 L 203.194 186.655 C 203.194 191.983 207.516 196.306 212.844 196.306 L 241.796 196.306 L 241.796 321.764 C 241.796 323.536 240.351 324.981 238.579 324.981 Z"/>
      <path style="fill: rgb(141, 108, 159); fill-opacity: 0.25;" d="M 196.76 212.39 C 196.76 214.162 198.205 215.607 199.977 215.607 L 212.844 215.607 C 214.616 215.607 216.061 214.162 216.061 212.39 C 216.061 210.618 214.616 209.173 212.844 209.173 L 199.977 209.173 C 198.205 209.173 196.76 210.618 196.76 212.39 Z"/>
      <path style="fill: rgb(141, 108, 159); fill-opacity: 0.25;" d="M 135.639 215.607 L 187.109 215.607 C 188.881 215.607 190.326 214.162 190.326 212.39 C 190.326 210.618 188.881 209.173 187.109 209.173 L 135.639 209.173 C 133.868 209.173 132.422 210.618 132.422 212.39 C 132.422 214.162 133.868 215.607 135.639 215.607 Z"/>
      <path style="fill: rgb(141, 108, 159); fill-opacity: 0.25;" d="M 135.639 253.74 L 199.977 253.74 C 201.749 253.74 203.194 252.295 203.194 250.523 C 203.194 248.751 201.749 247.306 199.977 247.306 L 135.639 247.306 C 133.868 247.306 132.422 248.751 132.422 250.523 C 132.422 252.295 133.868 253.74 135.639 253.74 Z"/>
      <path style="fill: rgb(141, 108, 159); fill-opacity: 0.25;" d="M 135.639 266.872 L 193.543 266.872 C 195.315 266.872 196.76 265.427 196.76 263.655 C 196.76 261.884 195.315 260.438 193.543 260.438 L 135.639 260.438 C 133.868 260.438 132.422 261.884 132.422 263.655 C 132.422 265.427 133.868 266.872 135.639 266.872 Z"/>
      <path style="fill: rgb(141, 108, 159); fill-opacity: 0.25;" d="M 135.639 228.475 L 212.844 228.475 C 214.616 228.475 216.061 227.03 216.061 225.258 C 216.061 223.486 214.616 222.041 212.844 222.041 L 135.639 222.041 C 133.868 222.041 132.422 223.486 132.422 225.258 C 132.422 227.03 133.868 228.475 135.639 228.475 Z"/>
      <path style="fill: rgb(141, 108, 159); fill-opacity: 0.25;" d="M 135.639 241.342 L 212.844 241.342 C 214.616 241.342 216.061 239.897 216.061 238.125 C 216.061 236.353 214.616 234.908 212.844 234.908 L 135.639 234.908 C 133.868 234.908 132.422 236.353 132.422 238.125 C 132.422 239.897 133.868 241.342 135.639 241.342 Z"/>
      <path style="fill: rgb(141, 108, 159); fill-opacity: 0.25;" d="M 149.338 299.246 C 147.566 299.246 146.121 300.691 146.121 302.463 L 146.121 308.896 C 146.121 310.668 147.566 312.113 149.338 312.113 C 151.11 312.113 152.555 310.668 152.555 308.896 L 152.555 302.463 C 152.555 300.691 151.11 299.246 149.338 299.246 Z"/>
      <path style="fill: rgb(141, 108, 159); fill-opacity: 0.23;" d="M 132.422 299.246 C 130.651 299.246 129.206 300.691 129.206 302.463 L 129.206 308.896 C 129.206 310.668 130.651 312.113 132.422 312.113 C 134.194 312.113 135.639 310.668 135.639 308.896 L 135.639 302.463 C 135.639 300.691 134.194 299.246 132.422 299.246 Z"/>
      <path style="fill: rgb(141, 108, 159); fill-opacity: 0.25;" d="M 183.892 299.246 C 182.121 299.246 180.676 300.691 180.676 302.463 L 180.676 308.896 C 180.676 310.668 182.121 312.113 183.892 312.113 C 185.664 312.113 187.109 310.668 187.109 308.896 L 187.109 302.463 C 187.109 300.691 185.664 299.246 183.892 299.246 Z"/>
      <path style="fill: rgb(141, 108, 159); fill-opacity: 0.23;" d="M 199.977 299.246 C 198.205 299.246 196.76 300.691 196.76 302.463 L 196.76 308.896 C 196.76 310.668 198.205 312.113 199.977 312.113 C 201.749 312.113 203.194 310.668 203.194 308.896 L 203.194 302.463 C 203.194 300.691 201.749 299.246 199.977 299.246 Z"/>
      <path style="fill: rgb(141, 108, 159); fill-opacity: 0.23;" d="M 216.061 299.246 C 214.289 299.246 212.844 300.691 212.844 302.463 L 212.844 308.896 C 212.844 310.668 214.289 312.113 216.061 312.113 C 217.833 312.113 219.278 310.668 219.278 308.896 L 219.278 302.463 C 219.278 300.691 217.833 299.246 216.061 299.246 Z"/>
      <path style="fill: rgb(141, 108, 159); fill-opacity: 0.25;" d="M 166.146 299.246 C 164.374 299.246 162.929 300.691 162.929 302.463 L 162.929 308.896 C 162.929 310.668 164.374 312.113 166.146 312.113 C 167.917 312.113 169.362 310.668 169.362 308.896 L 169.362 302.463 C 169.362 300.691 167.917 299.246 166.146 299.246 Z"/>
    </g>
    <path d="M 234.384 217.161 L 215.979 233.153 C 213.237 231.975 209.952 232.332 207.621 234.046 L 194.053 226.96 C 194.73 224.086 193.222 221.15 190.293 219.668 C 187.367 218.186 183.68 218.499 181.133 220.436 C 178.587 222.372 177.743 225.505 179.037 228.218 L 163.768 240.168 C 160.563 238.606 156.535 239.23 154.143 241.659 L 141.602 237.339 C 141.602 237.339 141.602 237.062 141.602 237.062 C 141.602 233.278 138.07 230.208 133.715 230.208 C 129.36 230.208 125.827 233.278 125.827 237.062 C 125.837 237.695 125.962 238.329 126.165 238.937 L 113.791 246.638 C 112.598 247.37 112.321 248.798 113.165 249.824 C 114.006 250.85 115.649 251.091 116.83 250.359 L 129.195 242.685 C 132.503 244.719 137.053 244.246 139.714 241.587 L 152.12 245.924 C 152.12 245.924 152.12 246.2 152.12 246.2 C 152.12 248.976 154.039 251.475 156.988 252.537 C 159.936 253.598 163.334 253.01 165.583 251.046 C 167.843 249.083 168.51 246.138 167.288 243.577 L 182.561 231.628 C 185.367 233.002 188.845 232.707 191.29 230.895 L 204.857 237.972 C 204.262 240.533 205.393 243.166 207.774 244.764 C 210.146 246.361 213.371 246.647 216.063 245.495 C 218.762 244.344 220.479 241.962 220.479 239.347 C 220.468 238.329 220.202 237.321 219.688 236.402 L 238.092 220.409 C 238.986 219.499 238.923 218.151 237.959 217.304 C 236.983 216.464 235.432 216.412 234.384 217.188 Z M 133.715 239.739 C 132.02 239.739 130.634 238.534 130.634 237.062 C 130.634 235.59 132.02 234.385 133.715 234.385 C 135.41 234.385 136.796 235.59 136.796 237.062 C 136.796 238.534 135.41 239.739 133.715 239.739 Z M 160.007 248.877 C 158.311 248.877 156.926 247.673 156.926 246.2 C 156.926 244.729 158.311 243.523 160.007 243.523 C 161.702 243.523 163.089 244.729 163.089 246.2 C 163.089 247.673 161.702 248.877 160.007 248.877 Z M 186.299 228.316 C 184.604 228.316 183.217 227.111 183.217 225.639 C 183.217 224.167 184.604 222.961 186.299 222.961 C 187.993 222.961 189.38 224.167 189.38 225.639 C 189.38 227.111 187.993 228.316 186.299 228.316 Z M 212.59 242.024 C 211.298 242.015 210.126 241.337 209.645 240.293 C 209.16 239.249 209.449 238.052 210.383 237.267 C 211.317 236.481 212.694 236.267 213.885 236.732 C 215.065 237.187 215.817 238.222 215.775 239.347 C 215.775 240.873 214.346 242.113 212.59 242.113 Z" style="fill: rgb(23, 96, 242);"/>
    <path d="M 233.191 291.59 L 214.313 278.45 C 211.5 279.417 208.13 279.123 205.739 277.715 L 191.821 283.538 C 192.517 285.899 190.967 288.312 187.964 289.53 C 184.964 290.747 181.181 290.49 178.569 288.898 C 175.957 287.308 175.09 284.735 176.42 282.505 L 160.755 272.686 C 157.467 273.969 153.336 273.455 150.882 271.461 L 138.02 275.01 C 138.02 275.01 138.02 275.237 138.02 275.237 C 138.02 278.347 134.396 280.869 129.928 280.869 C 125.461 280.869 121.838 278.347 121.838 275.237 C 121.848 274.716 121.975 274.195 122.185 273.696 L 109.491 267.369 C 108.268 266.767 107.984 265.594 108.849 264.751 C 109.712 263.907 111.398 263.709 112.609 264.31 L 125.293 270.617 C 128.686 268.946 133.354 269.334 136.082 271.519 L 148.808 267.955 C 148.808 267.955 148.808 267.729 148.808 267.729 C 148.808 265.447 150.775 263.395 153.801 262.521 C 156.826 261.648 160.311 262.133 162.618 263.747 C 164.936 265.359 165.62 267.778 164.367 269.885 L 180.032 279.704 C 182.91 278.573 186.479 278.817 188.987 280.305 L 202.903 274.489 C 202.295 272.384 203.452 270.221 205.896 268.909 C 208.329 267.595 211.635 267.361 214.396 268.309 C 217.168 269.253 218.929 271.212 218.929 273.36 C 218.918 274.195 218.644 275.023 218.117 275.779 L 236.995 288.921 C 237.911 289.668 237.847 290.776 236.857 291.473 C 235.857 292.162 234.267 292.206 233.191 291.568 Z M 129.928 273.038 C 128.189 273.038 126.768 274.028 126.768 275.237 C 126.768 276.448 128.189 277.436 129.928 277.436 C 131.668 277.436 133.089 276.448 133.089 275.237 C 133.089 274.028 131.668 273.038 129.928 273.038 Z M 156.898 265.528 C 155.16 265.528 153.739 266.518 153.739 267.729 C 153.739 268.938 155.16 269.928 156.898 269.928 C 158.638 269.928 160.06 268.938 160.06 267.729 C 160.06 266.518 158.638 265.528 156.898 265.528 Z M 183.868 282.423 C 182.129 282.423 180.707 283.414 180.707 284.624 C 180.707 285.834 182.129 286.824 183.868 286.824 C 185.605 286.824 187.028 285.834 187.028 284.624 C 187.028 283.414 185.605 282.423 183.868 282.423 Z M 210.836 271.159 C 209.51 271.167 208.308 271.724 207.813 272.582 C 207.316 273.44 207.614 274.423 208.573 275.068 C 209.53 275.714 210.941 275.89 212.163 275.509 C 213.375 275.134 214.145 274.284 214.104 273.36 C 214.104 272.106 212.638 271.086 210.836 271.086 Z" style="fill: rgb(247, 42, 2);"/>
  </g>
</svg>