<?xml version="1.0" encoding="utf-8"?>
<svg viewBox="0 0 500 500" xmlns="http://www.w3.org/2000/svg">
  <g transform="matrix(1, 0, 0, 1, 0, 7)">
    <g transform="matrix(2.170925, 0, 0, 2.170925, -388.333405, -242.970963)">
      <path style=" fill:#C2CDE7;" d="M 356.906 193.581 C 363.595 160.48 343.083 127.971 310.327 119.764 C 277.572 111.556 244.15 130.551 234.437 162.899 C 208.778 167.848 191.116 191.557 193.708 217.574 C 196.312 243.579 218.318 263.326 244.458 263.091 L 355.042 263.091 C 374.234 263.61 390.217 248.466 390.735 229.274 C 391.241 210.07 376.098 194.1 356.906 193.581 Z"/>
      <path style=" fill:#D6DFF2;" d="M 246.951 151.211 C 248.543 152.791 250.74 153.618 252.974 153.494 C 255.22 153.371 257.306 152.297 258.713 150.545 C 267.711 139.795 281.015 133.587 295.048 133.587 C 309.068 133.587 322.373 139.795 331.383 150.545 C 332.79 152.297 334.863 153.371 337.109 153.494 C 339.343 153.618 341.54 152.791 343.132 151.211 C 346.045 148.261 346.206 143.584 343.515 140.437 C 331.506 126.083 313.758 117.789 295.048 117.789 C 276.325 117.789 258.577 126.083 246.581 140.437 C 243.878 143.584 244.051 148.261 246.951 151.211 Z"/>
      <path style=" fill:#ACB7D0;" d="M 209.703 247.294 L 383.478 247.294 L 364.521 263.091 L 231.82 263.091 Z"/>
      <path style=" fill:#8D6C9F;" d="M 222.341 240.974 C 220.601 240.974 219.182 242.394 219.182 244.134 L 219.182 250.453 C 219.182 252.193 220.601 253.613 222.341 253.613 C 224.082 253.613 225.501 252.193 225.501 250.453 L 225.501 244.134 C 225.501 242.394 224.082 240.974 222.341 240.974 Z"/>
      <path style=" fill:#8D6C9F;" d="M 238.139 240.974 C 236.399 240.974 234.98 242.394 234.98 244.134 L 234.98 250.453 C 234.98 252.193 236.399 253.613 238.139 253.613 C 239.879 253.613 241.299 252.193 241.299 250.453 L 241.299 244.134 C 241.299 242.394 239.879 240.974 238.139 240.974 Z"/>
      <path style=" fill:#8D6C9F;" d="M 253.937 240.974 C 252.197 240.974 250.777 242.394 250.777 244.134 L 250.777 250.453 C 250.777 252.193 252.197 253.613 253.937 253.613 C 255.677 253.613 257.096 252.193 257.096 250.453 L 257.096 244.134 C 257.096 242.394 255.677 240.974 253.937 240.974 Z"/>
      <path style=" fill:#8D6C9F;" d="M 269.735 240.974 C 267.994 240.974 266.575 242.394 266.575 244.134 L 266.575 250.453 C 266.575 252.193 267.994 253.613 269.735 253.613 C 271.475 253.613 272.894 252.193 272.894 250.453 L 272.894 244.134 C 272.894 242.394 271.475 240.974 269.735 240.974 Z"/>
      <path style=" fill:#8D6C9F;" d="M 313.968 240.974 C 312.228 240.974 310.809 242.394 310.809 244.134 L 310.809 250.453 C 310.809 252.193 312.228 253.613 313.968 253.613 C 315.708 253.613 317.128 252.193 317.128 250.453 L 317.128 244.134 C 317.128 242.394 315.708 240.974 313.968 240.974 Z"/>
      <path style=" fill:#8D6C9F;" d="M 329.766 240.974 C 328.026 240.974 326.606 242.394 326.606 244.134 L 326.606 250.453 C 326.606 252.193 328.026 253.613 329.766 253.613 C 331.506 253.613 332.926 252.193 332.926 250.453 L 332.926 244.134 C 332.926 242.394 331.506 240.974 329.766 240.974 Z"/>
      <path style=" fill:#8D6C9F;" d="M 345.564 240.974 C 343.824 240.974 342.404 242.394 342.404 244.134 L 342.404 250.453 C 342.404 252.193 343.824 253.613 345.564 253.613 C 347.304 253.613 348.723 252.193 348.723 250.453 L 348.723 244.134 C 348.723 242.394 347.304 240.974 345.564 240.974 Z"/>
      <path style=" fill:#8D6C9F;" d="M 361.361 240.974 C 359.621 240.974 358.202 242.394 358.202 244.134 L 358.202 250.453 C 358.202 252.193 359.621 253.613 361.361 253.613 C 363.102 253.613 364.521 252.193 364.521 250.453 L 364.521 244.134 C 364.521 242.394 363.102 240.974 361.361 240.974 Z"/>
      <path style=" fill:#8D6C9F;" d="M 377.159 240.974 C 375.419 240.974 374 242.394 374 244.134 L 374 250.453 C 374 252.193 375.419 253.613 377.159 253.613 C 378.899 253.613 380.319 252.193 380.319 250.453 L 380.319 244.134 C 380.319 242.394 378.899 240.974 377.159 240.974 Z"/>
      <path style=" fill:#8D6C9F;" d="M 368.693 193.075 C 368.557 192.964 368.409 192.878 368.248 192.791 C 366.088 192.014 363.855 191.446 361.584 191.088 L 360.633 190.891 C 361.522 184.609 361.522 178.228 360.633 171.933 C 356.56 142.374 333.259 119.171 303.675 115.222 C 274.091 111.285 245.52 127.564 233.844 155.037 C 233.276 156.42 232.795 157.814 232.289 159.233 C 232.289 159.554 232.042 159.863 231.919 160.221 C 204.902 166.404 187.031 192.113 190.647 219.586 C 194.263 247.059 218.182 267.275 245.878 266.251 L 353.932 266.251 C 374.58 266.387 391.71 250.354 392.957 229.756 C 393.451 213.625 383.737 198.925 368.693 193.075 Z M 377.159 250.453 C 375.999 251.576 374.777 252.638 373.494 253.613 C 367.804 257.735 360.967 259.956 353.932 259.932 L 245.878 259.932 C 236.251 259.944 226.822 257.167 218.738 251.934 C 216.306 250.206 212.863 247.294 212.863 247.294 C 203.52 239.135 197.843 227.571 197.065 215.192 C 195.991 193.643 209.518 174.056 230.055 167.416 C 229.129 171.872 228.66 176.401 228.66 180.943 C 228.66 182.683 230.08 184.103 231.82 184.103 C 233.56 184.103 234.98 182.683 234.98 180.943 C 234.98 175.179 235.806 169.44 237.448 163.911 C 237.794 162.739 238.201 161.603 238.608 160.468 C 238.83 159.9 239.028 159.332 239.25 158.764 C 248.334 135.919 270.426 120.924 295.011 120.912 C 297.578 120.912 300.145 121.072 302.688 121.381 C 329.494 124.972 350.661 145.929 354.499 172.699 C 355.265 178.586 355.178 184.559 354.215 190.422 C 352.278 190.446 350.352 190.607 348.439 190.928 C 346.699 191.224 345.514 192.878 345.811 194.618 C 346.119 196.371 347.773 197.543 349.513 197.247 C 351.945 196.79 354.425 196.617 356.906 196.741 C 357.758 196.741 358.585 196.741 359.399 196.988 L 360.411 197.148 C 376.048 199.839 387.267 213.686 386.638 229.533 C 386.28 237.469 382.886 244.961 377.159 250.453 Z"/>
      <path style=" fill:#8D6C9F;" d="M 327.273 146.188 C 327.804 145.534 328.05 144.695 327.964 143.868 C 327.865 143.028 327.446 142.263 326.792 141.733 C 324.298 139.721 321.633 137.944 318.806 136.425 C 317.288 135.747 315.499 136.351 314.721 137.82 C 313.944 139.289 314.425 141.103 315.832 141.992 C 318.313 143.312 320.658 144.867 322.842 146.632 C 324.187 147.718 326.162 147.521 327.273 146.188 Z"/>
      <path style=" fill:#8D6C9F;" d="M 305.687 131.526 C 293.888 129.033 281.571 130.798 270.932 136.487 C 269.401 137.363 268.858 139.314 269.735 140.844 C 270.611 142.387 272.561 142.917 274.091 142.053 C 283.397 137.067 294.159 135.525 304.49 137.684 C 306.23 138.055 307.945 136.944 308.316 135.191 C 308.674 133.451 307.563 131.736 305.823 131.365 Z"/>
    </g>
    <g>
      <g>
        <g transform="matrix(-2.170914, -0.007896, 0.007896, -2.170914, 875.730042, 1148.226318)">
          <path style=" fill:#FAEFDE;" d="M 298.083 344.014 L 298.083 423.003 L 310.721 410.365 L 323.359 423.003 L 288.604 457.758 L 253.849 423.003 L 266.488 410.365 L 279.126 423.003 L 279.126 344.014 Z"/>
          <path style=" fill:#8D6C9F;" d="M 289.642 462.168 L 254.887 427.413 C 253.665 426.179 253.665 424.192 254.887 422.958 L 267.525 410.32 C 268.76 409.098 270.747 409.098 271.981 410.32 L 279.213 417.552 L 279.213 353.896 L 285.532 353.896 L 285.532 425.167 C 285.532 426.45 284.755 427.598 283.57 428.08 C 282.385 428.561 281.027 428.289 280.127 427.376 L 269.735 416.984 L 261.552 425.167 L 291.851 455.467 L 322.151 425.167 L 313.968 416.984 L 303.576 427.413 C 302.675 428.326 301.305 428.598 300.121 428.104 C 298.936 427.611 298.158 426.45 298.171 425.167 L 298.171 353.896 L 304.49 353.896 L 304.49 417.552 L 311.759 410.32 C 312.993 409.098 314.98 409.098 316.215 410.32 L 328.853 422.958 C 330.075 424.192 330.075 426.179 328.853 427.413 L 294.098 462.168 C 292.863 463.39 290.876 463.39 289.642 462.168 Z"/>
        </g>
        <g transform="matrix(2.170925, 0, 0, 2.170925, -373.136932, -577.865845)">
          <path style=" fill:#FAEFDE;" d="M 293.083 444.003 L 305.721 431.365 L 318.359 444.003 L 283.604 478.758 L 248.849 444.003 L 261.488 431.365 L 274.126 444.003 L 274.126 378.636 L 293.083 378.636 Z"/>
          <path style=" fill:#8D6C9F;" d="M 282.642 484.168 L 247.887 449.413 C 246.665 448.179 246.665 446.192 247.887 444.958 L 260.525 432.32 C 261.76 431.098 263.747 431.098 264.981 432.32 L 272.213 439.552 L 272.213 375.896 L 278.532 375.896 L 278.532 447.167 C 278.532 448.45 277.755 449.598 276.57 450.08 C 275.385 450.561 274.027 450.289 273.127 449.376 L 262.735 438.984 L 254.552 447.167 L 284.851 477.467 L 315.151 447.167 L 306.968 438.984 L 296.576 449.413 C 295.675 450.326 294.305 450.598 293.121 450.104 C 291.936 449.611 291.158 448.45 291.171 447.167 L 291.171 375.896 L 297.49 375.896 L 297.49 439.552 L 304.759 432.32 C 305.993 431.098 307.98 431.098 309.215 432.32 L 321.853 444.958 C 323.075 446.192 323.075 448.179 321.853 449.413 L 287.098 484.168 C 285.863 485.39 283.876 485.39 282.642 484.168 Z"/>
        </g>
      </g>
    </g>
  </g>
</svg>