<?xml version="1.0" encoding="utf-8"?>
<svg viewBox="0 0 64 64" version="1.1" width="64" height="64" xmlns="http://www.w3.org/2000/svg">
  <path style=" fill:#FFEB9B;" d="M 48 26 C 48 27.656 46.656 29 45 29 C 43.344 29 42 27.656 42 26 C 42 24.344 43.344 23 45 23 C 46.656 23 48 24.344 48 26 Z"/>
  <path style=" fill:#FFEB9B;" d="M 58 36 C 58 37.656 56.656 39 55 39 C 53.344 39 52 37.656 52 36 C 52 34.344 53.344 33 55 33 C 56.656 33 58 34.344 58 36 Z"/>
  <path style=" fill:#FFEB9B;" d="M 38 34 C 38 35.656 36.656 37 35 37 C 33.344 37 32 35.656 32 34 C 32 32.344 33.344 31 35 31 C 36.656 31 38 32.344 38 34 Z"/>
  <path style=" fill:#BBDEF9;" d="M 27 25 C 27 26.105 26.105 27 25 27 L 9 27 C 8.719 27 8.438 26.945 8.18 26.828 C 7.484 26.516 7.023 25.832 7 25.07 L 7 25 C 6.996 22.25 8.125 19.621 10.117 17.73 C 12.109 15.84 14.797 14.852 17.539 15 L 18.039 15 C 18.281 15 18.52 15.059 18.75 15.109 C 19.965 15.316 21.125 15.758 22.172 16.41 C 23.797 17.383 25.109 18.801 25.949 20.5 C 26.383 21.336 26.684 22.234 26.84 23.16 C 26.949 23.766 27 24.383 27 25 Z"/>
  <path style=" fill:#D2EDFF;" d="M 25.949 20.551 L 20.859 27 L 13.859 27 L 22.172 16.461 C 23.797 17.434 25.109 18.852 25.949 20.551 Z"/>
  <path style=" fill:#D2EDFF;" d="M 20.75 15.16 L 11.371 27 L 11 27 C 10.719 27 10.438 26.945 10.18 26.828 L 19.539 15 L 20.039 15 C 20.281 15.078 20.52 15.109 20.75 15.16 Z"/>
  <path style=" fill:#8D6C9F;" d="M 61 6 L 3 6 C 1.344 6 0 7.344 0 9 L 0 55 C 0 56.656 1.344 58 3 58 L 61 58 C 62.656 58 64 56.656 64 55 L 64 9 C 64 7.344 62.656 6 61 6 Z M 62 55 C 62 55.551 61.551 56 61 56 L 3 56 C 2.449 56 2 55.551 2 55 L 2 9 C 2 8.449 2.449 8 3 8 L 61 8 C 61.551 8 62 8.449 62 9 Z"/>
  <path style=" fill:#8D6C9F;" d="M 55 30 C 55.551 30 56 29.551 56 29 L 56 15 C 56 14.449 55.551 14 55 14 C 54.449 14 54 14.449 54 15 L 54 29 C 54 29.551 54.449 30 55 30 Z"/>
  <path style=" fill:#8D6C9F;" d="M 45 20 C 45.551 20 46 19.551 46 19 L 46 15 C 46 14.449 45.551 14 45 14 C 44.449 14 44 14.449 44 15 L 44 19 C 44 19.551 44.449 20 45 20 Z"/>
  <path style=" fill:#8D6C9F;" d="M 35 28 C 35.551 28 36 27.551 36 27 L 36 15 C 36 14.449 35.551 14 35 14 C 34.449 14 34 14.449 34 15 L 34 27 C 34 27.551 34.449 28 35 28 Z"/>
  <path style=" fill:#8D6C9F;" d="M 12 48 C 11.449 48 11 48.449 11 49 L 11 51 C 11 51.551 11.449 52 12 52 C 12.551 52 13 51.551 13 51 L 13 49 C 13 48.449 12.551 48 12 48 Z"/>
  <path style=" fill:#8D6C9F;" d="M 7 48 C 6.449 48 6 48.449 6 49 L 6 51 C 6 51.551 6.449 52 7 52 C 7.551 52 8 51.551 8 51 L 8 49 C 8 48.449 7.551 48 7 48 Z"/>
  <path style=" fill:#8D6C9F;" d="M 47 48 C 46.449 48 46 48.449 46 49 L 46 51 C 46 51.551 46.449 52 47 52 C 47.551 52 48 51.551 48 51 L 48 49 C 48 48.449 47.551 48 47 48 Z"/>
  <path style=" fill:#8D6C9F;" d="M 17 48 C 16.449 48 16 48.449 16 49 L 16 51 C 16 51.551 16.449 52 17 52 C 17.551 52 18 51.551 18 51 L 18 49 C 18 48.449 17.551 48 17 48 Z"/>
  <path style=" fill:#8D6C9F;" d="M 22 48 C 21.449 48 21 48.449 21 49 L 21 51 C 21 51.551 21.449 52 22 52 C 22.551 52 23 51.551 23 51 L 23 49 C 23 48.449 22.551 48 22 48 Z"/>
  <path style=" fill:#8D6C9F;" d="M 27 48 C 26.449 48 26 48.449 26 49 L 26 51 C 26 51.551 26.449 52 27 52 C 27.551 52 28 51.551 28 51 L 28 49 C 28 48.449 27.551 48 27 48 Z"/>
  <path style=" fill:#8D6C9F;" d="M 32 48 C 31.449 48 31 48.449 31 49 L 31 51 C 31 51.551 31.449 52 32 52 C 32.551 52 33 51.551 33 51 L 33 49 C 33 48.449 32.551 48 32 48 Z"/>
  <path style=" fill:#8D6C9F;" d="M 37 48 C 36.449 48 36 48.449 36 49 L 36 51 C 36 51.551 36.449 52 37 52 C 37.551 52 38 51.551 38 51 L 38 49 C 38 48.449 37.551 48 37 48 Z"/>
  <path style=" fill:#8D6C9F;" d="M 42 48 C 41.449 48 41 48.449 41 49 L 41 51 C 41 51.551 41.449 52 42 52 C 42.551 52 43 51.551 43 51 L 43 49 C 43 48.449 42.551 48 42 48 Z"/>
  <path style=" fill:#8D6C9F;" d="M 52 48 C 51.449 48 51 48.449 51 49 L 51 51 C 51 51.551 51.449 52 52 52 C 52.551 52 53 51.551 53 51 L 53 49 C 53 48.449 52.551 48 52 48 Z"/>
  <path style=" fill:#8D6C9F;" d="M 57 48 C 56.449 48 56 48.449 56 49 L 56 51 C 56 51.551 56.449 52 57 52 C 57.551 52 58 51.551 58 51 L 58 49 C 58 48.449 57.551 48 57 48 Z"/>
  <path style=" fill:#8D6C9F;" d="M 45 22 C 42.988 22.004 41.297 23.504 41.043 25.496 C 40.789 27.488 42.055 29.363 44 29.871 L 44 43 C 44 43.551 44.449 44 45 44 C 45.551 44 46 43.551 46 43 L 46 29.871 C 47.945 29.363 49.211 27.488 48.957 25.496 C 48.703 23.504 47.012 22.004 45 22 Z M 46 27.73 C 45.215 28.184 44.227 28.051 43.586 27.41 C 42.945 26.77 42.816 25.781 43.27 24.996 C 43.723 24.215 44.645 23.832 45.52 24.066 C 46.395 24.301 47 25.094 47 26 C 47 26.715 46.617 27.375 46 27.73 Z"/>
  <path style=" fill:#8D6C9F;" d="M 55 32 C 52.988 32.004 51.297 33.504 51.043 35.496 C 50.789 37.488 52.055 39.363 54 39.871 L 54 43 C 54 43.551 54.449 44 55 44 C 55.551 44 56 43.551 56 43 L 56 39.871 C 57.945 39.363 59.211 37.488 58.957 35.496 C 58.703 33.504 57.012 32.004 55 32 Z M 56 37.73 C 55.215 38.184 54.227 38.051 53.586 37.41 C 52.945 36.77 52.816 35.781 53.27 34.996 C 53.723 34.215 54.645 33.832 55.52 34.066 C 56.395 34.301 57 35.094 57 36 C 57 36.715 56.617 37.375 56 37.73 Z"/>
  <path style=" fill:#8D6C9F;" d="M 35 30 C 32.988 30.004 31.297 31.504 31.043 33.496 C 30.789 35.488 32.055 37.363 34 37.871 L 34 43 C 34 43.551 34.449 44 35 44 C 35.551 44 36 43.551 36 43 L 36 37.871 C 37.945 37.363 39.211 35.488 38.957 33.496 C 38.703 31.504 37.012 30.004 35 30 Z M 36 35.73 C 35.215 36.184 34.227 36.051 33.586 35.41 C 32.945 34.77 32.816 33.781 33.27 32.996 C 33.723 32.215 34.645 31.832 35.52 32.066 C 36.395 32.301 37 33.094 37 34 C 37 34.715 36.617 35.375 36 35.73 Z"/>
  <path style=" fill:#8D6C9F;" d="M 18.141 14.059 C 15.031 13.723 11.93 14.734 9.621 16.84 C 7.301 18.949 5.984 21.945 6 25.078 C 6.043 26.707 7.375 28 9 28 L 25 28 C 26.656 28 28 26.656 28 25 C 28.004 24.328 27.945 23.66 27.828 23 C 26.941 18.199 22.996 14.559 18.141 14.059 Z M 26 25 C 26 25.551 25.551 26 25 26 L 18.172 26 L 20.859 21.512 C 21.102 21.203 21.145 20.785 20.965 20.438 C 20.789 20.09 20.426 19.875 20.035 19.891 C 19.645 19.906 19.297 20.148 19.148 20.512 L 16.148 25.512 C 16.059 25.656 16.008 25.828 16 26 L 9 26 C 8.449 26 8 25.551 8 25 C 8.008 22.449 9.098 20.02 11 18.32 C 12.641 16.824 14.781 16 17 16 C 17.332 15.98 17.668 15.98 18 16 C 21.965 16.445 25.176 19.422 25.922 23.34 C 25.996 23.891 26.023 24.445 26 25 Z"/>
  <path style=" fill:#8D6C9F;" d="M 9 34 L 17 34 C 17.551 34 18 33.551 18 33 C 18 32.449 17.551 32 17 32 L 9 32 C 8.449 32 8 32.449 8 33 C 8 33.551 8.449 34 9 34 Z"/>
  <path style=" fill:#8D6C9F;" d="M 23 40 L 9 40 C 8.449 40 8 40.449 8 41 C 8 41.551 8.449 42 9 42 L 23 42 C 23.551 42 24 41.551 24 41 C 24 40.449 23.551 40 23 40 Z"/>
  <path style=" fill:#8D6C9F;" d="M 25 32 L 21 32 C 20.449 32 20 32.449 20 33 C 20 33.551 20.449 34 21 34 L 25 34 C 25.551 34 26 33.551 26 33 C 26 32.449 25.551 32 25 32 Z"/>
  <path style=" fill:#8D6C9F;" d="M 9 38 L 21 38 C 21.551 38 22 37.551 22 37 C 22 36.449 21.551 36 21 36 L 9 36 C 8.449 36 8 36.449 8 37 C 8 37.551 8.449 38 9 38 Z"/>
</svg>