<?xml version="1.0" encoding="utf-8"?>
<svg viewBox="0 0 500 500" xmlns="http://www.w3.org/2000/svg">
  <g transform="matrix(2.117391, 0, 0, 2.117391, -93.004242, -472.725372)">
    <g transform="matrix(1.245858, 0, 0, 1.245858, 17.964859, -122.376053)">
      <path style=" fill:#FAEFDE;" d="M 81.72 463.358 L 178.929 463.358 C 184.527 463.358 189.068 458.829 189.068 453.218 L 189.068 290.987 C 189.068 285.389 184.527 280.848 178.929 280.848 L 50.496 280.848 C 44.898 280.848 40.357 285.389 40.357 290.987 L 40.357 421.995 C 40.357 424.688 41.426 427.262 43.327 429.163 L 74.564 460.387 C 76.465 462.288 79.04 463.358 81.72 463.358 Z" transform="matrix(-1, 0, 0, -1, 229.425003, 744.206)"/>
      <path style=" fill:#FFF7F0;" d="M 40.859 284.624 L 40.357 316.6 L 187.339 463.556 L 189.57 386.018 L 88.176 284.624 Z" transform="matrix(-1, 0, 0, -1, 229.926991, 748.180023)"/>
      <path style=" fill:#FFF7F0;" d="M 54.523 300.625 L 170.136 416.239 L 189.57 415.394 L 55.025 280.848 Z" transform="matrix(-1, 0, 0, -1, 244.093026, 697.087059)"/>
      <path style=" fill:#FFF7F0;" d="M 84.294 291.185 L 179.43 386.322 L 189.57 386.322 L 84.294 281.046 Z" transform="matrix(-1, 0, 0, -1, 273.864012, 667.367959)"/>
      <path style=" fill:#FFFFFF;" d="M 72.464 331.744 L 76.649 324.1 L 84.294 319.915 L 76.649 315.73 L 72.464 308.085 L 68.279 315.73 L 60.635 319.915 L 68.279 324.1 Z" transform="matrix(-1, 0, 0, -1, 144.928998, 639.82895)"/>
      <path style=" fill:#FFFFFF;" d="M 123.44 317.683 L 126.305 312.415 L 131.612 309.497 L 126.305 306.632 L 123.44 301.325 L 120.522 306.632 L 115.254 309.497 L 120.522 312.415 Z" transform="matrix(-1, 0, 0, -1, 246.865997, 619.008035)"/>
      <path style=" fill:#FFFFFF;" d="M 169.964 417.256 L 171.931 413.679 L 175.549 411.685 L 171.931 409.718 L 169.964 406.1 L 168.01 409.718 L 164.393 411.685 L 168.01 413.679 Z" transform="matrix(-1, 0, 0, -1, 339.942031, 823.356045)"/>
      <path style=" fill:#BBDEF9;" d="M 189.068 321.604 L 189.068 281.046 L 148.511 281.046 Z" transform="matrix(-1, 0, 0, -1, 337.578967, 602.650019)"/>
      <path style=" fill:#8D6C9F;" d="M 182.309 466.936 L 83.146 466.936 C 78.657 466.95 74.353 465.167 71.184 461.999 L 41.914 432.729 C 38.746 429.56 36.964 425.256 36.977 420.768 L 36.977 287.806 C 36.977 282.208 41.518 277.667 47.116 277.667 L 182.309 277.667 C 187.907 277.667 192.448 282.208 192.448 287.806 L 192.448 456.797 C 192.448 462.395 187.907 466.936 182.309 466.936 Z M 75.977 457.206 C 76.452 457.682 76.98 458.117 77.535 458.487 L 77.535 429.759 C 77.535 427.897 76.016 426.379 74.155 426.379 L 45.426 426.379 C 45.796 426.933 46.232 427.461 46.707 427.937 Z M 185.689 287.806 C 185.689 285.945 184.17 284.426 182.309 284.426 L 47.116 284.426 C 45.255 284.426 43.736 285.945 43.736 287.806 L 43.736 419.619 L 74.155 419.619 C 79.753 419.619 84.294 424.161 84.294 429.759 L 84.294 460.177 L 182.309 460.177 C 184.17 460.177 185.689 458.659 185.689 456.797 Z" transform="matrix(-1, 0, 0, -1, 229.424937, 744.603059)"/>
      <path style="fill: rgb(141, 108, 159); fill-opacity: 0.25;" d="M 175.549 446.657 C 173.687 446.657 172.169 445.139 172.169 443.277 L 172.169 436.517 C 172.169 434.656 173.687 433.138 175.549 433.138 C 177.41 433.138 178.929 434.656 178.929 436.517 L 178.929 443.277 C 178.929 445.139 177.41 446.657 175.549 446.657 Z" transform="matrix(-1, 0, 0, -1, 351.098022, 879.795067)"/>
      <path style="fill: rgb(141, 108, 159); fill-opacity: 0.25;" d="M 158.65 446.657 C 156.788 446.657 155.27 445.139 155.27 443.277 L 155.27 436.517 C 155.27 434.656 156.788 433.138 158.65 433.138 C 160.511 433.138 162.03 434.656 162.03 436.517 L 162.03 443.277 C 162.03 445.139 160.511 446.657 158.65 446.657 Z" transform="matrix(-1, 0, 0, -1, 317.300004, 879.795067)"/>
      <path style="fill: rgb(141, 108, 159); fill-opacity: 0.25;" d="M 141.751 446.657 C 139.889 446.657 138.371 445.139 138.371 443.277 L 138.371 436.517 C 138.371 434.656 139.889 433.138 141.751 433.138 C 143.613 433.138 145.131 434.656 145.131 436.517 L 145.131 443.277 C 145.131 445.139 143.613 446.657 141.751 446.657 Z" transform="matrix(-1, 0, 0, -1, 283.502018, 879.795067)"/>
      <path style="fill: rgb(141, 108, 159); fill-opacity: 0.25;" d="M 124.852 446.657 C 122.991 446.657 121.472 445.139 121.472 443.277 L 121.472 436.517 C 121.472 434.656 122.991 433.138 124.852 433.138 C 126.714 433.138 128.232 434.656 128.232 436.517 L 128.232 443.277 C 128.232 445.139 126.714 446.657 124.852 446.657 Z" transform="matrix(-1, 0, 0, -1, 249.703999, 879.795067)"/>
      <path style="fill: rgb(141, 108, 159); fill-opacity: 0.25;" d="M 107.953 446.657 C 106.092 446.657 104.573 445.139 104.573 443.277 L 104.573 436.517 C 104.573 434.656 106.092 433.138 107.953 433.138 C 109.815 433.138 111.333 434.656 111.333 436.517 L 111.333 443.277 C 111.333 445.139 109.815 446.657 107.953 446.657 Z" transform="matrix(-1, 0, 0, -1, 215.906014, 879.795067)"/>
      <path style="fill: rgb(141, 108, 159); fill-opacity: 0.25;" d="M 91.054 446.657 C 89.193 446.657 87.674 445.139 87.674 443.277 L 87.674 436.517 C 87.674 434.656 89.193 433.138 91.054 433.138 C 92.916 433.138 94.434 434.656 94.434 436.517 L 94.434 443.277 C 94.434 445.139 92.916 446.657 91.054 446.657 Z" transform="matrix(-1, 0, 0, -1, 182.107995, 879.795067)"/>
      <path style="fill: rgb(141, 108, 159); fill-opacity: 0.25;" d="M 74.154 446.657 C 72.293 446.657 70.775 445.139 70.775 443.277 L 70.775 436.517 C 70.775 434.656 72.293 433.138 74.154 433.138 C 76.016 433.138 77.534 434.656 77.534 436.517 L 77.534 443.277 C 77.534 445.139 76.016 446.657 74.154 446.657 Z" transform="matrix(-1, 0, 0, -1, 148.308985, 879.795067)"/>
      <path style="fill: rgb(141, 108, 159); fill-opacity: 0.25;" d="M 57.255 446.657 C 55.394 446.657 53.876 445.139 53.876 443.277 L 53.876 436.517 C 53.876 434.656 55.394 433.138 57.255 433.138 C 59.117 433.138 60.635 434.656 60.635 436.517 L 60.635 443.277 C 60.635 445.139 59.117 446.657 57.255 446.657 Z" transform="matrix(-1, 0, 0, -1, 114.511, 879.795067)"/>
    </g>
    <path d="M 229.234 377.047 L 163.938 428.276 C 162.921 429.061 161.412 429.061 160.396 428.276 L 95.099 377.047 C 94.271 376.41 93.977 375.385 94.344 374.47 C 94.721 373.556 95.686 372.936 96.786 372.909 L 121.926 372.909 L 121.926 297.228 C 121.926 294.613 124.326 292.497 127.291 292.497 L 197.042 292.497 C 200.008 292.497 202.407 294.613 202.407 297.228 L 202.407 372.909 L 227.548 372.909 C 228.648 372.936 229.611 373.556 229.989 374.47 C 230.355 375.385 230.062 376.41 229.234 377.047 Z" style="fill: rgb(255, 84, 84);"/>
    <path d="M 224.403 375.275 C 219.877 375.275 215.507 376.734 212.122 379.386 L 162.009 418.741 C 160.469 419.924 159.641 421.661 159.757 423.462 C 159.872 425.255 160.92 426.899 162.596 427.925 C 163.215 428.276 163.696 428.441 163.938 428.248 L 230.419 376.031 C 232.263 374.591 226.877 375.275 224.403 375.275 Z" style="fill: rgb(255, 142, 142);"/>
    <path style="fill: rgb(237, 120, 153);" d="M 202.407 297.228 L 202.407 316.148 L 121.926 316.148 L 121.926 297.228 C 121.926 294.613 124.326 292.497 127.291 292.497 L 197.042 292.497 C 200.008 292.497 202.407 294.613 202.407 297.228 Z"/>
    <path style="fill: rgb(141, 108, 159);" d="M 231.557 373.592 C 230.771 371.754 228.769 370.544 226.548 370.544 L 204.09 370.544 L 204.09 297.228 C 204.09 293.31 200.485 290.132 196.042 290.132 L 126.291 290.132 C 121.848 290.132 118.243 293.31 118.243 297.228 L 118.243 370.544 L 95.786 370.544 C 93.564 370.544 91.573 371.763 90.787 373.592 C 89.991 375.422 90.567 377.491 92.223 378.794 L 157.603 430.05 C 159.636 431.648 162.696 431.648 164.729 430.05 L 230.11 378.821 C 231.777 377.519 232.363 375.431 231.557 373.592 Z M 123.608 297.228 C 123.608 295.924 124.813 294.862 126.291 294.862 L 196.042 294.862 C 197.519 294.862 198.724 295.924 198.724 297.228 L 198.724 313.783 L 123.608 313.783 Z M 161.167 426.502 L 95.786 375.275 L 120.926 375.275 C 122.403 375.275 123.608 374.212 123.608 372.909 L 123.608 318.512 L 198.724 318.512 L 198.724 372.909 C 198.724 374.212 199.93 375.275 201.407 375.275 L 226.548 375.275 Z"/>
    <path style="fill: rgb(141, 108, 159);" d="M 188.994 299.592 C 187.516 299.592 186.311 300.655 186.311 301.957 L 186.311 306.687 C 186.311 307.99 187.516 309.053 188.994 309.053 C 190.471 309.053 191.676 307.99 191.676 306.687 L 191.676 301.957 C 191.676 300.655 190.471 299.592 188.994 299.592 Z"/>
    <path style="fill: rgb(141, 108, 159);" d="M 175.58 299.592 C 174.103 299.592 172.897 300.655 172.897 301.957 L 172.897 306.687 C 172.897 307.99 174.103 309.053 175.58 309.053 C 177.058 309.053 178.263 307.99 178.263 306.687 L 178.263 301.957 C 178.263 300.655 177.058 299.592 175.58 299.592 Z"/>
    <path style="fill: rgb(141, 108, 159);" d="M 162.167 299.592 C 160.688 299.592 159.483 300.655 159.483 301.957 L 159.483 306.687 C 159.483 307.99 160.688 309.053 162.167 309.053 C 163.644 309.053 164.849 307.99 164.849 306.687 L 164.849 301.957 C 164.849 300.655 163.644 299.592 162.167 299.592 Z"/>
    <path style="fill: rgb(141, 108, 159);" d="M 148.753 299.592 C 147.275 299.592 146.07 300.655 146.07 301.957 L 146.07 306.687 C 146.07 307.99 147.275 309.053 148.753 309.053 C 150.23 309.053 151.435 307.99 151.435 306.687 L 151.435 301.957 C 151.435 300.655 150.23 299.592 148.753 299.592 Z"/>
    <path style="fill: rgb(141, 108, 159);" d="M 135.34 299.592 C 133.861 299.592 132.656 300.655 132.656 301.957 L 132.656 306.687 C 132.656 307.99 133.861 309.053 135.34 309.053 C 136.817 309.053 138.022 307.99 138.022 306.687 L 138.022 301.957 C 138.022 300.655 136.817 299.592 135.34 299.592 Z"/>
    <path d="M 155.801 339.798 L 166.532 339.798 C 170.975 339.798 174.58 342.976 174.58 346.893 C 174.58 348.196 175.785 349.259 177.263 349.259 C 178.741 349.259 179.946 348.196 179.946 346.893 C 179.946 340.362 173.941 335.068 166.532 335.068 L 163.849 335.068 L 163.849 327.973 C 163.849 326.671 162.644 325.608 161.167 325.608 C 159.688 325.608 158.483 326.671 158.483 327.973 L 158.483 335.068 L 155.801 335.068 C 148.392 335.068 142.387 340.362 142.387 346.893 L 142.387 351.624 C 142.387 358.155 148.392 363.449 155.801 363.449 L 166.532 363.449 C 170.975 363.449 174.58 366.627 174.58 370.544 L 174.58 375.275 C 174.58 379.191 170.975 382.369 166.532 382.369 L 163.849 382.369 L 163.849 368.179 C 163.849 366.877 162.644 365.814 161.167 365.814 C 159.688 365.814 158.483 366.877 158.483 368.179 L 158.483 382.369 L 155.801 382.369 C 151.358 382.369 147.753 379.191 147.753 375.275 C 147.753 373.971 146.548 372.909 145.07 372.909 C 143.593 372.909 142.387 373.971 142.387 375.275 C 142.387 381.806 148.392 387.099 155.801 387.099 L 158.483 387.099 L 158.483 394.195 C 158.483 395.497 159.688 396.559 161.167 396.559 C 162.644 396.559 163.849 395.497 163.849 394.195 L 163.849 387.099 L 166.532 387.099 C 173.941 387.099 179.946 381.806 179.946 375.275 L 179.946 370.544 C 179.946 364.013 173.941 358.718 166.532 358.718 L 163.849 358.718 L 163.849 344.528 C 163.849 343.226 162.644 342.163 161.167 342.163 C 159.688 342.163 158.483 343.226 158.483 344.528 L 158.483 358.718 L 155.801 358.718 C 151.358 358.718 147.753 355.541 147.753 351.624 L 147.753 346.893 C 147.753 342.976 151.358 339.798 155.801 339.798 Z" style="fill: rgb(254, 254, 254);"/>
  </g>
</svg>