<?xml version="1.0" encoding="utf-8"?>
<svg viewBox="0 0 500 500" xmlns="http://www.w3.org/2000/svg">
  <path style="fill: rgb(250, 239, 222);" d="M 335.006 9.213 L 79.1 9.213 C 64.325 9.213 52.403 21.136 52.403 35.91 L 52.403 463.048 C 52.403 477.786 64.325 489.742 79.1 489.742 L 417.249 489.742 C 431.988 489.742 443.944 477.786 443.944 463.048 L 443.944 118.118 C 443.98 111.097 441.269 104.284 436.367 99.244 L 353.88 17.034 C 348.876 12.029 342.096 9.213 335.006 9.213 Z"/>
  <path style="fill: rgb(255, 247, 240);" d="M 443.944 224.624 L 443.944 178.115 L 441.894 107.62 C 440.574 104.284 438.591 101.26 436.09 98.721 L 397.645 60.276 L 52.403 406.074 L 53.725 469.789 C 56.818 481.468 67.385 489.604 79.446 489.637 L 178.826 489.637 Z"/>
  <path style="fill: rgb(255, 247, 240);" d="M 353.88 17.034 C 353.047 16.234 352.143 15.507 351.205 14.809 L 52.403 313.612 L 53.725 365.681 L 378.179 41.227 Z"/>
  <path style="fill: rgb(255, 247, 240);" d="M 52.403 260.22 L 302.887 9.736 L 329.584 9.736 L 52.403 286.915 Z"/>
  <path style="fill: rgb(255, 255, 255);" d="M 101.346 107.62 L 90.292 127.747 L 70.201 138.765 L 90.292 149.786 L 101.346 169.911 L 112.364 149.786 L 132.491 138.765 L 112.364 127.747 Z"/>
  <path style="fill: rgb(255, 255, 255);" d="M 262.218 36.431 L 254.641 50.301 L 240.771 57.982 L 254.641 65.526 L 262.218 79.498 L 269.863 65.526 L 283.769 57.982 L 269.863 50.301 Z"/>
  <path style="fill: rgb(255, 255, 255);" d="M 393.648 338.987 L 388.503 348.406 L 379.047 353.656 L 388.503 358.835 L 393.648 368.359 L 398.895 358.835 L 408.35 353.656 L 398.895 348.406 Z"/>
  <path style="fill: rgb(187, 222, 249);" d="M 337.161 9.736 L 337.161 116.519 L 443.944 116.519 Z"/>
  <path style="fill: rgb(141, 108, 159);" d="M 441.164 90.901 L 364.101 13.836 C 355.758 5.496 344.425 0.801 332.608 0.837 L 71.52 0.837 C 56.782 0.837 44.826 12.793 44.826 27.531 L 44.826 472.467 C 44.826 487.205 56.782 499.164 71.52 499.164 L 427.468 499.164 C 442.207 499.164 454.165 487.205 454.165 472.467 L 454.165 122.395 C 454.198 110.574 449.507 99.244 441.164 90.901 Z M 428.616 103.449 C 429.902 104.702 431.014 106.057 432.021 107.515 L 356.278 107.515 C 351.377 107.515 347.379 103.554 347.379 98.619 L 347.379 23.083 C 348.84 24.057 350.231 25.202 351.482 26.455 Z M 427.468 481.366 L 71.52 481.366 C 66.621 481.366 62.621 477.368 62.621 472.467 L 62.621 27.531 C 62.621 22.632 66.621 18.632 71.52 18.632 L 329.584 18.632 L 329.584 98.721 C 329.584 113.46 341.54 125.418 356.278 125.418 L 436.367 125.418 L 436.367 472.467 C 436.367 477.368 432.37 481.366 427.468 481.366 Z"/>
  <g transform="matrix(6.737042, 6.724173, -6.724173, 6.737042, 1174.990723, -3598.722412)" style="">
    <g>
      <path d="M 233.088 361.216 L 222.949 361.216 L 222.949 371.355 C 222.949 373.217 221.431 374.735 219.569 374.735 C 217.708 374.735 216.189 373.217 216.189 371.355 L 216.189 361.216 L 206.05 361.216 C 204.188 361.216 202.67 359.697 202.67 357.836 C 202.67 355.974 204.188 354.456 206.05 354.456 L 216.189 354.456 L 216.189 344.317 C 216.189 342.455 217.708 340.937 219.569 340.937 C 221.431 340.937 222.949 342.455 222.949 344.317 L 222.949 354.456 L 233.088 354.456 C 234.95 354.456 236.468 355.974 236.468 357.836 C 236.468 359.697 234.95 361.216 233.088 361.216 Z" transform="matrix(-1, 0, 0, -1, 439.138006, 715.672014)" style="fill: rgb(242, 15, 15);"/>
    </g>
  </g>
</svg>