<?xml version="1.0" encoding="utf-8"?>
<svg viewBox="0 0 500 500" xmlns="http://www.w3.org/2000/svg">
  <path style="fill: rgb(255, 255, 255);" d="M 101.346 107.62 L 90.292 127.747 L 70.201 138.765 L 90.292 149.786 L 101.346 169.911 L 112.364 149.786 L 132.491 138.765 L 112.364 127.747 Z"/>
  <path style="fill: rgb(255, 255, 255);" d="M 262.218 36.431 L 254.641 50.301 L 240.771 57.982 L 254.641 65.526 L 262.218 79.498 L 269.863 65.526 L 283.769 57.982 L 269.863 50.301 Z"/>
  <path style="fill: rgb(255, 255, 255);" d="M 393.648 338.987 L 388.503 348.406 L 379.047 353.656 L 388.503 358.835 L 393.648 368.359 L 398.895 358.835 L 408.35 353.656 L 398.895 348.406 Z"/>
  <g transform="matrix(6.704504, 6.756617, -6.756617, 6.704504, 1188.720947, -3591.250488)" style="">
    <g>
      <path d="M 233.088 361.216 L 222.949 361.216 L 222.949 371.355 C 222.949 373.217 221.431 374.735 219.569 374.735 C 217.708 374.735 216.189 373.217 216.189 371.355 L 216.189 361.216 L 206.05 361.216 C 204.188 361.216 202.67 359.697 202.67 357.836 C 202.67 355.974 204.188 354.456 206.05 354.456 L 216.189 354.456 L 216.189 344.317 C 216.189 342.455 217.708 340.937 219.569 340.937 C 221.431 340.937 222.949 342.455 222.949 344.317 L 222.949 354.456 L 233.088 354.456 C 234.95 354.456 236.468 355.974 236.468 357.836 C 236.468 359.697 234.95 361.216 233.088 361.216 Z" transform="matrix(-1, 0, 0, -1, 439.138006, 715.672014)" style="fill: rgb(242, 15, 15);"/>
    </g>
  </g>
</svg>