<?xml version="1.0" encoding="utf-8"?>
<svg viewBox="0 0 500 500" xmlns="http://www.w3.org/2000/svg">
  <g>
    <g transform="matrix(2.739754, 0, 0, 2.739754, -178.056503, -670.245667)">
      <g transform="matrix(1, 0, 0, 1, -8.658009, -103.896103)">
        <g>
          <path style=" fill:#FAEFDE;" d="M 195.414 352.349 L 102.904 352.349 C 97.563 352.349 93.253 356.659 93.253 362 L 93.253 516.41 C 93.253 521.738 97.563 526.06 102.904 526.06 L 225.145 526.06 C 230.473 526.06 234.795 521.738 234.795 516.41 L 234.795 391.718 C 234.808 389.18 233.828 386.717 232.056 384.895 L 202.237 355.176 C 200.428 353.367 197.977 352.349 195.414 352.349 Z"/>
        </g>
        <path style=" fill:#FFF7F0;" d="M 234.795 430.22 L 234.795 413.407 L 234.054 387.923 C 233.577 386.717 232.86 385.624 231.956 384.706 L 218.058 370.808 L 93.253 495.814 L 93.731 518.847 C 94.849 523.069 98.669 526.01 103.029 526.022 L 138.955 526.022 Z"/>
        <path style=" fill:#FFF7F0;" d="M 202.237 355.176 C 201.936 354.887 201.609 354.624 201.27 354.372 L 93.253 462.389 L 93.731 481.212 L 211.021 363.922 Z"/>
        <path style=" fill:#FFF7F0;" d="M 93.253 443.088 L 183.803 352.538 L 193.454 352.538 L 93.253 452.738 Z"/>
        <path style=" fill:#FFFFFF;" d="M 146.66 410.65 L 142.664 417.926 L 135.401 421.909 L 142.664 425.893 L 146.66 433.168 L 150.643 425.893 L 157.919 421.909 L 150.643 417.926 Z"/>
        <path style=" fill:#FFFFFF;" d="M 169.101 362.188 L 166.362 367.202 L 161.348 369.979 L 166.362 372.706 L 169.101 377.757 L 171.865 372.706 L 176.892 369.979 L 171.865 367.202 Z"/>
        <path style=" fill:#FFFFFF;" d="M 216.613 471.562 L 214.753 474.967 L 211.335 476.865 L 214.753 478.737 L 216.613 482.18 L 218.51 478.737 L 221.928 476.865 L 218.51 474.967 Z"/>
        <path style=" fill:#BBDEF9;" d="M 196.193 352.538 L 196.193 391.14 L 234.795 391.14 Z"/>
        <path style=" fill:#8D6C9F;" d="M 233.79 381.879 L 205.932 354.02 C 202.916 351.005 198.819 349.308 194.547 349.321 L 100.164 349.321 C 94.836 349.321 90.514 353.643 90.514 358.971 L 90.514 519.815 C 90.514 525.143 94.836 529.466 100.164 529.466 L 228.839 529.466 C 234.167 529.466 238.49 525.143 238.49 519.815 L 238.49 393.264 C 238.502 388.991 236.806 384.895 233.79 381.879 Z M 229.254 386.415 C 229.719 386.868 230.121 387.358 230.485 387.885 L 203.104 387.885 C 201.332 387.885 199.887 386.453 199.887 384.669 L 199.887 357.363 C 200.415 357.715 200.918 358.129 201.37 358.582 Z M 228.839 523.032 L 100.164 523.032 C 98.393 523.032 96.947 521.587 96.947 519.815 L 96.947 358.971 C 96.947 357.2 98.393 355.754 100.164 355.754 L 193.454 355.754 L 193.454 384.706 C 193.454 390.034 197.776 394.357 203.104 394.357 L 232.056 394.357 L 232.056 519.815 C 232.056 521.587 230.611 523.032 228.839 523.032 Z"/>
        <path style="fill: rgb(141, 108, 159); fill-opacity: 0.25;" d="M 187.02 410.441 C 187.02 412.213 188.465 413.658 190.237 413.658 L 203.104 413.658 C 204.876 413.658 206.321 412.213 206.321 410.441 C 206.321 408.669 204.876 407.224 203.104 407.224 L 190.237 407.224 C 188.465 407.224 187.02 408.669 187.02 410.441 Z"/>
        <path style="fill: rgb(141, 108, 159); fill-opacity: 0.25;" d="M 125.899 413.658 L 177.369 413.658 C 179.141 413.658 180.586 412.213 180.586 410.441 C 180.586 408.669 179.141 407.224 177.369 407.224 L 125.899 407.224 C 124.128 407.224 122.682 408.669 122.682 410.441 C 122.682 412.213 124.128 413.658 125.899 413.658 Z"/>
        <path style="fill: rgb(141, 108, 159); fill-opacity: 0.25;" d="M 125.899 451.791 L 190.237 451.791 C 192.009 451.791 193.454 450.346 193.454 448.574 C 193.454 446.802 192.009 445.357 190.237 445.357 L 125.899 445.357 C 124.128 445.357 122.682 446.802 122.682 448.574 C 122.682 450.346 124.128 451.791 125.899 451.791 Z"/>
        <path style="fill: rgb(141, 108, 159); fill-opacity: 0.25;" d="M 125.899 464.923 L 183.803 464.923 C 185.575 464.923 187.02 463.478 187.02 461.706 C 187.02 459.935 185.575 458.489 183.803 458.489 L 125.899 458.489 C 124.128 458.489 122.682 459.935 122.682 461.706 C 122.682 463.478 124.128 464.923 125.899 464.923 Z"/>
        <path style="fill: rgb(141, 108, 159); fill-opacity: 0.25;" d="M 125.899 426.526 L 203.104 426.526 C 204.876 426.526 206.321 425.081 206.321 423.309 C 206.321 421.537 204.876 420.092 203.104 420.092 L 125.899 420.092 C 124.128 420.092 122.682 421.537 122.682 423.309 C 122.682 425.081 124.128 426.526 125.899 426.526 Z"/>
        <path style="fill: rgb(141, 108, 159); fill-opacity: 0.25;" d="M 125.899 439.393 L 203.104 439.393 C 204.876 439.393 206.321 437.948 206.321 436.176 C 206.321 434.404 204.876 432.959 203.104 432.959 L 125.899 432.959 C 124.128 432.959 122.682 434.404 122.682 436.176 C 122.682 437.948 124.128 439.393 125.899 439.393 Z"/>
        <path style="fill: rgb(141, 108, 159); fill-opacity: 0.25;" d="M 139.598 497.297 C 137.826 497.297 136.381 498.742 136.381 500.514 L 136.381 506.947 C 136.381 508.719 137.826 510.164 139.598 510.164 C 141.37 510.164 142.815 508.719 142.815 506.947 L 142.815 500.514 C 142.815 498.742 141.37 497.297 139.598 497.297 Z"/>
        <path style="fill: rgb(141, 108, 159); fill-opacity: 0.23;" d="M 122.682 497.297 C 120.911 497.297 119.466 498.742 119.466 500.514 L 119.466 506.947 C 119.466 508.719 120.911 510.164 122.682 510.164 C 124.454 510.164 125.899 508.719 125.899 506.947 L 125.899 500.514 C 125.899 498.742 124.454 497.297 122.682 497.297 Z"/>
        <path style="fill: rgb(141, 108, 159); fill-opacity: 0.25;" d="M 174.152 497.297 C 172.381 497.297 170.936 498.742 170.936 500.514 L 170.936 506.947 C 170.936 508.719 172.381 510.164 174.152 510.164 C 175.924 510.164 177.369 508.719 177.369 506.947 L 177.369 500.514 C 177.369 498.742 175.924 497.297 174.152 497.297 Z"/>
        <path style="fill: rgb(141, 108, 159); fill-opacity: 0.23;" d="M 190.237 497.297 C 188.465 497.297 187.02 498.742 187.02 500.514 L 187.02 506.947 C 187.02 508.719 188.465 510.164 190.237 510.164 C 192.009 510.164 193.454 508.719 193.454 506.947 L 193.454 500.514 C 193.454 498.742 192.009 497.297 190.237 497.297 Z"/>
        <path style="fill: rgb(141, 108, 159); fill-opacity: 0.23;" d="M 206.321 497.297 C 204.549 497.297 203.104 498.742 203.104 500.514 L 203.104 506.947 C 203.104 508.719 204.549 510.164 206.321 510.164 C 208.093 510.164 209.538 508.719 209.538 506.947 L 209.538 500.514 C 209.538 498.742 208.093 497.297 206.321 497.297 Z"/>
        <path style="fill: rgb(141, 108, 159); fill-opacity: 0.25;" d="M 156.406 497.297 C 154.634 497.297 153.189 498.742 153.189 500.514 L 153.189 506.947 C 153.189 508.719 154.634 510.164 156.406 510.164 C 158.177 510.164 159.622 508.719 159.622 506.947 L 159.622 500.514 C 159.622 498.742 158.177 497.297 156.406 497.297 Z"/>
      </g>
      <g id="g-1" transform="matrix(5.232212, 0, 0, 6.991998, 147.046585, 192.68631)">
        <path style=" fill:#72CAAF;" d="M 4.885 19.992 L -1.82 12.994 C -2.086 12.717 -2.527 12.717 -2.793 12.994 L -9.498 19.992 C -9.703 20.206 -9.551 20.56 -9.255 20.56 L -6.343 20.56 C -6.158 20.56 -6.007 20.712 -6.007 20.897 L -6.007 26.616 C -6.007 26.987 -5.706 27.288 -5.334 27.288 L 0.721 27.288 C 1.093 27.288 1.394 26.987 1.394 26.616 L 1.394 20.897 C 1.394 20.712 1.545 20.56 1.73 20.56 L 4.642 20.56 C 4.938 20.56 5.09 20.206 4.885 19.992 Z" transform="matrix(0, 1, -1, 0, 17.730627, 22.343624)"/>
        <path style=" fill:#97E0BB;" d="M 4.518 12.75 C 4.935 13.17 4.937 13.847 4.524 14.272 L -1.128 20.077 C -1.337 20.293 -1.625 20.413 -1.926 20.413 L -2.384 20.413 C -2.68 20.413 -2.831 20.057 -2.626 19.845 L 3.868 13.061 C 4.131 12.785 4.257 12.474 4.518 12.75 Z" transform="matrix(0, 1, -1, 0, 17.583723, 15.471823)"/>
        <path style=" fill:#8D6C9F;" d="M 5.122 19.754 L -1.584 12.757 C -1.968 12.355 -2.657 12.355 -3.04 12.757 L -9.747 19.754 C -9.934 19.948 -9.986 20.235 -9.88 20.483 C -9.774 20.732 -9.532 20.892 -9.261 20.892 L -6.349 20.892 L -6.349 26.611 C -6.349 27.166 -5.896 27.62 -5.34 27.62 L 0.715 27.62 C 1.271 27.62 1.724 27.166 1.724 26.611 L 1.724 20.892 L 4.636 20.892 C 4.907 20.892 5.149 20.732 5.255 20.483 C 5.362 20.235 5.309 19.948 5.122 19.754 Z M 1.724 20.219 C 1.354 20.219 1.052 20.521 1.052 20.892 L 1.052 26.611 C 1.052 26.796 0.9 26.947 0.715 26.947 L -5.34 26.947 C -5.525 26.947 -5.676 26.796 -5.676 26.611 L -5.676 20.892 C -5.676 20.521 -5.979 20.219 -6.349 20.219 L -9.261 20.219 L -2.556 13.222 C -2.427 13.088 -2.198 13.088 -2.069 13.222 L 4.636 20.219 Z" transform="matrix(0, 1, -1, 0, 17.725471, 22.350032)"/>
      </g>
    </g>
    <g transform="matrix(4.488489, 0, 0, 4.488489, -647.44519, -1227.637451)">
      <g>
        <path d="M 233.088 361.216 L 222.949 361.216 L 222.949 371.355 C 222.949 373.217 221.431 374.735 219.569 374.735 C 217.708 374.735 216.189 373.217 216.189 371.355 L 216.189 361.216 L 206.05 361.216 C 204.188 361.216 202.67 359.697 202.67 357.836 C 202.67 355.974 204.188 354.456 206.05 354.456 L 216.189 354.456 L 216.189 344.317 C 216.189 342.455 217.708 340.937 219.569 340.937 C 221.431 340.937 222.949 342.455 222.949 344.317 L 222.949 354.456 L 233.088 354.456 C 234.95 354.456 236.468 355.974 236.468 357.836 C 236.468 359.697 234.95 361.216 233.088 361.216 Z" transform="matrix(-1, 0, 0, -1, 439.138006, 715.672014)" style="fill: rgb(47, 173, 135);"/>
      </g>
    </g>
  </g>
</svg>