<?xml version="1.0" encoding="utf-8"?>
<svg viewBox="0 0 500 500" xmlns="http://www.w3.org/2000/svg">
  <g>
    <g transform="matrix(2.18854, 0, 0, 2.18854, -594.467773, -45.369278)">
      <path style=" fill:#FAEFDE;" d="M 424.001 25.593 L 308.042 25.593 C 301.348 25.593 295.945 30.996 295.945 37.69 L 295.945 231.239 C 295.945 237.918 301.348 243.336 308.042 243.336 L 461.268 243.336 C 467.947 243.336 473.365 237.918 473.365 231.239 L 473.365 74.941 C 473.381 71.76 472.152 68.672 469.931 66.389 L 432.554 29.137 C 430.286 26.869 427.214 25.593 424.001 25.593 Z"/>
      <path style=" fill:#FFF7F0;" d="M 473.365 123.203 L 473.365 102.128 L 472.436 70.185 C 471.837 68.672 470.939 67.302 469.805 66.152 L 452.385 48.732 L 295.945 205.423 L 296.544 234.295 C 297.945 239.587 302.734 243.273 308.199 243.289 L 353.232 243.289 Z"/>
      <path style=" fill:#FFF7F0;" d="M 432.554 29.137 C 432.176 28.775 431.766 28.444 431.341 28.129 L 295.945 163.525 L 296.544 187.12 L 443.564 40.1 Z"/>
      <path style=" fill:#FFF7F0;" d="M 295.945 139.332 L 409.447 25.83 L 421.544 25.83 L 295.945 151.429 Z"/>
      <path style=" fill:#FFFFFF;" d="M 318.123 70.185 L 313.114 79.304 L 304.01 84.298 L 313.114 89.291 L 318.123 98.41 L 323.116 89.291 L 332.235 84.298 L 323.116 79.304 Z"/>
      <path style=" fill:#FFFFFF;" d="M 391.018 37.926 L 387.585 44.211 L 381.3 47.692 L 387.585 51.11 L 391.018 57.442 L 394.484 51.11 L 400.784 47.692 L 394.484 44.211 Z"/>
      <path style=" fill:#FFFFFF;" d="M 450.573 175.024 L 448.242 179.292 L 443.958 181.671 L 448.242 184.017 L 450.573 188.333 L 452.952 184.017 L 457.236 181.671 L 452.952 179.292 Z"/>
      <path style=" fill:#BBDEF9;" d="M 424.978 25.83 L 424.978 74.217 L 473.365 74.217 Z"/>
      <path style=" fill:#8D6C9F;" d="M 472.105 62.608 L 437.185 27.688 C 433.404 23.908 428.27 21.782 422.914 21.797 L 304.608 21.797 C 297.93 21.797 292.511 27.216 292.511 33.894 L 292.511 235.508 C 292.511 242.186 297.93 247.604 304.608 247.604 L 465.899 247.604 C 472.577 247.604 477.996 242.186 477.996 235.508 L 477.996 76.879 C 478.011 71.523 475.885 66.389 472.105 62.608 Z M 466.419 68.294 C 467.001 68.861 467.506 69.476 467.962 70.137 L 433.641 70.137 C 431.42 70.137 429.608 68.342 429.608 66.105 L 429.608 31.878 C 430.27 32.319 430.9 32.839 431.467 33.406 Z M 465.899 239.54 L 304.608 239.54 C 302.387 239.54 300.576 237.729 300.576 235.508 L 300.576 33.894 C 300.576 31.673 302.387 29.862 304.608 29.862 L 421.544 29.862 L 421.544 66.152 C 421.544 72.831 426.962 78.249 433.641 78.249 L 469.931 78.249 L 469.931 235.508 C 469.931 237.729 468.12 239.54 465.899 239.54 Z"/>
      <path style=" fill:#8D6C9F;" d="M 413.479 98.41 C 413.479 100.631 415.291 102.443 417.512 102.443 L 433.641 102.443 C 435.862 102.443 437.673 100.631 437.673 98.41 C 437.673 96.19 435.862 94.378 433.641 94.378 L 417.512 94.378 C 415.291 94.378 413.479 96.19 413.479 98.41 Z"/>
      <path style=" fill:#8D6C9F;" d="M 336.866 102.443 L 401.383 102.443 C 403.603 102.443 405.415 100.631 405.415 98.41 C 405.415 96.19 403.603 94.378 401.383 94.378 L 336.866 94.378 C 334.645 94.378 332.834 96.19 332.834 98.41 C 332.834 100.631 334.645 102.443 336.866 102.443 Z"/>
      <path style=" fill:#8D6C9F;" d="M 336.866 86.314 L 417.512 86.314 C 419.733 86.314 421.544 84.502 421.544 82.281 C 421.544 80.061 419.733 78.249 417.512 78.249 L 336.866 78.249 C 334.645 78.249 332.834 80.061 332.834 82.281 C 332.834 84.502 334.645 86.314 336.866 86.314 Z"/>
      <path style=" fill:#8D6C9F;" d="M 336.866 70.185 L 409.447 70.185 C 411.668 70.185 413.479 68.373 413.479 66.152 C 413.479 63.931 411.668 62.12 409.447 62.12 L 336.866 62.12 C 334.645 62.12 332.834 63.931 332.834 66.152 C 332.834 68.373 334.645 70.185 336.866 70.185 Z"/>
      <path style=" fill:#8D6C9F;" d="M 336.866 118.572 L 433.641 118.572 C 435.862 118.572 437.673 116.76 437.673 114.54 C 437.673 112.319 435.862 110.507 433.641 110.507 L 336.866 110.507 C 334.645 110.507 332.834 112.319 332.834 114.54 C 332.834 116.76 334.645 118.572 336.866 118.572 Z"/>
      <path style=" fill:#8D6C9F;" d="M 397.35 146.798 C 397.35 144.577 395.539 142.765 393.318 142.765 L 336.866 142.765 C 334.645 142.765 332.834 144.577 332.834 146.798 C 332.834 149.019 334.645 150.83 336.866 150.83 L 393.318 150.83 C 395.539 150.83 397.35 149.019 397.35 146.798 Z"/>
      <path style=" fill:#8D6C9F;" d="M 336.866 134.701 L 433.641 134.701 C 435.862 134.701 437.673 132.89 437.673 130.669 C 437.673 128.448 435.862 126.636 433.641 126.636 L 336.866 126.636 C 334.645 126.636 332.834 128.448 332.834 130.669 C 332.834 132.89 334.645 134.701 336.866 134.701 Z"/>
      <path style=" fill:#8D6C9F;" d="M 312.673 207.282 C 310.452 207.282 308.64 209.093 308.64 211.314 L 308.64 219.379 C 308.64 221.599 310.452 223.411 312.673 223.411 C 314.894 223.411 316.705 221.599 316.705 219.379 L 316.705 211.314 C 316.705 209.093 314.894 207.282 312.673 207.282 Z"/>
      <path style=" fill:#8D6C9F;" d="M 332.834 207.282 C 330.613 207.282 328.802 209.093 328.802 211.314 L 328.802 219.379 C 328.802 221.599 330.613 223.411 332.834 223.411 C 335.055 223.411 336.866 221.599 336.866 219.379 L 336.866 211.314 C 336.866 209.093 335.055 207.282 332.834 207.282 Z"/>
      <path style=" fill:#8D6C9F;" d="M 397.35 207.282 C 395.129 207.282 393.318 209.093 393.318 211.314 L 393.318 219.379 C 393.318 221.599 395.129 223.411 397.35 223.411 C 399.571 223.411 401.383 221.599 401.383 219.379 L 401.383 211.314 C 401.383 209.093 399.571 207.282 397.35 207.282 Z"/>
      <path style=" fill:#8D6C9F;" d="M 375.512 207.282 C 373.291 207.282 371.479 209.093 371.479 211.314 L 371.479 219.379 C 371.479 221.599 373.291 223.411 375.512 223.411 C 377.733 223.411 379.544 221.599 379.544 219.379 L 379.544 211.314 C 379.544 209.093 377.733 207.282 375.512 207.282 Z"/>
      <path style=" fill:#8D6C9F;" d="M 437.673 207.282 C 435.452 207.282 433.641 209.093 433.641 211.314 L 433.641 219.379 C 433.641 221.599 435.452 223.411 437.673 223.411 C 439.894 223.411 441.705 221.599 441.705 219.379 L 441.705 211.314 C 441.705 209.093 439.894 207.282 437.673 207.282 Z"/>
      <path style=" fill:#8D6C9F;" d="M 354.834 207.282 C 352.613 207.282 350.802 209.093 350.802 211.314 L 350.802 219.379 C 350.802 221.599 352.613 223.411 354.834 223.411 C 357.055 223.411 358.867 221.599 358.867 219.379 L 358.867 211.314 C 358.867 209.093 357.055 207.282 354.834 207.282 Z"/>
    </g>
    <g transform="matrix(1.870181, 0, 0, 1.870181, -155.762924, -49.744312)">
      <path style=" fill:#ED7899;" d="M 118.436 126.684 L 137 108.12 C 141.26 103.86 141.26 96.958 137 92.698 L 127.009 82.708 L 93.023 116.704 L 103.014 126.684 C 107.263 130.944 114.176 130.944 118.436 126.684 Z" transform="matrix(-1, 0, 0, -1, 233.218001, 212.586996)"/>
      <path style=" fill:#C2CDE7;" d="M 121.205 155.813 L 164.83 112.188 L 146.788 94.136 L 103.152 137.771 Z" transform="matrix(-1, 0, 0, -1, 267.98198, 249.948999)"/>
      <path d="M 203.002 229.42 L 238.447 193.985 L 160.399 115.938 L 124.965 151.372 Z" style="fill: rgb(253, 209, 109);" transform="matrix(-1, 0, 0, -1, 363.411997, 345.358009)"/>
      <path d="M 203.002 229.42 L 215.271 217.161 L 137.223 139.113 L 124.965 151.372 Z" style="fill: rgb(247, 192, 97);" transform="matrix(-1, 0, 0, -1, 340.235978, 368.533038)"/>
      <path d="M 201.649 200.802 L 204.376 230.794 L 223.461 228.067 L 226.188 219.888 L 234.155 215.798 L 239.821 195.349 L 207.102 195.349 Z" style="fill: rgb(255, 231, 193);" transform="matrix(-1, 0, 0, -1, 441.469982, 426.143024)"/>
      <path d="M 226.177 206.244 L 238.447 193.985 L 160.399 115.938 L 148.14 128.207 Z" style="fill: rgb(255, 226, 181);" transform="matrix(-1, 0, 0, -1, 386.586992, 322.182023)"/>
      <path style=" fill:#8D6C9F;" d="M 244.482 201.601 C 244.482 204.487 243.342 207.267 241.297 209.312 L 218.143 232.434 C 213.829 236.567 207.023 236.567 202.71 232.434 L 191.069 220.878 C 190.046 221.901 188.662 222.476 187.213 222.476 C 185.765 222.476 184.38 221.901 183.358 220.878 L 167.925 205.446 C 166.892 204.423 166.317 203.028 166.317 201.579 C 166.317 200.131 166.892 198.746 167.925 197.724 L 168.053 197.585 L 94.329 123.894 C 92.955 122.52 92.114 120.699 91.954 118.76 L 90.186 95.861 L 88.28 82.442 C 88.162 81.664 88.407 80.865 88.929 80.269 C 89.451 79.672 90.207 79.332 91.006 79.342 L 91.272 79.342 L 104.692 81.355 L 127.729 83.049 C 129.689 83.187 131.521 84.028 132.916 85.413 L 206.746 159.03 C 208.855 157.007 212.189 157.007 214.298 159.03 L 229.73 174.463 C 230.753 175.485 231.328 176.881 231.328 178.329 C 231.328 179.778 230.753 181.162 229.73 182.185 L 241.297 193.741 C 243.374 195.828 244.524 198.661 244.482 201.601 Z M 111.722 114.351 L 113.309 106.491 C 113.522 105.426 114.363 104.584 115.439 104.371 L 123.288 102.784 L 126.206 88.225 L 105.427 86.808 L 95.639 96.596 L 97.301 117.322 Z M 131.084 91.303 L 128.358 104.318 L 173.815 149.519 C 174.741 150.605 174.677 152.214 173.666 153.226 C 172.664 154.227 171.046 154.291 169.97 153.364 L 124.705 108.152 L 118.272 109.441 L 116.983 115.874 L 154.505 153.396 C 155.432 154.472 155.368 156.08 154.367 157.092 C 153.355 158.104 151.747 158.157 150.66 157.23 L 113.149 119.719 L 100.411 122.254 L 171.983 193.741 L 202.848 162.907 Z M 221.987 174.601 C 220.922 175.656 219.208 175.656 218.143 174.601 L 214.298 170.756 C 213.243 169.691 213.243 167.977 214.298 166.912 L 210.431 163.152 L 171.983 201.601 L 175.828 205.446 C 176.893 204.38 178.607 204.38 179.673 205.446 L 183.517 209.29 C 184.572 210.345 184.572 212.07 183.517 213.125 L 187.362 216.969 L 189.301 215.042 L 223.926 180.385 L 225.864 178.446 Z M 237.42 197.756 L 225.864 186.189 L 194.999 217.033 L 206.587 228.589 C 207.609 229.612 208.994 230.187 210.442 230.187 C 211.891 230.187 213.275 229.612 214.298 228.589 L 237.42 205.446 C 238.443 204.423 239.018 203.028 239.018 201.579 C 239.018 200.131 238.443 198.746 237.42 197.724 Z" transform="matrix(-1, 0, 0, -1, 332.733938, 314.875541)"/>
      <path style=" fill:#8D6C9F;" d="M 143.891 119.356 L 140.046 115.511 C 139.226 114.861 138.853 113.796 139.088 112.773 C 139.333 111.751 140.131 110.952 141.154 110.729 C 142.176 110.494 143.241 110.878 143.891 111.698 L 147.736 115.543 C 148.662 116.629 148.599 118.237 147.587 119.238 C 146.586 120.25 144.967 120.314 143.891 119.388 Z" transform="matrix(-1, 0, 0, -1, 287.409094, 230.702745)"/>
      <path style=" fill:#8D6C9F;" d="M 134.164 128.982 L 130.32 125.137 C 129.542 124.477 129.201 123.423 129.446 122.432 C 129.681 121.431 130.458 120.653 131.459 120.419 C 132.45 120.174 133.504 120.515 134.164 121.292 L 138.009 125.137 C 138.936 126.224 138.872 127.832 137.871 128.844 C 136.859 129.845 135.251 129.909 134.164 128.982 Z" transform="matrix(-1, 0, 0, -1, 268.032744, 249.978723)"/>
      <path style=" fill:#8D6C9F;" d="M 124.431 138.654 L 120.639 134.788 C 119.862 134.117 119.521 133.073 119.766 132.083 C 120 131.081 120.778 130.304 121.779 130.07 C 122.769 129.825 123.813 130.166 124.484 130.943 L 128.329 134.788 C 129.256 135.864 129.192 137.483 128.18 138.484 C 127.179 139.495 125.571 139.559 124.484 138.633 Z" transform="matrix(-1, 0, 0, -1, 248.671554, 269.278812)"/>
      <path style=" fill:#8D6C9F;" d="M 170.863 154.006 L 163.12 146.327 C 162.342 145.656 162.001 144.612 162.246 143.611 C 162.481 142.62 163.258 141.843 164.259 141.598 C 165.25 141.363 166.294 141.704 166.965 142.482 L 174.676 150.193 C 175.602 151.279 175.549 152.887 174.537 153.899 C 173.525 154.9 171.917 154.964 170.831 154.038 Z" transform="matrix(-1, 0, 0, -1, 337.502805, 296.218005)"/>
    </g>
  </g>
</svg>