<?xml version="1.0" encoding="utf-8"?>
<svg viewBox="0 0 500 500" xmlns="http://www.w3.org/2000/svg">
  <path style=" fill:#FAEFDE;" d="M 181.953 488.618 L 436.139 488.618 C 450.777 488.618 462.651 476.775 462.651 462.103 L 462.651 37.895 C 462.651 23.257 450.777 11.383 436.139 11.383 L 100.307 11.383 C 85.669 11.383 73.795 23.257 73.795 37.895 L 73.795 380.46 C 73.795 387.502 76.59 394.232 81.561 399.203 L 163.241 480.849 C 168.212 485.82 174.945 488.618 181.953 488.618 Z" transform="matrix(-1, 0, 0, -1, 536.446047, 500.001027)"/>
  <path style=" fill:#FFF7F0;" d="M 75.108 21.256 L 73.795 104.869 L 458.13 489.135 L 463.964 286.386 L 198.834 21.256 Z" transform="matrix(-1, 0, 0, -1, 537.759037, 510.391008)"/>
  <path style=" fill:#FFF7F0;" d="M 110.837 63.096 L 413.147 365.409 L 463.964 363.199 L 112.15 11.383 Z" transform="matrix(-1, 0, 0, -1, 574.800954, 376.791965)"/>
  <path style=" fill:#FFF7F0;" d="M 188.683 38.412 L 437.449 287.181 L 463.964 287.181 L 188.683 11.9 Z" transform="matrix(-1, 0, 0, -1, 652.646952, 299.081003)"/>
  <path style=" fill:#FFFFFF;" d="M 157.75 144.468 L 168.693 124.48 L 188.684 113.537 L 168.693 102.594 L 157.75 82.603 L 146.807 102.594 L 126.819 113.537 L 146.807 124.48 Z" transform="matrix(-1, 0, 0, -1, 315.502977, 227.070988)"/>
  <path style=" fill:#FFFFFF;" d="M 291.044 107.7 L 298.536 93.925 L 312.413 86.295 L 298.536 78.804 L 291.044 64.927 L 283.414 78.804 L 269.639 86.295 L 283.414 93.925 Z" transform="matrix(-1, 0, 0, -1, 582.052029, 172.626988)"/>
  <path style=" fill:#FFFFFF;" d="M 412.697 368.068 L 417.84 358.715 L 427.301 353.501 L 417.84 348.357 L 412.697 338.897 L 407.588 348.357 L 398.13 353.501 L 407.588 358.715 Z" transform="matrix(-1, 0, 0, -1, 825.431053, 706.964937)"/>
  <path style=" fill:#BBDEF9;" d="M 462.651 117.953 L 462.651 11.9 L 356.601 11.9 Z" transform="matrix(-1, 0, 0, -1, 819.252008, 129.852995)"/>
  <path style=" fill:#8D6C9F;" d="M 444.977 497.974 L 185.682 497.974 C 173.944 498.01 162.689 493.348 154.403 485.064 L 77.866 408.528 C 69.583 400.241 64.923 388.987 64.957 377.252 L 64.957 29.577 C 64.957 14.939 76.831 3.065 91.469 3.065 L 444.977 3.065 C 459.615 3.065 471.489 14.939 471.489 29.577 L 471.489 471.462 C 471.489 486.1 459.615 497.974 444.977 497.974 Z M 166.936 472.531 C 168.178 473.776 169.559 474.913 171.01 475.881 L 171.01 400.762 C 171.01 395.893 167.038 391.923 162.172 391.923 L 87.05 391.923 C 88.017 393.372 89.157 394.753 90.399 395.997 Z M 453.816 29.577 C 453.816 24.711 449.844 20.739 444.977 20.739 L 91.469 20.739 C 86.603 20.739 82.631 24.711 82.631 29.577 L 82.631 374.247 L 162.172 374.247 C 176.809 374.247 188.683 386.124 188.683 400.762 L 188.683 480.3 L 444.977 480.3 C 449.844 480.3 453.816 476.331 453.816 471.462 Z" transform="matrix(-1, 0, 0, -1, 536.445803, 501.039236)"/>
  <path style="fill: rgb(141, 108, 159); fill-opacity: 0.25;" d="M 427.301 444.947 C 422.432 444.947 418.463 440.978 418.463 436.109 L 418.463 418.433 C 418.463 413.566 422.432 409.597 427.301 409.597 C 432.167 409.597 436.139 413.566 436.139 418.433 L 436.139 436.109 C 436.139 440.978 432.167 444.947 427.301 444.947 Z" transform="matrix(-1, 0, 0, -1, 854.602065, 854.543905)"/>
  <path style="fill: rgb(141, 108, 159); fill-opacity: 0.25;" d="M 383.113 444.947 C 378.244 444.947 374.275 440.978 374.275 436.109 L 374.275 418.433 C 374.275 413.566 378.244 409.597 383.113 409.597 C 387.979 409.597 391.951 413.566 391.951 418.433 L 391.951 436.109 C 391.951 440.978 387.979 444.947 383.113 444.947 Z" transform="matrix(-1, 0, 0, -1, 766.225975, 854.543905)"/>
  <path style="fill: rgb(141, 108, 159); fill-opacity: 0.25;" d="M 338.925 444.947 C 334.056 444.947 330.086 440.978 330.086 436.109 L 330.086 418.433 C 330.086 413.566 334.056 409.597 338.925 409.597 C 343.793 409.597 347.763 413.566 347.763 418.433 L 347.763 436.109 C 347.763 440.978 343.793 444.947 338.925 444.947 Z" transform="matrix(-1, 0, 0, -1, 677.849028, 854.543905)"/>
  <path style="fill: rgb(141, 108, 159); fill-opacity: 0.25;" d="M 294.736 444.947 C 289.87 444.947 285.898 440.978 285.898 436.109 L 285.898 418.433 C 285.898 413.566 289.87 409.597 294.736 409.597 C 299.605 409.597 303.574 413.566 303.574 418.433 L 303.574 436.109 C 303.574 440.978 299.605 444.947 294.736 444.947 Z" transform="matrix(-1, 0, 0, -1, 589.47202, 854.543905)"/>
  <path style="fill: rgb(141, 108, 159); fill-opacity: 0.25;" d="M 250.548 444.947 C 245.682 444.947 241.71 440.978 241.71 436.109 L 241.71 418.433 C 241.71 413.566 245.682 409.597 250.548 409.597 C 255.417 409.597 259.386 413.566 259.386 418.433 L 259.386 436.109 C 259.386 440.978 255.417 444.947 250.548 444.947 Z" transform="matrix(-1, 0, 0, -1, 501.09599, 854.543905)"/>
  <path style="fill: rgb(141, 108, 159); fill-opacity: 0.25;" d="M 206.36 444.947 C 201.494 444.947 197.522 440.978 197.522 436.109 L 197.522 418.433 C 197.522 413.566 201.494 409.597 206.36 409.597 C 211.229 409.597 215.198 413.566 215.198 418.433 L 215.198 436.109 C 215.198 440.978 211.229 444.947 206.36 444.947 Z" transform="matrix(-1, 0, 0, -1, 412.720022, 854.543905)"/>
  <path style="fill: rgb(141, 108, 159); fill-opacity: 0.25;" d="M 162.169 444.947 C 157.303 444.947 153.333 440.978 153.333 436.109 L 153.333 418.433 C 153.333 413.566 157.303 409.597 162.169 409.597 C 167.038 409.597 171.007 413.566 171.007 418.433 L 171.007 436.109 C 171.007 440.978 167.038 444.947 162.169 444.947 Z" transform="matrix(-1, 0, 0, -1, 324.339986, 854.543905)"/>
  <path style="fill: rgb(141, 108, 159); fill-opacity: 0.25;" d="M 117.981 444.947 C 113.115 444.947 109.145 440.978 109.145 436.109 L 109.145 418.433 C 109.145 413.566 113.115 409.597 117.981 409.597 C 122.85 409.597 126.819 413.566 126.819 418.433 L 126.819 436.109 C 126.819 440.978 122.85 444.947 117.981 444.947 Z" transform="matrix(-1, 0, 0, -1, 235.963987, 854.543905)"/>
  <path style="fill: rgb(251, 6, 47);" d="M 75.802 177.677 L 120.24 133.209 C 130.444 123.008 130.444 106.481 120.24 96.272 L 96.325 72.346 L 14.969 153.772 L 38.883 177.677 C 49.058 187.878 65.599 187.878 75.802 177.677 Z" transform="matrix(-1, 0, 0, -1, 142.862014, 257.673758)"/>
  <path style="fill: rgb(194, 205, 231);" d="M 82.433 247.437 L 186.867 142.961 L 143.673 99.715 L 39.208 204.231 Z" transform="matrix(-1, 0, 0, -1, 226.075008, 347.151998)"/>
  <path style="fill: rgb(250, 255, 90);" d="M 278.244 423.741 L 363.094 338.869 L 176.255 151.937 L 91.425 236.809 Z" transform="matrix(-1, 0, 0, -1, 454.519012, 575.677952)"/>
  <path style="fill: rgb(252, 240, 0);" d="M 278.244 423.741 L 307.618 394.375 L 120.779 207.443 L 91.425 236.809 Z" transform="matrix(-1, 0, 0, -1, 399.04301, 631.183983)"/>
  <path style="fill: rgb(250, 239, 222);" d="M 275.005 355.194 L 281.534 427.022 L 327.222 420.5 L 333.751 400.904 L 352.818 391.114 L 366.384 342.13 L 288.063 342.13 Z" transform="matrix(-1, 0, 0, -1, 641.389024, 769.151993)"/>
  <path style="fill: rgb(248, 242, 63);" d="M 333.721 368.227 L 363.094 338.869 L 176.255 151.937 L 146.912 181.325 Z" transform="matrix(-1, 0, 0, -1, 510.005961, 520.163972)"/>
  <path style="fill: rgb(141, 108, 159);" d="M 377.546 357.11 C 377.546 364.017 374.816 370.683 369.918 375.573 L 314.493 430.956 C 304.166 440.849 287.87 440.849 277.543 430.956 L 249.677 403.279 C 247.232 405.725 243.913 407.1 240.449 407.1 C 236.976 407.1 233.665 405.725 231.223 403.279 L 194.272 366.312 C 191.796 363.866 190.422 360.523 190.422 357.059 C 190.422 353.585 191.796 350.273 194.272 347.817 L 194.578 347.49 L 18.097 170.994 C 14.807 167.701 12.79 163.341 12.402 158.695 L 8.175 103.852 L 3.614 71.714 C 3.328 69.848 3.92 67.934 5.162 66.508 C 6.413 65.082 8.226 64.264 10.132 64.285 L 10.774 64.285 L 42.897 69.105 L 98.046 73.16 C 102.742 73.497 107.12 75.514 110.462 78.826 L 287.208 255.151 C 292.259 250.3 300.234 250.3 305.287 255.151 L 342.227 292.11 C 344.68 294.556 346.056 297.897 346.056 301.371 C 346.056 304.837 344.68 308.157 342.227 310.603 L 369.918 338.279 C 374.888 343.281 377.649 350.07 377.546 357.11 Z M 59.732 148.136 L 63.53 129.307 C 64.04 126.759 66.046 124.743 68.623 124.231 L 87.413 120.431 L 94.4 85.561 L 44.658 82.169 L 21.222 105.615 L 25.205 155.249 Z M 106.083 92.928 L 99.554 124.11 L 208.368 232.366 C 210.588 234.964 210.435 238.815 208.011 241.242 C 205.617 243.646 201.749 243.799 199.17 241.578 L 90.804 133.291 L 75.407 136.378 L 72.32 151.786 L 162.15 241.649 C 164.369 244.227 164.218 248.079 161.813 250.505 C 159.389 252.928 155.539 253.052 152.942 250.841 L 63.143 160.997 L 32.65 167.059 L 203.988 338.279 L 277.879 264.434 Z M 323.688 292.446 C 321.143 294.962 317.039 294.962 314.493 292.446 L 305.287 283.234 C 302.76 280.675 302.76 276.568 305.287 274.022 L 296.028 265.015 L 203.988 357.11 L 213.196 366.312 C 215.741 363.763 219.845 363.763 222.392 366.312 L 231.598 375.522 C 234.125 378.05 234.125 382.187 231.598 384.704 L 240.806 393.915 L 245.439 389.3 L 328.334 306.294 L 332.978 301.648 Z M 360.639 347.899 L 332.978 320.193 L 259.087 394.069 L 286.82 421.744 C 289.275 424.198 292.585 425.575 296.058 425.575 C 299.52 425.575 302.842 424.198 305.287 421.744 L 360.639 366.312 C 363.084 363.866 364.458 360.523 364.458 357.059 C 364.458 353.585 363.084 350.273 360.639 347.817 Z" transform="matrix(-1, 0, 0, -1, 381.091855, 502.660337)"/>
  <path style="fill: rgb(141, 108, 159);" d="M 136.738 160.122 L 127.532 150.909 C 125.566 149.359 124.68 146.802 125.24 144.356 C 125.83 141.91 127.735 139.996 130.189 139.456 C 132.634 138.896 135.179 139.813 136.738 141.78 L 145.946 150.991 C 148.166 153.59 148.003 157.441 145.589 159.846 C 143.185 162.262 139.315 162.413 136.738 160.201 Z" transform="matrix(-1, 0, 0, -1, 272.585325, 301.057888)"/>
  <path style="fill: rgb(141, 108, 159);" d="M 113.457 183.181 L 104.249 173.969 C 102.385 172.389 101.571 169.863 102.161 167.489 C 102.721 165.093 104.585 163.228 106.979 162.668 C 109.353 162.087 111.877 162.901 113.457 164.757 L 122.652 173.969 C 124.873 176.578 124.72 180.429 122.328 182.844 C 119.904 185.25 116.053 185.401 113.457 183.181 Z" transform="matrix(-1, 0, 0, -1, 226.19613, 347.235294)"/>
  <path style="fill: rgb(141, 108, 159);" d="M 90.154 206.341 L 81.078 197.08 C 79.216 195.48 78.399 192.973 78.979 190.609 C 79.539 188.205 81.404 186.349 83.808 185.779 C 86.171 185.198 88.677 186.013 90.275 187.878 L 99.483 197.08 C 101.701 199.657 101.55 203.539 99.126 205.935 C 96.732 208.359 92.882 208.512 90.275 206.289 Z" transform="matrix(-1, 0, 0, -1, 179.845587, 393.454196)"/>
  <path style="fill: rgb(141, 108, 159);" d="M 201.309 243.117 L 182.773 224.723 C 180.909 223.114 180.095 220.618 180.676 218.212 C 181.235 215.838 183.1 213.983 185.503 213.392 C 187.866 212.832 190.371 213.648 191.971 215.512 L 210.435 233.978 C 212.656 236.585 212.523 240.437 210.099 242.863 C 207.674 245.255 203.824 245.41 201.227 243.187 Z" transform="matrix(-1, 0, 0, -1, 392.504573, 457.978506)"/>
  <g transform="matrix(1, 0, 0, 1, -45.082161, 17.034069)">
    <path style="fill: rgb(251, 6, 47);" d="M 122.673 161.04 L 167.111 116.573 C 177.316 106.372 177.316 89.844 167.111 79.635 L 143.197 55.709 L 61.84 137.135 L 85.754 161.04 C 95.93 171.241 112.47 171.241 122.673 161.04 Z" transform="matrix(-1, 0, 0, -1, 236.604734, 224.399752)"/>
    <path style="fill: rgb(250, 255, 90);" d="M 325.115 407.104 L 409.966 322.232 L 223.126 135.3 L 138.297 220.173 Z" transform="matrix(-1, 0, 0, -1, 548.263016, 542.404069)"/>
    <path style="fill: rgb(252, 240, 0);" d="M 325.115 407.104 L 354.49 377.738 L 167.65 190.806 L 138.297 220.173 Z" transform="matrix(-1, 0, 0, -1, 492.787014, 597.910038)"/>
    <path style="fill: rgb(250, 239, 222);" d="M 321.877 338.557 L 328.405 410.385 L 374.094 403.864 L 380.622 384.268 L 399.689 374.478 L 413.256 325.493 L 334.934 325.493 Z" transform="matrix(-1, 0, 0, -1, 735.133028, 735.878048)"/>
    <path style="fill: rgb(248, 242, 63);" d="M 380.592 351.59 L 409.966 322.232 L 223.126 135.3 L 193.783 164.689 Z" transform="matrix(-1, 0, 0, -1, 603.749047, 486.890027)"/>
    <path style="paint-order: stroke; stroke-width: 38; fill: rgb(22, 21, 12);" d="M 424.418 340.473 C 424.418 347.381 421.688 354.047 416.79 358.937 L 361.365 414.319 C 351.038 424.213 334.741 424.213 324.414 414.319 L 296.548 386.642 C 294.103 389.088 290.784 390.464 287.32 390.464 C 283.848 390.464 280.537 389.088 278.094 386.642 L 241.144 349.676 C 238.668 347.23 237.293 343.886 237.293 340.423 C 237.293 336.949 238.668 333.637 241.144 331.18 L 241.45 330.853 L 64.969 154.357 C 61.678 151.065 59.662 146.705 59.274 142.059 L 55.047 87.216 L 50.485 55.078 C 50.2 53.211 50.791 51.298 52.034 49.871 C 53.285 48.445 55.098 47.627 57.003 47.648 L 57.645 47.648 L 89.769 52.469 L 144.918 56.524 C 149.613 56.861 153.992 58.877 157.334 62.189 L 334.079 238.515 C 339.131 233.663 347.105 233.663 352.158 238.515 L 389.098 275.473 C 391.551 277.919 392.928 281.26 392.928 284.734 C 392.928 288.2 391.551 291.52 389.098 293.966 L 416.79 321.642 C 421.759 326.645 424.521 333.433 424.418 340.473 Z M 106.603 131.5 L 110.402 112.67 C 110.911 110.123 112.917 108.106 115.495 107.595 L 134.285 103.794 L 141.272 68.925 L 91.53 65.533 L 68.094 88.978 L 72.077 138.613 Z M 152.954 76.292 L 146.426 107.473 L 255.239 215.73 C 257.46 218.327 257.306 222.179 254.882 224.605 C 252.488 227.01 248.62 227.162 246.042 224.941 L 137.675 116.655 L 122.278 119.742 L 119.191 135.149 L 209.022 225.013 C 211.24 227.591 211.089 231.442 208.685 233.868 C 206.26 236.291 202.41 236.415 199.814 234.205 L 110.015 144.36 L 79.521 150.422 L 250.86 321.642 L 324.75 247.798 Z M 370.56 275.809 C 368.014 278.326 363.91 278.326 361.365 275.809 L 352.158 266.598 C 349.631 264.039 349.631 259.932 352.158 257.385 L 342.899 248.378 L 250.86 340.473 L 260.068 349.676 C 262.613 347.127 266.716 347.127 269.264 349.676 L 278.469 358.886 C 280.996 361.414 280.996 365.551 278.469 368.067 L 287.677 377.278 L 292.311 372.664 L 375.206 289.657 L 379.85 285.011 Z M 407.51 331.262 L 379.85 303.556 L 305.958 377.432 L 333.691 405.108 C 336.147 407.562 339.457 408.938 342.929 408.938 C 346.392 408.938 349.713 407.562 352.158 405.108 L 407.51 349.676 C 409.955 347.23 411.33 343.886 411.33 340.423 C 411.33 336.949 409.955 333.637 407.51 331.18 Z" transform="matrix(-1, 0, 0, -1, 474.835217, 469.387065)"/>
    <path style="fill: rgb(141, 108, 159);" d="M 248.18 226.481 L 229.645 208.087 C 227.781 206.477 226.966 203.981 227.547 201.576 C 228.106 199.201 229.971 197.346 232.375 196.755 C 234.738 196.195 237.243 197.012 238.842 198.876 L 257.306 217.341 C 259.527 219.949 259.394 223.8 256.97 226.227 C 254.545 228.618 250.696 228.773 248.098 226.55 Z" transform="matrix(-1, 0, 0, -1, 486.246712, 424.704684)"/>
  </g>
</svg>