<?xml version="1.0" encoding="utf-8"?>
<svg id="Layer_1" data-name="Layer 1" viewBox="0 0 64 64" width="128" height="128" xmlns="http://www.w3.org/2000/svg">
  <title>Icons8 RSL Colored Part 9</title>
  <path style="fill: rgb(250, 239, 222);" d="M 42.321 1.32 L 9.587 1.32 C 7.697 1.32 6.17 2.845 6.17 4.735 L 6.17 59.374 C 6.17 61.258 7.697 62.788 9.587 62.788 L 52.84 62.788 C 54.727 62.788 56.257 61.258 56.257 59.374 L 56.257 15.251 C 56.26 14.352 55.913 13.481 55.287 12.837 L 44.737 2.321 C 44.096 1.68 43.228 1.32 42.321 1.32 Z"/>
  <path style="fill: rgb(255, 247, 240);" d="M 56.257 28.875 L 56.257 22.926 L 55.994 13.908 C 55.825 13.481 55.571 13.094 55.252 12.77 L 50.333 7.852 L 6.17 52.085 L 6.34 60.236 C 6.736 61.73 8.087 62.77 9.63 62.776 L 22.342 62.776 Z"/>
  <path style="fill: rgb(255, 247, 240);" d="M 44.737 2.321 C 44.629 2.218 44.513 2.125 44.393 2.036 L 6.17 40.257 L 6.34 46.919 L 47.843 5.415 Z"/>
  <path style="fill: rgb(255, 247, 240);" d="M 6.17 33.429 L 38.213 1.387 L 41.628 1.387 L 6.17 36.842 Z"/>
  <path style="fill: rgb(255, 255, 255);" d="M 25.069 21.95 L 23.654 24.525 L 21.086 25.934 L 23.654 27.343 L 25.069 29.917 L 26.479 27.343 L 29.053 25.934 L 26.479 24.525 Z"/>
  <path style="fill: rgb(255, 255, 255);" d="M 33.011 4.801 L 32.041 6.576 L 30.268 7.559 L 32.041 8.524 L 33.011 10.311 L 33.988 8.524 L 35.767 7.559 L 33.988 6.576 Z"/>
  <path style="fill: rgb(255, 255, 255);" d="M 49.822 43.504 L 49.165 44.708 L 47.955 45.38 L 49.165 46.042 L 49.822 47.261 L 50.493 46.042 L 51.703 45.38 L 50.493 44.708 Z"/>
  <path style="fill: rgb(187, 222, 249);" d="M 42.596 1.387 L 42.596 15.045 L 56.257 15.045 Z"/>
  <path style="fill: rgb(141, 108, 159);" d="M 55.9 11.769 L 46.043 1.91 C 44.976 0.845 43.525 0.245 42.015 0.249 L 8.617 0.249 C 6.73 0.249 5.202 1.777 5.202 3.664 L 5.202 60.578 C 5.202 62.464 6.73 63.994 8.617 63.994 L 54.149 63.994 C 56.034 63.994 57.564 62.464 57.564 60.578 L 57.564 15.798 C 57.567 14.286 56.968 12.837 55.9 11.769 Z M 54.295 13.375 C 54.46 13.535 54.603 13.708 54.73 13.895 L 45.043 13.895 C 44.414 13.895 43.903 13.388 43.903 12.756 L 43.903 3.095 C 44.09 3.219 44.269 3.365 44.429 3.525 Z M 54.149 61.717 L 8.617 61.717 C 7.99 61.717 7.479 61.206 7.479 60.578 L 7.479 3.664 C 7.479 3.037 7.99 2.526 8.617 2.526 L 41.628 2.526 L 41.628 12.77 C 41.628 14.655 43.158 16.185 45.043 16.185 L 55.287 16.185 L 55.287 60.578 C 55.287 61.206 54.775 61.717 54.149 61.717 Z"/>
  <path style="fill: rgb(141, 108, 159); fill-opacity: 0.25;" d="M 22.571 52.611 C 21.944 52.611 21.431 53.122 21.431 53.748 L 21.431 56.025 C 21.431 56.652 21.944 57.163 22.571 57.163 C 23.197 57.163 23.708 56.652 23.708 56.025 L 23.708 53.748 C 23.708 53.122 23.197 52.611 22.571 52.611 Z"/>
  <path style="fill: rgb(141, 108, 159); fill-opacity: 0.23;" d="M 16.584 52.611 C 15.957 52.611 15.446 53.122 15.446 53.748 L 15.446 56.025 C 15.446 56.652 15.957 57.163 16.584 57.163 C 17.212 57.163 17.723 56.652 17.723 56.025 L 17.723 53.748 C 17.723 53.122 17.212 52.611 16.584 52.611 Z"/>
  <path style="fill: rgb(141, 108, 159); fill-opacity: 0.25;" d="M 34.798 52.611 C 34.17 52.611 33.659 53.122 33.659 53.748 L 33.659 56.025 C 33.659 56.652 34.17 57.163 34.798 57.163 C 35.425 57.163 35.936 56.652 35.936 56.025 L 35.936 53.748 C 35.936 53.122 35.425 52.611 34.798 52.611 Z"/>
  <path style="fill: rgb(141, 108, 159); fill-opacity: 0.23;" d="M 40.49 52.611 C 39.862 52.611 39.351 53.122 39.351 53.748 L 39.351 56.025 C 39.351 56.652 39.862 57.163 40.49 57.163 C 41.117 57.163 41.628 56.652 41.628 56.025 L 41.628 53.748 C 41.628 53.122 41.117 52.611 40.49 52.611 Z"/>
  <path style="fill: rgb(141, 108, 159); fill-opacity: 0.23;" d="M 46.18 52.611 C 45.554 52.611 45.043 53.122 45.043 53.748 L 45.043 56.025 C 45.043 56.652 45.554 57.163 46.18 57.163 C 46.808 57.163 47.32 56.652 47.32 56.025 L 47.32 53.748 C 47.32 53.122 46.808 52.611 46.18 52.611 Z"/>
  <path style="fill: rgb(141, 108, 159); fill-opacity: 0.25;" d="M 28.518 52.611 C 27.89 52.611 27.379 53.122 27.379 53.748 L 27.379 56.025 C 27.379 56.652 27.89 57.163 28.518 57.163 C 29.144 57.163 29.656 56.652 29.656 56.025 L 29.656 53.748 C 29.656 53.122 29.144 52.611 28.518 52.611 Z"/>
  <g transform="matrix(2.152333, 0, 0, 1.946868, -6.218661, -34.113369)">
    <rect x="16.127" y="28.094" width="3.372" height="20.749" style="fill:#ed7899;"/>
    <rect x="19.222" y="33.123" width="3.372" height="16.137" style="fill: rgb(225, 222, 131);"/>
    <rect x="20.286" y="152.959" width="3.372" height="11.529" transform="matrix(1, 0, 0, 1.000001, -7.808397, -115.223586)" style="fill: rgb(225, 222, 131);"/>
    <rect x="12.477" y="30.817" width="3.372" height="11.529" style="fill: rgb(225, 222, 131);"/>
    <rect x="9.104" y="35.427" width="3.372" height="11.529" style="fill:#85cbf8;"/>
    <rect x="30.404" y="152.959" width="3.372" height="11.529" style="fill: rgb(133, 203, 248);" transform="matrix(1.000001, 0, 0, 1.000001, -7.80843, -115.223586)"/>
    <rect x="15.85" y="27.87" width="3.372" height="19.086" style="fill: rgb(237, 120, 153);"/>
    <rect x="16.912" y="152.959" width="3.372" height="11.529" style="fill:#85cbf8;" transform="matrix(1, 0, 0, 1.000001, -7.808409, -115.223586)"/>
    <rect x="16.912" y="152.959" width="3.372" height="11.529" style="fill:#85cbf8;" transform="matrix(1, 0, 0, 1.000001, -7.531342, -115.639007)"/>
    <rect x="6.856" y="42.343" width="3.372" height="6.916" style="fill:#fff8f8;"/>
    <circle cx="42" cy="25" r="2" style="fill:#fff8f8;" transform="matrix(0.358406, 0, 0, 0.463339, 3.973485, 12.669385)"/>
    <circle cx="36" cy="20" r="2" style="fill:#fff8f8;" transform="matrix(0.358406, 0, 0, 0.463339, 3.973485, 12.669385)"/>
    <circle cx="29" cy="29" r="2" style="fill:#fff8f8;" transform="matrix(0.358406, 0, 0, 0.463339, 3.973485, 12.669385)"/>
    <circle cx="23" cy="24" r="2" style="fill:#fff8f8;" transform="matrix(0.358406, 0, 0, 0.463339, 3.973485, 12.669385)"/>
    <circle cx="15" cy="31" r="2" style="fill:#fff8f8;" transform="matrix(0.358406, 0, 0, 0.463339, 3.973485, 12.669385)"/>
    <polygon points="8.812 18.693 9.256 19.74 10.066 20.314 9.256 20.889 8.812 21.936 8.368 20.889 7.558 20.314 8.368 19.74 8.812 18.693" style="fill:#fff8f8;"/>
    <polygon points="13.443 19.23 13.747 19.958 14.31 20.352 13.747 20.75 13.443 21.473 13.134 20.75 12.575 20.352 13.134 19.958 13.443 19.23" style="fill:#fff8f8;"/>
    <polygon points="7.514 19.82 7.721 20.316 8.105 20.584 7.721 20.853 7.514 21.349 7.302 20.853 6.922 20.584 7.302 20.316 7.514 19.82" style="fill:#fff8f8;"/>
    <rect x="15.85" y="26.683" width="3.511" height="22.55" style="fill: rgb(237, 120, 153);"/>
    <rect x="9.212" y="37.32" width="3.233" height="11.945" style="fill: rgb(133, 203, 248);"/>
  </g>
</svg>