<?xml version="1.0" encoding="utf-8"?>
<svg viewBox="0 0 500 500" width="500" height="500" xmlns="http://www.w3.org/2000/svg">
  <path style=" fill:#FAEFDE;" d="M 333.606 12.127 L 81.165 12.127 C 66.588 12.127 54.829 23.891 54.829 38.463 L 54.829 459.827 C 54.829 474.365 66.588 486.158 81.165 486.158 L 414.738 486.158 C 429.281 486.158 441.073 474.365 441.073 459.827 L 441.073 119.561 C 441.107 112.634 438.433 105.912 433.596 100.942 L 352.225 19.844 C 347.288 14.907 340.6 12.127 333.606 12.127 Z"/>
  <path style=" fill:#FFF7F0;" d="M 441.073 224.627 L 441.073 178.749 L 439.05 109.204 C 437.749 105.912 435.792 102.932 433.323 100.425 L 395.401 62.503 L 54.829 403.624 L 56.13 466.476 C 59.183 477.996 69.607 486.024 81.505 486.057 L 179.543 486.057 Z"/>
  <path style=" fill:#FFF7F0;" d="M 352.225 19.844 C 351.407 19.054 350.513 18.337 349.589 17.648 L 54.829 312.413 L 56.13 363.774 L 376.198 43.711 Z"/>
  <path style=" fill:#FFF7F0;" d="M 54.829 259.741 L 301.922 12.644 L 328.258 12.644 L 54.829 286.072 Z"/>
  <path style=" fill:#FFFFFF;" d="M 200.568 171.223 L 189.661 191.077 L 169.841 201.946 L 189.661 212.82 L 200.568 232.669 L 211.438 212.82 L 231.291 201.946 L 211.438 191.077 Z"/>
  <path style=" fill:#FFFFFF;" d="M 261.803 38.98 L 254.331 52.662 L 240.649 60.24 L 254.331 67.679 L 261.803 81.461 L 269.348 67.679 L 283.063 60.24 L 269.348 52.662 Z"/>
  <path style=" fill:#FFFFFF;" d="M 391.459 337.443 L 386.383 346.733 L 377.054 351.914 L 386.383 357.024 L 391.459 366.419 L 396.635 357.024 L 405.959 351.914 L 396.635 346.733 Z"/>
  <path style=" fill:#BBDEF9;" d="M 335.735 12.644 L 335.735 117.982 L 441.073 117.982 Z"/>
  <path style=" fill:#8D6C9F;" d="M 438.332 92.713 L 362.31 16.686 C 354.082 8.463 342.901 3.832 331.243 3.865 L 73.688 3.865 C 59.149 3.865 47.352 15.658 47.352 30.201 L 47.352 469.117 C 47.352 483.656 59.149 495.453 73.688 495.453 L 424.818 495.453 C 439.361 495.453 451.158 483.656 451.158 469.117 L 451.158 123.781 C 451.187 112.117 446.561 100.942 438.332 92.713 Z M 425.951 105.09 C 427.219 106.324 428.319 107.663 429.31 109.103 L 354.593 109.103 C 349.757 109.103 345.815 105.195 345.815 100.325 L 345.815 25.809 C 347.255 26.771 348.628 27.9 349.862 29.139 Z M 424.818 477.896 L 73.688 477.896 C 68.851 477.896 64.909 473.954 64.909 469.117 L 64.909 30.201 C 64.909 25.365 68.851 21.423 73.688 21.423 L 328.258 21.423 L 328.258 100.425 C 328.258 114.964 340.055 126.761 354.593 126.761 L 433.596 126.761 L 433.596 469.117 C 433.596 473.954 429.654 477.896 424.818 477.896 Z"/>
  <path style="fill: rgb(141, 108, 159); fill-opacity: 0.25;" d="M 310.7 170.654 C 310.7 175.486 314.647 179.433 319.479 179.433 L 354.593 179.433 C 359.43 179.433 363.372 175.486 363.372 170.654 C 363.372 165.817 359.43 161.875 354.593 161.875 L 319.479 161.875 C 314.647 161.875 310.7 165.817 310.7 170.654 Z"/>
  <path style="fill: rgb(141, 108, 159); fill-opacity: 0.25;" d="M 143.912 179.433 L 284.365 179.433 C 289.201 179.433 293.143 175.486 293.143 170.654 C 293.143 165.817 289.201 161.875 284.365 161.875 L 143.912 161.875 C 139.08 161.875 135.133 165.817 135.133 170.654 C 135.133 175.486 139.08 179.433 143.912 179.433 Z"/>
  <path style="fill: rgb(141, 108, 159); fill-opacity: 0.25;" d="M 143.912 283.489 L 319.479 283.489 C 324.316 283.489 328.258 279.547 328.258 274.71 C 328.258 269.874 324.316 265.932 319.479 265.932 L 143.912 265.932 C 139.08 265.932 135.133 269.874 135.133 274.71 C 135.133 279.547 139.08 283.489 143.912 283.489 Z"/>
  <path style="fill: rgb(141, 108, 159); fill-opacity: 0.25;" d="M 143.912 319.326 L 301.922 319.326 C 306.758 319.326 310.7 315.384 310.7 310.547 C 310.7 305.715 306.758 301.769 301.922 301.769 L 143.912 301.769 C 139.08 301.769 135.133 305.715 135.133 310.547 C 135.133 315.384 139.08 319.326 143.912 319.326 Z"/>
  <path style="fill: rgb(141, 108, 159); fill-opacity: 0.25;" d="M 143.912 214.547 L 354.593 214.547 C 359.43 214.547 363.372 210.605 363.372 205.768 C 363.372 200.932 359.43 196.99 354.593 196.99 L 143.912 196.99 C 139.08 196.99 135.133 200.932 135.133 205.768 C 135.133 210.605 139.08 214.547 143.912 214.547 Z"/>
  <path style="fill: rgb(141, 108, 159); fill-opacity: 0.25;" d="M 143.912 249.657 L 354.593 249.657 C 359.43 249.657 363.372 245.715 363.372 240.878 C 363.372 236.046 359.43 232.099 354.593 232.099 L 143.912 232.099 C 139.08 232.099 135.133 236.046 135.133 240.878 C 135.133 245.715 139.08 249.657 143.912 249.657 Z"/>
  <path style="fill: rgb(141, 108, 159); fill-opacity: 0.25;" d="M 181.294 407.667 C 176.462 407.667 172.515 411.614 172.515 416.445 L 172.515 434.003 C 172.515 438.839 176.462 442.781 181.294 442.781 C 186.13 442.781 190.072 438.839 190.072 434.003 L 190.072 416.445 C 190.072 411.614 186.13 407.667 181.294 407.667 Z"/>
  <path style="fill: rgb(141, 108, 159); fill-opacity: 0.23;" d="M 135.133 407.667 C 130.301 407.667 126.359 411.614 126.359 416.445 L 126.359 434.003 C 126.359 438.839 130.301 442.781 135.133 442.781 C 139.97 442.781 143.912 438.839 143.912 434.003 L 143.912 416.445 C 143.912 411.614 139.97 407.667 135.133 407.667 Z"/>
  <path style="fill: rgb(141, 108, 159); fill-opacity: 0.25;" d="M 275.586 407.667 C 270.754 407.667 266.812 411.614 266.812 416.445 L 266.812 434.003 C 266.812 438.839 270.754 442.781 275.586 442.781 C 280.423 442.781 284.365 438.839 284.365 434.003 L 284.365 416.445 C 284.365 411.614 280.423 407.667 275.586 407.667 Z"/>
  <path style="fill: rgb(141, 108, 159); fill-opacity: 0.23;" d="M 319.479 407.667 C 314.647 407.667 310.7 411.614 310.7 416.445 L 310.7 434.003 C 310.7 438.839 314.647 442.781 319.479 442.781 C 324.316 442.781 328.258 438.839 328.258 434.003 L 328.258 416.445 C 328.258 411.614 324.316 407.667 319.479 407.667 Z"/>
  <path style="fill: rgb(141, 108, 159); fill-opacity: 0.23;" d="M 363.372 407.667 C 358.535 407.667 354.593 411.614 354.593 416.445 L 354.593 434.003 C 354.593 438.839 358.535 442.781 363.372 442.781 C 368.209 442.781 372.151 438.839 372.151 434.003 L 372.151 416.445 C 372.151 411.614 368.209 407.667 363.372 407.667 Z"/>
  <path style="fill: rgb(141, 108, 159); fill-opacity: 0.25;" d="M 227.163 407.667 C 222.326 407.667 218.384 411.614 218.384 416.445 L 218.384 434.003 C 218.384 438.839 222.326 442.781 227.163 442.781 C 231.994 442.781 235.936 438.839 235.936 434.003 L 235.936 416.445 C 235.936 411.614 231.994 407.667 227.163 407.667 Z"/>
  <path style="paint-order: stroke; fill: rgb(113, 50, 147);" d="M 402.031 323.549 L 352.967 375.263 C 345.877 371.455 337.271 372.608 331.075 378.153 L 296.071 355.238 C 298.018 345.947 294.258 336.451 286.699 331.657 C 279.15 326.869 269.501 327.878 262.727 334.145 C 255.952 340.403 253.56 350.535 256.77 359.309 L 216.14 397.949 C 207.869 392.897 197.315 394.916 190.909 402.771 L 158.421 388.807 C 158.421 388.807 158.436 387.912 158.436 387.912 C 158.67 375.67 149.633 365.743 138.257 365.743 C 126.881 365.743 117.461 375.67 117.227 387.912 C 117.217 389.96 117.499 392.007 117.997 393.969 L 85.198 418.874 C 82.04 421.238 81.227 425.854 83.365 429.179 C 85.499 432.494 89.776 433.274 92.91 430.906 L 125.68 406.087 C 134.195 412.669 146.107 411.138 153.226 402.537 L 185.365 416.568 C 185.365 416.568 185.346 417.458 185.346 417.458 C 185.173 426.433 190.034 434.513 197.669 437.948 C 205.304 441.383 214.217 439.479 220.216 433.13 C 226.244 426.782 228.167 417.257 225.134 408.976 L 265.764 370.326 C 273.003 374.775 282.116 373.823 288.613 367.968 L 323.617 390.85 C 321.904 399.131 324.693 407.646 330.812 412.813 C 336.912 417.98 345.322 418.908 352.421 415.181 C 359.545 411.459 364.176 403.752 364.334 395.294 C 364.372 392.007 363.736 388.745 362.449 385.774 L 411.513 334.054 C 413.9 331.112 413.824 326.754 411.355 324.008 C 408.858 321.295 404.811 321.123 402.031 323.635 Z M 137.668 396.562 C 133.243 396.562 129.694 392.672 129.784 387.912 C 129.875 383.143 133.573 379.248 137.999 379.248 C 142.429 379.248 145.978 383.143 145.887 387.912 C 145.796 392.672 142.098 396.562 137.668 396.562 Z M 205.783 426.112 C 201.358 426.112 197.813 422.218 197.904 417.458 C 197.994 412.698 201.688 408.804 206.118 408.804 C 210.543 408.804 214.088 412.698 213.997 417.458 C 213.906 422.218 210.213 426.112 205.783 426.112 Z M 275.734 359.625 C 271.304 359.625 267.759 355.73 267.85 350.965 C 267.941 346.205 271.634 342.306 276.069 342.306 C 280.489 342.306 284.034 346.205 283.943 350.965 C 283.853 355.73 280.159 359.625 275.734 359.625 Z M 343.566 403.953 C 340.184 403.924 337.17 401.728 335.974 398.356 C 334.778 394.973 335.601 391.113 338.093 388.572 C 340.586 386.032 344.188 385.339 347.274 386.841 C 350.331 388.314 352.225 391.658 352.048 395.294 C 351.953 400.226 348.145 404.24 343.561 404.24 Z" transform="matrix(0.98791, 0.155029, -0.155029, 0.98791, 62.021645, -33.799652)"/>
  <g transform="matrix(4.593617, 0, 0, 4.593617, -1188.631104, -1225.396484)">
    <path style=" fill:#FFEB9B;" d="M 316.904 306.737 C 316.904 312.975 311.856 318.024 305.617 318.024 C 299.378 318.024 294.33 312.975 294.33 306.737 C 294.33 300.498 299.378 295.449 305.617 295.449 C 311.856 295.449 316.904 300.498 316.904 306.737 Z"/>
    <path style=" fill:#8D6C9F;" d="M 320.012 306.737 C 320.012 298.833 313.796 292.628 305.903 292.628 C 298 292.628 291.795 298.833 291.795 306.737 C 291.795 314.64 298 320.846 305.903 320.846 C 313.796 320.846 320.012 314.64 320.012 306.737 Z M 305.903 316.051 C 300.822 316.051 296.589 311.818 296.589 306.737 C 296.589 301.655 300.822 297.423 305.903 297.423 C 310.974 297.423 315.207 301.655 315.207 306.737 C 315.207 311.818 310.974 316.051 305.903 316.051 Z"/>
    <path style=" fill:#8D6C9F;" d="M 302.795 329.311 L 302.795 334.954 C 302.795 336.652 303.919 337.776 305.617 337.776 C 307.314 337.776 308.439 336.652 308.439 334.954 L 308.439 329.311 C 308.439 327.613 307.314 326.489 305.617 326.489 C 303.919 326.489 302.795 327.613 302.795 329.311 Z"/>
    <path style=" fill:#8D6C9F;" d="M 305.617 286.984 C 307.314 286.984 308.439 285.86 308.439 284.162 L 308.439 278.519 C 308.439 276.821 307.314 275.697 305.617 275.697 C 303.919 275.697 302.795 276.821 302.795 278.519 L 302.795 284.162 C 302.795 285.86 303.919 286.984 305.617 286.984 Z"/>
    <path style=" fill:#8D6C9F;" d="M 325.369 306.737 C 325.369 308.434 326.494 309.558 328.191 309.558 L 333.835 309.558 C 335.532 309.558 336.657 308.434 336.657 306.737 C 336.657 305.039 335.532 303.915 333.835 303.915 L 328.191 303.915 C 326.494 303.915 325.369 305.039 325.369 306.737 Z"/>
    <path style=" fill:#8D6C9F;" d="M 277.399 309.558 L 283.043 309.558 C 284.74 309.558 285.864 308.434 285.864 306.737 C 285.864 305.039 284.74 303.915 283.043 303.915 L 277.399 303.915 C 275.702 303.915 274.577 305.039 274.577 306.737 C 274.577 308.434 275.702 309.558 277.399 309.558 Z"/>
    <path style=" fill:#8D6C9F;" d="M 317.191 332.695 C 317.753 333.544 318.602 334.106 319.726 334.106 C 320.012 334.106 320.575 334.106 321.137 333.83 C 322.548 332.981 322.834 331.284 322.261 329.873 L 319.439 325.078 C 318.602 323.667 317.191 323.105 315.493 323.954 C 314.082 324.792 313.796 326.489 314.369 327.9 Z"/>
    <path style=" fill:#8D6C9F;" d="M 291.795 288.682 C 292.357 289.519 293.205 290.092 294.33 290.092 C 294.616 290.092 295.178 290.092 295.741 289.806 C 297.151 288.957 297.438 287.271 296.865 285.86 L 294.043 281.054 C 293.205 279.643 291.795 279.081 290.097 279.93 C 288.686 280.778 288.4 282.465 288.973 283.876 Z"/>
    <path style=" fill:#8D6C9F;" d="M 322.834 296.86 C 323.396 297.709 324.245 298.271 325.369 298.271 C 325.932 298.271 326.218 297.985 326.78 297.709 L 331.575 294.887 C 332.986 294.039 333.548 292.628 332.71 290.93 C 331.862 289.519 330.164 289.244 328.753 289.806 L 323.958 292.628 C 322.261 293.752 321.985 295.449 322.834 296.86 Z"/>
    <path style=" fill:#8D6C9F;" d="M 284.74 315.489 L 279.934 318.31 C 278.523 319.148 277.961 320.559 278.81 322.256 C 279.372 323.105 280.221 323.667 281.345 323.667 C 281.918 323.667 282.194 323.381 282.756 323.105 L 287.562 320.283 C 288.973 319.435 289.535 318.024 288.686 316.326 C 287.562 315.202 286.151 314.915 284.74 315.489 Z"/>
    <path style=" fill:#8D6C9F;" d="M 323.672 320.559 L 328.478 323.381 C 329.04 323.667 329.315 323.954 329.889 323.954 C 331.013 323.954 331.862 323.381 332.424 322.543 C 333.273 321.132 332.71 319.435 331.3 318.586 L 326.494 315.764 C 325.083 314.915 323.396 315.202 322.548 316.899 C 321.985 318.024 322.261 319.721 323.672 320.559 Z"/>
    <path style=" fill:#8D6C9F;" d="M 279.659 295.163 L 284.453 297.985 C 285.016 298.271 285.578 298.271 286.151 298.271 C 287.275 298.271 288.124 297.709 288.686 296.86 C 289.535 295.449 288.973 293.752 287.562 292.914 L 282.756 290.092 C 281.345 289.244 279.659 289.519 278.81 291.217 C 277.961 292.628 278.523 294.325 279.659 295.163 Z"/>
    <path style=" fill:#8D6C9F;" d="M 315.493 289.519 C 316.055 289.806 316.617 290.092 316.904 289.806 C 317.753 289.806 318.877 289.244 319.439 288.395 L 322.261 283.6 C 323.11 282.189 322.834 280.492 321.137 279.643 C 319.726 278.805 318.028 279.367 317.191 280.778 L 314.369 285.573 C 313.796 287.271 314.082 288.682 315.493 289.519 Z"/>
    <path style=" fill:#8D6C9F;" d="M 295.741 323.954 C 294.33 323.105 292.632 323.667 291.795 325.078 L 288.973 329.873 C 288.124 331.284 288.4 332.981 290.097 333.83 C 290.659 334.106 291.221 334.392 291.508 334.106 C 292.357 334.106 293.481 333.544 294.043 332.695 L 296.865 327.9 C 297.438 326.203 297.151 324.792 295.741 323.954 Z"/>
  </g>
</svg>