<?xml version="1.0" encoding="utf-8"?>
<svg viewBox="0 0 500 500" xmlns="http://www.w3.org/2000/svg">
  <linearGradient id="SVGID_1__48324" gradientUnits="userSpaceOnUse" x1="37" y1="13.5" x2="37" y2="18.7095" spreadMethod="reflect" gradientTransform="matrix(8.63625, 0, 0, 8.636265, -31.893306, -27.86965)">
    <stop offset="0" style="stop-color:#6DC7FF"/>
    <stop offset="1" style="stop-color:#E6ABFF"/>
  </linearGradient>
  <rect x="140.832" y="101.675" style="fill: url(#SVGID_1__48324);" width="293.634" height="17.273"/>
  <linearGradient id="SVGID_2__48324" gradientUnits="userSpaceOnUse" x1="37" y1="29.6667" x2="37" y2="34.3807" spreadMethod="reflect" gradientTransform="matrix(8.636238, 0, 0, 8.636224, -26.389056, -34.772763)">
    <stop offset="0" style="stop-color:#6DC7FF"/>
    <stop offset="1" style="stop-color:#E6ABFF"/>
  </linearGradient>
  <rect x="146.336" y="232.949" style="fill: url(#SVGID_2__48324);" width="293.634" height="17.273" transform="matrix(1, 0, 0, 0.999999, -5.503746, 6.904655)"/>
  <linearGradient id="SVGID_3__48324" gradientUnits="userSpaceOnUse" x1="37" y1="45.5" x2="37" y2="50.5443" spreadMethod="reflect" gradientTransform="matrix(8.63626, 0, 0, 8.636227, -31.893713, -27.867916)">
    <stop offset="0" style="stop-color:#6DC7FF"/>
    <stop offset="1" style="stop-color:#E6ABFF"/>
  </linearGradient>
  <rect x="140.831" y="378.033" style="fill: url(#SVGID_3__48324);" width="293.634" height="17.273"/>
  <linearGradient id="SVGID_4__48324" gradientUnits="userSpaceOnUse" x1="37" y1="9" x2="37" y2="55.8333" spreadMethod="reflect" gradientTransform="matrix(8.636267, 0, 0, 8.636264, -31.893772, -27.869695)">
    <stop offset="0" style="stop-color:#1A6DFF"/>
    <stop offset="1" style="stop-color:#C822FF"/>
  </linearGradient>
  <path style="fill: url(#SVGID_4__48324);" d="M 443.102 58.491 L 132.197 58.491 C 117.91 58.491 106.287 70.114 106.287 84.401 L 106.287 136.218 C 106.287 150.504 117.91 162.127 132.197 162.127 L 443.102 162.127 C 457.386 162.127 469.01 150.504 469.01 136.218 L 469.01 84.401 C 469.01 70.114 457.386 58.491 443.102 58.491 Z M 451.737 136.218 C 451.737 140.976 447.859 144.855 443.102 144.855 L 132.197 144.855 C 127.438 144.855 123.559 140.976 123.559 136.218 L 123.559 84.401 C 123.559 79.643 127.438 75.765 132.197 75.765 L 443.102 75.765 C 447.859 75.765 451.737 79.643 451.737 84.401 L 451.737 136.218 Z"/>
  <linearGradient id="SVGID_5__48324" gradientUnits="userSpaceOnUse" x1="9" y1="9" x2="9" y2="55.8333" spreadMethod="reflect" gradientTransform="matrix(8.636268, 0, 0, 8.636264, -31.893787, -27.869695)">
    <stop offset="0" style="stop-color:#1A6DFF"/>
    <stop offset="1" style="stop-color:#C822FF"/>
  </linearGradient>
  <polygon style="fill: url(#SVGID_5__48324);" points="54.47 58.491 19.923 58.491 19.923 75.765 37.197 75.765 37.197 144.855 19.923 144.855 19.923 162.127 71.74 162.127 71.74 144.855 54.47 144.855"/>
  <linearGradient id="SVGID_6__48324" gradientUnits="userSpaceOnUse" x1="37" y1="9" x2="37" y2="55.8333" spreadMethod="reflect" gradientTransform="matrix(8.636267, 0, 0, 8.636264, -31.893772, -27.869695)">
    <stop offset="0" style="stop-color:#1A6DFF"/>
    <stop offset="1" style="stop-color:#C822FF"/>
  </linearGradient>
  <path style="fill: url(#SVGID_6__48324);" d="M 443.102 196.674 L 132.197 196.674 C 117.91 196.674 106.287 208.296 106.287 222.581 L 106.287 274.397 C 106.287 288.682 117.91 300.308 132.197 300.308 L 443.102 300.308 C 457.386 300.308 469.01 288.682 469.01 274.397 L 469.01 222.581 C 469.01 208.296 457.386 196.674 443.102 196.674 Z M 451.737 274.397 C 451.737 279.158 447.859 283.036 443.102 283.036 L 132.197 283.036 C 127.438 283.036 123.559 279.158 123.559 274.397 L 123.559 222.581 C 123.559 217.823 127.438 213.943 132.197 213.943 L 443.102 213.943 C 447.859 213.943 451.737 217.823 451.737 222.581 L 451.737 274.397 Z"/>
  <linearGradient id="SVGID_7__48324" gradientUnits="userSpaceOnUse" x1="9" y1="9" x2="9" y2="55.8333" spreadMethod="reflect" gradientTransform="matrix(8.636268, 0, 0, 8.636264, -31.893787, -27.869695)">
    <stop offset="0" style="stop-color:#1A6DFF"/>
    <stop offset="1" style="stop-color:#C822FF"/>
  </linearGradient>
  <path style="fill: url(#SVGID_7__48324);" d="M 54.47 196.674 L 19.923 196.674 L 19.923 213.943 L 54.47 213.943 L 54.47 244.172 L 26.833 264.899 C 22.507 268.138 19.923 273.31 19.923 278.716 L 19.923 283.036 L 19.923 291.671 L 19.923 300.308 L 71.74 300.308 L 71.74 283.036 L 37.197 283.036 L 37.197 278.716 L 64.834 257.989 C 69.158 254.752 71.74 249.579 71.74 244.172 L 71.74 213.943 C 71.74 204.42 63.994 196.674 54.47 196.674 Z"/>
  <linearGradient id="SVGID_8__48324" gradientUnits="userSpaceOnUse" x1="37" y1="9" x2="37" y2="55.8333" spreadMethod="reflect" gradientTransform="matrix(8.636267, 0, 0, 8.636264, -31.893772, -27.869695)">
    <stop offset="0" style="stop-color:#1A6DFF"/>
    <stop offset="1" style="stop-color:#C822FF"/>
  </linearGradient>
  <path style="fill: url(#SVGID_8__48324);" d="M 443.102 334.852 L 132.197 334.852 C 117.91 334.852 106.287 346.477 106.287 360.762 L 106.287 412.578 C 106.287 426.863 117.91 438.49 132.197 438.49 L 443.102 438.49 C 457.386 438.49 469.01 426.863 469.01 412.578 L 469.01 360.762 C 469.01 346.477 457.386 334.852 443.102 334.852 Z M 451.737 412.578 C 451.737 417.339 447.859 421.217 443.102 421.217 L 132.197 421.217 C 127.438 421.217 123.559 417.339 123.559 412.578 L 123.559 360.762 C 123.559 356.002 127.438 352.126 132.197 352.126 L 443.102 352.126 C 447.859 352.126 451.737 356.002 451.737 360.762 L 451.737 412.578 Z"/>
  <linearGradient id="SVGID_9__48324" gradientUnits="userSpaceOnUse" x1="9" y1="9" x2="9" y2="55.8333" spreadMethod="reflect" gradientTransform="matrix(8.636268, 0, 0, 8.636264, -31.893787, -27.869695)">
    <stop offset="0" style="stop-color:#1A6DFF"/>
    <stop offset="1" style="stop-color:#C822FF"/>
  </linearGradient>
  <path style="fill: url(#SVGID_9__48324);" d="M 54.47 334.852 L 19.923 334.852 L 19.923 352.126 L 54.47 352.126 L 54.47 378.035 L 19.923 378.035 L 19.923 395.307 L 54.47 395.307 L 54.47 421.217 L 19.923 421.217 L 19.923 438.49 L 54.47 438.49 C 63.994 438.49 71.74 430.74 71.74 421.217 L 71.74 352.126 C 71.74 342.598 63.994 334.852 54.47 334.852 Z"/>
</svg>