<?xml version="1.0" encoding="utf-8"?>
<svg viewBox="0 0 500 500" xmlns="http://www.w3.org/2000/svg">
  <linearGradient id="SVGID_1__48324" gradientUnits="userSpaceOnUse" x1="37" y1="13.5" x2="37" y2="18.7095" spreadMethod="reflect" gradientTransform="matrix(5.883441, 0, 0, 5.88347, 45.600752, 99.957387)">
    <stop offset="0" style="stop-color:#6DC7FF"/>
    <stop offset="1" style="stop-color:#E6ABFF"/>
  </linearGradient>
  <g transform="matrix(2.637969, 0, 0, 2.637969, -61.697525, -734.117554)">
    <path style=" fill:#FAEFDE;" d="M 81.72 463.358 L 178.929 463.358 C 184.527 463.358 189.068 458.829 189.068 453.218 L 189.068 290.987 C 189.068 285.389 184.527 280.848 178.929 280.848 L 50.496 280.848 C 44.898 280.848 40.357 285.389 40.357 290.987 L 40.357 421.995 C 40.357 424.688 41.426 427.262 43.327 429.163 L 74.564 460.387 C 76.465 462.288 79.04 463.358 81.72 463.358 Z" transform="matrix(-1, 0, 0, -1, 229.425003, 744.206)"/>
    <path style=" fill:#FFF7F0;" d="M 40.859 284.624 L 40.357 316.6 L 187.339 463.556 L 189.57 386.018 L 88.176 284.624 Z" transform="matrix(-1, 0, 0, -1, 229.926991, 748.180023)"/>
    <path style=" fill:#FFF7F0;" d="M 54.523 300.625 L 170.136 416.239 L 189.57 415.394 L 55.025 280.848 Z" transform="matrix(-1, 0, 0, -1, 244.093026, 697.087059)"/>
    <path style=" fill:#FFF7F0;" d="M 84.294 291.185 L 179.43 386.322 L 189.57 386.322 L 84.294 281.046 Z" transform="matrix(-1, 0, 0, -1, 273.864012, 667.367959)"/>
    <path style=" fill:#FFFFFF;" d="M 72.464 331.744 L 76.649 324.1 L 84.294 319.915 L 76.649 315.73 L 72.464 308.085 L 68.279 315.73 L 60.635 319.915 L 68.279 324.1 Z" transform="matrix(-1, 0, 0, -1, 144.928998, 639.82895)"/>
    <path style=" fill:#FFFFFF;" d="M 123.44 317.683 L 126.305 312.415 L 131.612 309.497 L 126.305 306.632 L 123.44 301.325 L 120.522 306.632 L 115.254 309.497 L 120.522 312.415 Z" transform="matrix(-1, 0, 0, -1, 246.865997, 619.008035)"/>
    <path style=" fill:#FFFFFF;" d="M 169.964 417.256 L 171.931 413.679 L 175.549 411.685 L 171.931 409.718 L 169.964 406.1 L 168.01 409.718 L 164.393 411.685 L 168.01 413.679 Z" transform="matrix(-1, 0, 0, -1, 339.942031, 823.356045)"/>
    <path style=" fill:#BBDEF9;" d="M 189.068 321.604 L 189.068 281.046 L 148.511 281.046 Z" transform="matrix(-1, 0, 0, -1, 337.578967, 602.650019)"/>
    <path style=" fill:#8D6C9F;" d="M 182.309 466.936 L 83.146 466.936 C 78.657 466.95 74.353 465.167 71.184 461.999 L 41.914 432.729 C 38.746 429.56 36.964 425.256 36.977 420.768 L 36.977 287.806 C 36.977 282.208 41.518 277.667 47.116 277.667 L 182.309 277.667 C 187.907 277.667 192.448 282.208 192.448 287.806 L 192.448 456.797 C 192.448 462.395 187.907 466.936 182.309 466.936 Z M 75.977 457.206 C 76.452 457.682 76.98 458.117 77.535 458.487 L 77.535 429.759 C 77.535 427.897 76.016 426.379 74.155 426.379 L 45.426 426.379 C 45.796 426.933 46.232 427.461 46.707 427.937 Z M 185.689 287.806 C 185.689 285.945 184.17 284.426 182.309 284.426 L 47.116 284.426 C 45.255 284.426 43.736 285.945 43.736 287.806 L 43.736 419.619 L 74.155 419.619 C 79.753 419.619 84.294 424.161 84.294 429.759 L 84.294 460.177 L 182.309 460.177 C 184.17 460.177 185.689 458.659 185.689 456.797 Z" transform="matrix(-1, 0, 0, -1, 229.424937, 744.603059)"/>
    <path style="fill: rgb(141, 108, 159); fill-opacity: 0.25;" d="M 175.549 446.657 C 173.687 446.657 172.169 445.139 172.169 443.277 L 172.169 436.517 C 172.169 434.656 173.687 433.138 175.549 433.138 C 177.41 433.138 178.929 434.656 178.929 436.517 L 178.929 443.277 C 178.929 445.139 177.41 446.657 175.549 446.657 Z" transform="matrix(-1, 0, 0, -1, 351.098022, 879.795067)"/>
    <path style="fill: rgb(141, 108, 159); fill-opacity: 0.25;" d="M 158.65 446.657 C 156.788 446.657 155.27 445.139 155.27 443.277 L 155.27 436.517 C 155.27 434.656 156.788 433.138 158.65 433.138 C 160.511 433.138 162.03 434.656 162.03 436.517 L 162.03 443.277 C 162.03 445.139 160.511 446.657 158.65 446.657 Z" transform="matrix(-1, 0, 0, -1, 317.300004, 879.795067)"/>
    <path style="fill: rgb(141, 108, 159); fill-opacity: 0.25;" d="M 141.751 446.657 C 139.889 446.657 138.371 445.139 138.371 443.277 L 138.371 436.517 C 138.371 434.656 139.889 433.138 141.751 433.138 C 143.613 433.138 145.131 434.656 145.131 436.517 L 145.131 443.277 C 145.131 445.139 143.613 446.657 141.751 446.657 Z" transform="matrix(-1, 0, 0, -1, 283.502018, 879.795067)"/>
    <path style="fill: rgb(141, 108, 159); fill-opacity: 0.25;" d="M 124.852 446.657 C 122.991 446.657 121.472 445.139 121.472 443.277 L 121.472 436.517 C 121.472 434.656 122.991 433.138 124.852 433.138 C 126.714 433.138 128.232 434.656 128.232 436.517 L 128.232 443.277 C 128.232 445.139 126.714 446.657 124.852 446.657 Z" transform="matrix(-1, 0, 0, -1, 249.703999, 879.795067)"/>
    <path style="fill: rgb(141, 108, 159); fill-opacity: 0.25;" d="M 107.953 446.657 C 106.092 446.657 104.573 445.139 104.573 443.277 L 104.573 436.517 C 104.573 434.656 106.092 433.138 107.953 433.138 C 109.815 433.138 111.333 434.656 111.333 436.517 L 111.333 443.277 C 111.333 445.139 109.815 446.657 107.953 446.657 Z" transform="matrix(-1, 0, 0, -1, 215.906014, 879.795067)"/>
    <path style="fill: rgb(141, 108, 159); fill-opacity: 0.25;" d="M 91.054 446.657 C 89.193 446.657 87.674 445.139 87.674 443.277 L 87.674 436.517 C 87.674 434.656 89.193 433.138 91.054 433.138 C 92.916 433.138 94.434 434.656 94.434 436.517 L 94.434 443.277 C 94.434 445.139 92.916 446.657 91.054 446.657 Z" transform="matrix(-1, 0, 0, -1, 182.107995, 879.795067)"/>
    <path style="fill: rgb(141, 108, 159); fill-opacity: 0.25;" d="M 74.154 446.657 C 72.293 446.657 70.775 445.139 70.775 443.277 L 70.775 436.517 C 70.775 434.656 72.293 433.138 74.154 433.138 C 76.016 433.138 77.534 434.656 77.534 436.517 L 77.534 443.277 C 77.534 445.139 76.016 446.657 74.154 446.657 Z" transform="matrix(-1, 0, 0, -1, 148.308985, 879.795067)"/>
    <path style="fill: rgb(141, 108, 159); fill-opacity: 0.25;" d="M 57.255 446.657 C 55.394 446.657 53.876 445.139 53.876 443.277 L 53.876 436.517 C 53.876 434.656 55.394 433.138 57.255 433.138 C 59.117 433.138 60.635 434.656 60.635 436.517 L 60.635 443.277 C 60.635 445.139 59.117 446.657 57.255 446.657 Z" transform="matrix(-1, 0, 0, -1, 114.511, 879.795067)"/>
  </g>
  <rect x="163.269" y="188.209" style="fill: url(#SVGID_1__48324);" width="200.039" height="11.766"/>
  <linearGradient id="SVGID_2__48324" gradientUnits="userSpaceOnUse" x1="37" y1="29.6667" x2="37" y2="34.3807" spreadMethod="reflect" gradientTransform="matrix(5.883455, 0, 0, 5.88344, 45.600281, 99.95849)">
    <stop offset="0" style="stop-color:#6DC7FF"/>
    <stop offset="1" style="stop-color:#E6ABFF"/>
  </linearGradient>
  <rect x="163.269" y="282.344" style="fill: url(#SVGID_2__48324);" width="200.039" height="11.766"/>
  <linearGradient id="SVGID_3__48324" gradientUnits="userSpaceOnUse" x1="37" y1="45.5" x2="37" y2="50.5443" spreadMethod="reflect" gradientTransform="matrix(5.883501, 0, 0, 5.883456, 45.598627, 99.958301)">
    <stop offset="0" style="stop-color:#6DC7FF"/>
    <stop offset="1" style="stop-color:#E6ABFF"/>
  </linearGradient>
  <rect x="163.269" y="376.48" style="fill: url(#SVGID_3__48324);" width="200.039" height="11.766"/>
  <linearGradient id="SVGID_4__48324" gradientUnits="userSpaceOnUse" x1="37" y1="9" x2="37" y2="55.8333" spreadMethod="reflect" gradientTransform="matrix(5.88348, 0, 0, 5.88348, 45.599491, 99.957245)">
    <stop offset="0" style="stop-color:#1A6DFF"/>
    <stop offset="1" style="stop-color:#C822FF"/>
  </linearGradient>
  <path style="fill: url(#SVGID_4__48324);" d="M 369.192 158.791 L 157.387 158.791 C 147.653 158.791 139.736 166.709 139.736 176.443 L 139.736 211.743 C 139.736 221.476 147.653 229.393 157.387 229.393 L 369.192 229.393 C 378.922 229.393 386.842 221.476 386.842 211.743 L 386.842 176.443 C 386.842 166.709 378.922 158.791 369.192 158.791 Z M 375.074 211.743 C 375.074 214.984 372.432 217.627 369.192 217.627 L 157.387 217.627 C 154.145 217.627 151.502 214.984 151.502 211.743 L 151.502 176.443 C 151.502 173.2 154.145 170.559 157.387 170.559 L 369.192 170.559 C 372.432 170.559 375.074 173.2 375.074 176.443 L 375.074 211.743 Z"/>
  <linearGradient id="SVGID_5__48324" gradientUnits="userSpaceOnUse" x1="9" y1="9" x2="9" y2="55.8333" spreadMethod="reflect" gradientTransform="matrix(5.883481, 0, 0, 5.88348, 45.599466, 99.957245)">
    <stop offset="0" style="stop-color:#1A6DFF"/>
    <stop offset="1" style="stop-color:#C822FF"/>
  </linearGradient>
  <polygon style="fill: url(#SVGID_5__48324);" points="104.434 158.791 80.9 158.791 80.9 170.559 92.668 170.559 92.668 217.627 80.9 217.627 80.9 229.393 116.2 229.393 116.2 217.627 104.434 217.627"/>
  <linearGradient id="SVGID_6__48324" gradientUnits="userSpaceOnUse" x1="37" y1="9" x2="37" y2="55.8333" spreadMethod="reflect" gradientTransform="matrix(5.88348, 0, 0, 5.88348, 45.599491, 99.957245)">
    <stop offset="0" style="stop-color:#1A6DFF"/>
    <stop offset="1" style="stop-color:#C822FF"/>
  </linearGradient>
  <path style="fill: url(#SVGID_6__48324);" d="M 369.192 252.928 L 157.387 252.928 C 147.653 252.928 139.736 260.847 139.736 270.577 L 139.736 305.878 C 139.736 315.609 147.653 323.53 157.387 323.53 L 369.192 323.53 C 378.922 323.53 386.842 315.609 386.842 305.878 L 386.842 270.577 C 386.842 260.847 378.922 252.928 369.192 252.928 Z M 375.074 305.878 C 375.074 309.121 372.432 311.763 369.192 311.763 L 157.387 311.763 C 154.145 311.763 151.502 309.121 151.502 305.878 L 151.502 270.577 C 151.502 267.337 154.145 264.693 157.387 264.693 L 369.192 264.693 C 372.432 264.693 375.074 267.337 375.074 270.577 L 375.074 305.878 Z"/>
  <linearGradient id="SVGID_7__48324" gradientUnits="userSpaceOnUse" x1="9" y1="9" x2="9" y2="55.8333" spreadMethod="reflect" gradientTransform="matrix(5.883481, 0, 0, 5.88348, 45.599466, 99.957245)">
    <stop offset="0" style="stop-color:#1A6DFF"/>
    <stop offset="1" style="stop-color:#C822FF"/>
  </linearGradient>
  <path style="fill: url(#SVGID_7__48324);" d="M 104.434 252.928 L 80.9 252.928 L 80.9 264.693 L 104.434 264.693 L 104.434 285.287 L 85.606 299.406 C 82.659 301.613 80.9 305.137 80.9 308.82 L 80.9 311.763 L 80.9 317.646 L 80.9 323.53 L 116.2 323.53 L 116.2 311.763 L 92.668 311.763 L 92.668 308.82 L 111.496 294.7 C 114.442 292.494 116.2 288.97 116.2 285.287 L 116.2 264.693 C 116.2 258.205 110.924 252.928 104.434 252.928 Z"/>
  <linearGradient id="SVGID_8__48324" gradientUnits="userSpaceOnUse" x1="37" y1="9" x2="37" y2="55.8333" spreadMethod="reflect" gradientTransform="matrix(5.88348, 0, 0, 5.88348, 45.599491, 99.957245)">
    <stop offset="0" style="stop-color:#1A6DFF"/>
    <stop offset="1" style="stop-color:#C822FF"/>
  </linearGradient>
  <path style="fill: url(#SVGID_8__48324);" d="M 369.192 347.063 L 157.387 347.063 C 147.653 347.063 139.736 354.983 139.736 364.713 L 139.736 400.014 C 139.736 409.745 147.653 417.666 157.387 417.666 L 369.192 417.666 C 378.922 417.666 386.842 409.745 386.842 400.014 L 386.842 364.713 C 386.842 354.983 378.922 347.063 369.192 347.063 Z M 375.074 400.014 C 375.074 403.258 372.432 405.899 369.192 405.899 L 157.387 405.899 C 154.145 405.899 151.502 403.258 151.502 400.014 L 151.502 364.713 C 151.502 361.472 154.145 358.83 157.387 358.83 L 369.192 358.83 C 372.432 358.83 375.074 361.472 375.074 364.713 L 375.074 400.014 Z"/>
  <linearGradient id="SVGID_9__48324" gradientUnits="userSpaceOnUse" x1="9" y1="9" x2="9" y2="55.8333" spreadMethod="reflect" gradientTransform="matrix(5.883481, 0, 0, 5.88348, 45.599466, 99.957245)">
    <stop offset="0" style="stop-color:#1A6DFF"/>
    <stop offset="1" style="stop-color:#C822FF"/>
  </linearGradient>
  <path style="fill: url(#SVGID_9__48324);" d="M 104.434 347.063 L 80.9 347.063 L 80.9 358.83 L 104.434 358.83 L 104.434 376.482 L 80.9 376.482 L 80.9 388.247 L 104.434 388.247 L 104.434 405.899 L 80.9 405.899 L 80.9 417.666 L 104.434 417.666 C 110.924 417.666 116.2 412.386 116.2 405.899 L 116.2 358.83 C 116.2 352.34 110.924 347.063 104.434 347.063 Z"/>
</svg>