<?xml version="1.0" encoding="utf-8"?>
<svg viewBox="0 0 500 500" xmlns="http://www.w3.org/2000/svg">
  <path style=" fill:#FAEFDE;" d="M 200.984 478.228 L 456.596 478.228 C 471.316 478.228 483.257 466.319 483.257 451.565 L 483.257 24.976 C 483.257 10.256 471.316 -1.684 456.596 -1.684 L 118.88 -1.684 C 104.16 -1.684 92.22 10.256 92.22 24.976 L 92.22 369.463 C 92.22 376.545 95.03 383.313 100.029 388.312 L 182.167 470.416 C 187.166 475.414 193.937 478.228 200.984 478.228 Z" transform="matrix(-1, 0, 0, -1, 575.476997, 476.543993)"/>
  <path style=" fill:#FFF7F0;" d="M 93.539 8.245 L 92.219 92.326 L 478.71 478.748 L 484.577 274.861 L 217.96 8.245 Z" transform="matrix(-1, 0, 0, -1, 576.796042, 486.992963)"/>
  <path style=" fill:#FFF7F0;" d="M 129.469 50.319 L 433.475 354.328 L 484.577 352.106 L 130.789 -1.684 Z" transform="matrix(-1, 0, 0, -1, 614.046046, 352.643999)"/>
  <path style=" fill:#FFF7F0;" d="M 207.752 25.497 L 457.914 275.661 L 484.577 275.661 L 207.752 -1.164 Z" transform="matrix(-1, 0, 0, -1, 692.328988, 274.497015)"/>
  <path style=" fill:#FFFFFF;" d="M 176.645 132.147 L 187.65 112.047 L 207.752 101.043 L 187.65 90.038 L 176.645 69.936 L 165.641 90.038 L 145.541 101.043 L 165.641 112.047 Z" transform="matrix(-1, 0, 0, -1, 353.292996, 202.083008)"/>
  <path style=" fill:#FFFFFF;" d="M 310.687 95.174 L 318.221 81.321 L 332.176 73.649 L 318.221 66.115 L 310.687 52.16 L 303.014 66.115 L 289.162 73.649 L 303.014 81.321 Z" transform="matrix(-1, 0, 0, -1, 621.338003, 147.334006)"/>
  <path style=" fill:#FFFFFF;" d="M 433.023 357.002 L 438.195 347.596 L 447.708 342.353 L 438.195 337.181 L 433.023 327.667 L 427.885 337.181 L 418.374 342.353 L 427.885 347.596 Z" transform="matrix(-1, 0, 0, -1, 866.082062, 684.669014)"/>
  <path style=" fill:#BBDEF9;" d="M 483.257 105.484 L 483.257 -1.164 L 376.612 -1.164 Z" transform="matrix(-1, 0, 0, -1, 859.868994, 104.32001)"/>
  <path style=" fill:#8D6C9F;" d="M 465.484 487.636 L 204.734 487.636 C 192.93 487.673 181.612 482.985 173.279 474.654 L 96.314 397.688 C 87.983 389.356 83.298 378.038 83.332 366.237 L 83.332 16.612 C 83.332 1.892 95.272 -10.049 109.992 -10.049 L 465.484 -10.049 C 480.204 -10.049 492.145 1.892 492.145 16.612 L 492.145 460.976 C 492.145 475.696 480.204 487.636 465.484 487.636 Z M 185.883 462.051 C 187.132 463.303 188.52 464.447 189.98 465.419 L 189.98 389.879 C 189.98 384.983 185.985 380.991 181.092 380.991 L 105.549 380.991 C 106.521 382.448 107.668 383.836 108.917 385.088 Z M 474.372 16.612 C 474.372 11.718 470.378 7.724 465.484 7.724 L 109.992 7.724 C 105.099 7.724 101.105 11.718 101.105 16.612 L 101.105 363.216 L 181.092 363.216 C 195.812 363.216 207.752 375.159 207.752 389.879 L 207.752 469.863 L 465.484 469.863 C 470.378 469.863 474.372 465.872 474.372 460.976 Z" transform="matrix(-1, 0, 0, -1, 575.47681, 477.587196)"/>
  <path d="M 301.908 318.067 L 329.765 318.067 L 329.765 373.201 L 301.908 373.201 Z" style="fill: rgb(255, 255, 255);"/>
  <path d="M 232.272 249.146 L 260.126 249.146 L 260.126 304.282 L 232.272 304.282 Z" style="fill: rgb(255, 254, 249);"/>
  <path d="M 329.765 180.227 L 357.618 180.227 L 357.618 235.362 L 329.765 235.362 Z" style="fill: rgb(248, 247, 247);"/>
  <path style="fill: rgb(141, 108, 159);" d="M 418.506 131.983 L 158.38 131.983 C 151.846 131.983 146.557 138.148 146.557 145.767 L 146.557 407.663 C 146.557 415.281 151.846 421.448 158.38 421.448 L 418.506 421.448 C 425.041 421.448 430.329 415.281 430.329 407.663 L 430.329 145.767 C 430.329 138.148 425.041 131.983 418.506 131.983 Z M 158.38 407.663 L 158.38 145.767 L 418.506 145.767 L 418.506 407.663 Z"/>
  <path d="M 398.659 198.88 L 360.128 198.88 L 360.128 179.354 C 360.128 168.559 353.235 159.829 344.714 159.829 L 329.303 159.829 C 320.783 159.829 313.891 168.559 313.891 179.354 L 313.891 237.922 C 313.891 248.716 320.783 257.447 329.303 257.447 L 344.714 257.447 C 353.235 257.447 360.128 248.716 360.128 237.922 L 360.128 218.4 L 398.659 218.4 C 402.904 218.4 406.366 214.015 406.366 208.641 C 406.366 203.262 402.904 198.88 398.659 198.88 Z M 344.714 237.922 L 329.303 237.922 L 329.303 179.354 L 344.714 179.354 Z" style="fill: rgb(141, 108, 159);"/>
  <path style="fill: rgb(141, 108, 159);" d="M 176.561 214.688 L 301.908 214.688 C 305.745 214.688 308.873 210.451 308.873 205.262 C 308.873 200.071 305.745 195.839 301.908 195.839 L 176.561 195.839 C 172.725 195.839 169.596 200.071 169.596 205.262 C 169.596 210.451 172.725 214.688 176.561 214.688 Z"/>
  <path style="fill: rgb(141, 108, 159);" d="M 176.561 286.983 L 204.417 286.983 C 208.253 286.983 211.379 282.37 211.379 276.712 C 211.379 271.057 208.253 266.446 204.417 266.446 L 176.561 266.446 C 172.725 266.446 169.596 271.057 169.596 276.712 C 169.596 282.37 172.725 286.983 176.561 286.983 Z"/>
  <path style="fill: rgb(141, 108, 159);" d="M 399.058 265.098 L 260.237 265.098 L 260.237 245.236 C 260.237 234.259 253.7 225.372 245.625 225.372 L 231.011 225.372 C 222.935 225.372 216.397 234.259 216.397 245.236 L 216.397 304.816 C 216.397 315.797 222.935 324.679 231.011 324.679 L 245.625 324.679 C 253.7 324.679 260.237 315.797 260.237 304.816 L 260.237 284.956 L 399.058 284.956 C 403.084 284.956 406.366 280.497 406.366 275.022 C 406.366 269.556 403.084 265.098 399.058 265.098 Z M 245.625 304.816 L 231.011 304.816 L 231.011 245.236 L 245.625 245.236 Z"/>
  <path style="fill: rgb(141, 108, 159);" d="M 398.844 337.732 L 331.159 337.732 L 331.159 318.545 C 331.159 307.94 324.432 299.358 316.119 299.358 L 301.077 299.358 C 292.765 299.358 286.036 307.94 286.036 318.545 L 286.036 376.103 C 286.036 386.708 292.765 395.287 301.077 395.287 L 316.119 395.287 C 324.432 395.287 331.159 386.708 331.159 376.103 L 331.159 356.913 L 398.844 356.913 C 402.988 356.913 406.366 352.606 406.366 347.327 C 406.366 342.04 402.988 337.732 398.844 337.732 Z M 316.119 376.103 L 301.077 376.103 L 301.077 318.545 L 316.119 318.545 Z"/>
  <path style="fill: rgb(141, 108, 159);" d="M 274.056 338.743 L 176.561 338.743 C 172.725 338.743 169.596 343.356 169.596 349.013 C 169.596 354.667 172.725 359.277 176.561 359.277 L 274.056 359.277 C 277.889 359.277 281.017 354.667 281.017 349.013 C 281.017 343.356 277.889 338.743 274.056 338.743 Z"/>
</svg>