<?xml version="1.0" encoding="utf-8"?>
<svg viewBox="0 0 500 500" xmlns="http://www.w3.org/2000/svg">
  <g style="" transform="matrix(1.154883, 0, 0, 1.154883, 0.599667, -23.354492)">
    <path style="fill: rgb(251, 6, 47);" d="M 58.783 173.637 L 97.261 135.133 C 106.097 126.3 106.097 111.989 97.261 103.149 L 76.554 82.432 L 6.108 152.938 L 26.815 173.637 C 35.626 182.47 49.948 182.47 58.783 173.637 Z" transform="matrix(-1, 0, 0, -1, 109.996, 262.693752)"/>
    <path style="fill: rgb(194, 205, 231);" d="M 64.525 234.041 L 154.953 143.577 L 117.552 106.131 L 27.097 196.63 Z" transform="matrix(-1, 0, 0, -1, 182.050009, 340.172001)"/>
    <path style="fill: rgb(250, 255, 90);" d="M 234.075 386.701 L 307.546 313.211 L 145.764 151.349 L 72.311 224.839 Z" transform="matrix(-1, 0, 0, -1, 379.856986, 538.04997)"/>
    <path style="fill: rgb(252, 240, 0);" d="M 234.075 386.701 L 259.51 361.273 L 97.728 199.411 L 72.311 224.839 Z" transform="matrix(-1, 0, 0, -1, 331.820969, 586.11197)"/>
    <path style="fill: rgb(250, 239, 222);" d="M 231.271 327.347 L 236.924 389.542 L 276.485 383.895 L 282.138 366.927 L 298.648 358.45 L 310.395 316.035 L 242.577 316.035 Z" transform="matrix(-1, 0, 0, -1, 541.665997, 705.577013)"/>
    <path style="fill: rgb(248, 242, 63);" d="M 282.112 338.632 L 307.546 313.211 L 145.764 151.349 L 120.356 176.796 Z" transform="matrix(-1, 0, 0, -1, 427.90198, 489.980985)"/>
    <path style="fill: rgb(141, 108, 159);" d="M 320.06 329.006 C 320.06 334.987 317.696 340.759 313.455 344.993 L 265.463 392.948 C 256.521 401.515 242.41 401.515 233.468 392.948 L 209.339 368.983 C 207.222 371.101 204.348 372.292 201.349 372.292 C 198.342 372.292 195.475 371.101 193.36 368.983 L 161.365 336.974 C 159.221 334.856 158.031 331.961 158.031 328.962 C 158.031 325.954 159.221 323.086 161.365 320.959 L 161.63 320.676 L 8.817 167.85 C 5.968 164.999 4.222 161.224 3.886 157.201 L 0.226 109.713 L -3.724 81.885 C -3.971 80.269 -3.459 78.612 -2.383 77.377 C -1.3 76.142 0.27 75.434 1.92 75.452 L 2.476 75.452 L 30.291 79.626 L 78.044 83.137 C 82.11 83.429 85.901 85.175 88.795 88.043 L 241.837 240.721 C 246.211 236.52 253.116 236.52 257.491 240.721 L 289.477 272.723 C 291.601 274.841 292.793 277.734 292.793 280.742 C 292.793 283.743 291.601 286.618 289.477 288.736 L 313.455 312.7 C 317.758 317.032 320.149 322.91 320.06 329.006 Z M 44.868 148.058 L 48.157 131.754 C 48.598 129.548 50.335 127.802 52.567 127.359 L 68.837 124.068 L 74.887 93.875 L 31.816 90.938 L 11.523 111.239 L 14.972 154.217 Z M 85.003 100.254 L 79.35 127.254 L 173.57 220.992 C 175.493 223.241 175.36 226.576 173.261 228.677 C 171.188 230.759 167.839 230.891 165.606 228.968 L 71.773 135.204 L 58.441 137.877 L 55.768 151.218 L 133.551 229.03 C 135.472 231.262 135.341 234.597 133.259 236.698 C 131.16 238.796 127.826 238.903 125.578 236.989 L 47.822 159.194 L 21.418 164.443 L 169.778 312.7 L 233.759 248.759 Z M 273.425 273.014 C 271.221 275.193 267.667 275.193 265.463 273.014 L 257.491 265.038 C 255.303 262.822 255.303 259.266 257.491 257.061 L 249.474 249.262 L 169.778 329.006 L 177.751 336.974 C 179.955 334.767 183.508 334.767 185.714 336.974 L 193.685 344.949 C 195.873 347.138 195.873 350.72 193.685 352.899 L 201.658 360.875 L 205.67 356.879 L 277.448 285.005 L 281.469 280.982 Z M 305.42 321.03 L 281.469 297.04 L 217.487 361.008 L 241.501 384.972 C 243.627 387.097 246.493 388.289 249.5 388.289 C 252.498 388.289 255.374 387.097 257.491 384.972 L 305.42 336.974 C 307.537 334.856 308.727 331.961 308.727 328.962 C 308.727 325.954 307.537 323.086 305.42 320.959 Z" transform="matrix(-1, 0, 0, -1, 316.277258, 474.824963)"/>
    <path style="fill: rgb(141, 108, 159);" d="M 111.547 158.436 L 103.575 150.459 C 101.873 149.117 101.106 146.903 101.591 144.785 C 102.102 142.667 103.751 141.009 105.876 140.542 C 107.993 140.057 110.197 140.851 111.547 142.554 L 119.52 150.53 C 121.442 152.78 121.301 156.115 119.211 158.197 C 117.129 160.289 113.778 160.42 111.547 158.505 Z" transform="matrix(-1, 0, 0, -1, 222.322427, 300.259573)"/>
    <path style="fill: rgb(141, 108, 159);" d="M 91.388 178.403 L 83.415 170.426 C 81.801 169.058 81.096 166.871 81.607 164.815 C 82.092 162.741 83.706 161.126 85.779 160.641 C 87.834 160.138 90.02 160.843 91.388 162.45 L 99.35 170.426 C 101.273 172.685 101.14 176.02 99.069 178.111 C 96.97 180.194 93.636 180.325 91.388 178.403 Z" transform="matrix(-1, 0, 0, -1, 182.154247, 340.244097)"/>
    <path style="fill: rgb(141, 108, 159);" d="M 71.21 198.457 L 63.351 190.438 C 61.739 189.052 61.032 186.882 61.534 184.835 C 62.019 182.753 63.634 181.146 65.715 180.652 C 67.761 180.149 69.931 180.855 71.315 182.47 L 79.288 190.438 C 81.209 192.669 81.078 196.031 78.979 198.105 C 76.906 200.204 73.572 200.337 71.315 198.412 Z" transform="matrix(-1, 0, 0, -1, 142.020353, 380.264224)"/>
    <path style="fill: rgb(141, 108, 159);" d="M 167.458 230.301 L 151.408 214.374 C 149.794 212.98 149.089 210.819 149.592 208.736 C 150.076 206.68 151.691 205.074 153.772 204.562 C 155.818 204.077 157.987 204.784 159.372 206.398 L 175.36 222.387 C 177.283 224.645 177.168 227.98 175.069 230.081 C 172.969 232.152 169.636 232.286 167.387 230.361 Z" transform="matrix(-1, 0, 0, -1, 326.158702, 436.134985)"/>
  </g>
</svg>