<?xml version="1.0" encoding="utf-8"?>
<svg viewBox="0 0 500 500" width="500" height="500" xmlns="http://www.w3.org/2000/svg">
  <g transform="matrix(3.933625, 0, 0, 3.933625, -113.628906, -1293.896118)">
    <g transform="matrix(0.66266, 0, 0, 0.66266, 15.720565, 145.611603)">
      <path style=" fill:#FAEFDE;" d="M 81.72 463.358 L 178.929 463.358 C 184.527 463.358 189.068 458.829 189.068 453.218 L 189.068 290.987 C 189.068 285.389 184.527 280.848 178.929 280.848 L 50.496 280.848 C 44.898 280.848 40.357 285.389 40.357 290.987 L 40.357 421.995 C 40.357 424.688 41.426 427.262 43.327 429.163 L 74.564 460.387 C 76.465 462.288 79.04 463.358 81.72 463.358 Z" transform="matrix(-1, 0, 0, -1, 229.425003, 744.206)"/>
      <path style=" fill:#FFF7F0;" d="M 40.859 284.624 L 40.357 316.6 L 187.339 463.556 L 189.57 386.018 L 88.176 284.624 Z" transform="matrix(-1, 0, 0, -1, 229.926991, 748.180023)"/>
      <path style=" fill:#FFF7F0;" d="M 54.523 300.625 L 170.136 416.239 L 189.57 415.394 L 55.025 280.848 Z" transform="matrix(-1, 0, 0, -1, 244.093026, 697.087059)"/>
      <path style=" fill:#FFF7F0;" d="M 84.294 291.185 L 179.43 386.322 L 189.57 386.322 L 84.294 281.046 Z" transform="matrix(-1, 0, 0, -1, 273.864012, 667.367959)"/>
      <path style=" fill:#FFFFFF;" d="M 72.464 331.744 L 76.649 324.1 L 84.294 319.915 L 76.649 315.73 L 72.464 308.085 L 68.279 315.73 L 60.635 319.915 L 68.279 324.1 Z" transform="matrix(-1, 0, 0, -1, 144.928998, 639.82895)"/>
      <path style=" fill:#FFFFFF;" d="M 123.44 317.683 L 126.305 312.415 L 131.612 309.497 L 126.305 306.632 L 123.44 301.325 L 120.522 306.632 L 115.254 309.497 L 120.522 312.415 Z" transform="matrix(-1, 0, 0, -1, 246.865997, 619.008035)"/>
      <path style=" fill:#FFFFFF;" d="M 169.964 417.256 L 171.931 413.679 L 175.549 411.685 L 171.931 409.718 L 169.964 406.1 L 168.01 409.718 L 164.393 411.685 L 168.01 413.679 Z" transform="matrix(-1, 0, 0, -1, 339.942031, 823.356045)"/>
      <path style=" fill:#BBDEF9;" d="M 189.068 321.604 L 189.068 281.046 L 148.511 281.046 Z" transform="matrix(-1, 0, 0, -1, 337.578967, 602.650019)"/>
      <path style=" fill:#8D6C9F;" d="M 182.309 466.936 L 83.146 466.936 C 78.657 466.95 74.353 465.167 71.184 461.999 L 41.914 432.729 C 38.746 429.56 36.964 425.256 36.977 420.768 L 36.977 287.806 C 36.977 282.208 41.518 277.667 47.116 277.667 L 182.309 277.667 C 187.907 277.667 192.448 282.208 192.448 287.806 L 192.448 456.797 C 192.448 462.395 187.907 466.936 182.309 466.936 Z M 75.977 457.206 C 76.452 457.682 76.98 458.117 77.535 458.487 L 77.535 429.759 C 77.535 427.897 76.016 426.379 74.155 426.379 L 45.426 426.379 C 45.796 426.933 46.232 427.461 46.707 427.937 Z M 185.689 287.806 C 185.689 285.945 184.17 284.426 182.309 284.426 L 47.116 284.426 C 45.255 284.426 43.736 285.945 43.736 287.806 L 43.736 419.619 L 74.155 419.619 C 79.753 419.619 84.294 424.161 84.294 429.759 L 84.294 460.177 L 182.309 460.177 C 184.17 460.177 185.689 458.659 185.689 456.797 Z" transform="matrix(-1, 0, 0, -1, 229.424937, 744.603059)"/>
      <path style="fill: rgb(141, 108, 159); fill-opacity: 0.25;" d="M 175.549 446.657 C 173.687 446.657 172.169 445.139 172.169 443.277 L 172.169 436.517 C 172.169 434.656 173.687 433.138 175.549 433.138 C 177.41 433.138 178.929 434.656 178.929 436.517 L 178.929 443.277 C 178.929 445.139 177.41 446.657 175.549 446.657 Z" transform="matrix(-1, 0, 0, -1, 351.098022, 879.795067)"/>
      <path style="fill: rgb(141, 108, 159); fill-opacity: 0.25;" d="M 158.65 446.657 C 156.788 446.657 155.27 445.139 155.27 443.277 L 155.27 436.517 C 155.27 434.656 156.788 433.138 158.65 433.138 C 160.511 433.138 162.03 434.656 162.03 436.517 L 162.03 443.277 C 162.03 445.139 160.511 446.657 158.65 446.657 Z" transform="matrix(-1, 0, 0, -1, 317.300004, 879.795067)"/>
      <path style="fill: rgb(141, 108, 159); fill-opacity: 0.25;" d="M 141.751 446.657 C 139.889 446.657 138.371 445.139 138.371 443.277 L 138.371 436.517 C 138.371 434.656 139.889 433.138 141.751 433.138 C 143.613 433.138 145.131 434.656 145.131 436.517 L 145.131 443.277 C 145.131 445.139 143.613 446.657 141.751 446.657 Z" transform="matrix(-1, 0, 0, -1, 283.502018, 879.795067)"/>
      <path style="fill: rgb(141, 108, 159); fill-opacity: 0.25;" d="M 124.852 446.657 C 122.991 446.657 121.472 445.139 121.472 443.277 L 121.472 436.517 C 121.472 434.656 122.991 433.138 124.852 433.138 C 126.714 433.138 128.232 434.656 128.232 436.517 L 128.232 443.277 C 128.232 445.139 126.714 446.657 124.852 446.657 Z" transform="matrix(-1, 0, 0, -1, 249.703999, 879.795067)"/>
      <path style="fill: rgb(141, 108, 159); fill-opacity: 0.25;" d="M 107.953 446.657 C 106.092 446.657 104.573 445.139 104.573 443.277 L 104.573 436.517 C 104.573 434.656 106.092 433.138 107.953 433.138 C 109.815 433.138 111.333 434.656 111.333 436.517 L 111.333 443.277 C 111.333 445.139 109.815 446.657 107.953 446.657 Z" transform="matrix(-1, 0, 0, -1, 215.906014, 879.795067)"/>
      <path style="fill: rgb(141, 108, 159); fill-opacity: 0.25;" d="M 91.054 446.657 C 89.193 446.657 87.674 445.139 87.674 443.277 L 87.674 436.517 C 87.674 434.656 89.193 433.138 91.054 433.138 C 92.916 433.138 94.434 434.656 94.434 436.517 L 94.434 443.277 C 94.434 445.139 92.916 446.657 91.054 446.657 Z" transform="matrix(-1, 0, 0, -1, 182.107995, 879.795067)"/>
      <path style="fill: rgb(141, 108, 159); fill-opacity: 0.25;" d="M 74.154 446.657 C 72.293 446.657 70.775 445.139 70.775 443.277 L 70.775 436.517 C 70.775 434.656 72.293 433.138 74.154 433.138 C 76.016 433.138 77.534 434.656 77.534 436.517 L 77.534 443.277 C 77.534 445.139 76.016 446.657 74.154 446.657 Z" transform="matrix(-1, 0, 0, -1, 148.308985, 879.795067)"/>
      <path style="fill: rgb(141, 108, 159); fill-opacity: 0.25;" d="M 57.255 446.657 C 55.394 446.657 53.876 445.139 53.876 443.277 L 53.876 436.517 C 53.876 434.656 55.394 433.138 57.255 433.138 C 59.117 433.138 60.635 434.656 60.635 436.517 L 60.635 443.277 C 60.635 445.139 59.117 446.657 57.255 446.657 Z" transform="matrix(-1, 0, 0, -1, 114.511, 879.795067)"/>
    </g>
    <g transform="matrix(0.58347, 0, 0, 0.774842, -84.090279, 272.604126)">
      <g id="g-2" transform="matrix(1.936563, 0, 0, 1.317212, 229.696625, 105.199089)">
        <path style=" fill:#C5E4FA;" d="M 53 27 L 27 27 L 27 5 L 37 5 L 40 9 L 53 9 Z "/>
        <path style=" fill:#E3F2FF;" d="M 30 5 L 37 5 L 41 10 L 27 10 L 27 8 C 27 6.34375 28.34375 5 30 5 Z "/>
        <path style=" fill:#ACB7D0;" d="M 53 11 L 57 11 L 57 27 L 53 27 Z "/>
        <path style=" fill:#AFD7EF;" d="M 27 22 L 53 22 L 53 27 L 27 27 Z "/>
        <path style=" fill:#C5E4FA;" d="M 53 57 L 27 57 L 27 35 L 37 35 L 40 39 L 53 39 Z "/>
        <path style=" fill:#E3F2FF;" d="M 30 35 L 37 35 L 41 40 L 27 40 L 27 38 C 27 36.34375 28.34375 35 30 35 Z "/>
        <path style=" fill:#ACB7D0;" d="M 53 41 L 57 41 L 57 57 L 53 57 Z "/>
        <path style=" fill:#AFD7EF;" d="M 27 52 L 53 52 L 53 57 L 27 57 Z "/>
        <path style=" fill:#8D6C9F;" d="M 30 54 C 30.550781 54 31 53.550781 31 53 L 31 51 C 31 50.449219 30.550781 50 30 50 C 29.449219 50 29 50.449219 29 51 L 29 53 C 29 53.550781 29.449219 54 30 54 Z "/>
        <path style=" fill:#8D6C9F;" d="M 35 54 C 35.550781 54 36 53.550781 36 53 L 36 51 C 36 50.449219 35.550781 50 35 50 C 34.449219 50 34 50.449219 34 51 L 34 53 C 34 53.550781 34.449219 54 35 54 Z "/>
        <path style=" fill:#8D6C9F;" d="M 40 54 C 40.550781 54 41 53.550781 41 53 L 41 51 C 41 50.449219 40.550781 50 40 50 C 39.449219 50 39 50.449219 39 51 L 39 53 C 39 53.550781 39.449219 54 40 54 Z "/>
        <path style=" fill:#8D6C9F;" d="M 45 54 C 45.550781 54 46 53.550781 46 53 L 46 51 C 46 50.449219 45.550781 50 45 50 C 44.449219 50 44 50.449219 44 51 L 44 53 C 44 53.550781 44.449219 54 45 54 Z "/>
        <path style=" fill:#8D6C9F;" d="M 50 54 C 50.550781 54 51 53.550781 51 53 L 51 51 C 51 50.449219 50.550781 50 50 50 C 49.449219 50 49 50.449219 49 51 L 49 53 C 49 53.550781 49.449219 54 50 54 Z "/>
        <path style=" fill:#8D6C9F;" d="M 30 24 C 30.550781 24 31 23.550781 31 23 L 31 21 C 31 20.449219 30.550781 20 30 20 C 29.449219 20 29 20.449219 29 21 L 29 23 C 29 23.550781 29.449219 24 30 24 Z "/>
        <path style=" fill:#8D6C9F;" d="M 35 24 C 35.550781 24 36 23.550781 36 23 L 36 21 C 36 20.449219 35.550781 20 35 20 C 34.449219 20 34 20.449219 34 21 L 34 23 C 34 23.550781 34.449219 24 35 24 Z "/>
        <path style=" fill:#8D6C9F;" d="M 40 24 C 40.550781 24 41 23.550781 41 23 L 41 21 C 41 20.449219 40.550781 20 40 20 C 39.449219 20 39 20.449219 39 21 L 39 23 C 39 23.550781 39.449219 24 40 24 Z "/>
        <path style=" fill:#8D6C9F;" d="M 45 24 C 45.550781 24 46 23.550781 46 23 L 46 21 C 46 20.449219 45.550781 20 45 20 C 44.449219 20 44 20.449219 44 21 L 44 23 C 44 23.550781 44.449219 24 45 24 Z "/>
        <path style=" fill:#8D6C9F;" d="M 50 24 C 50.550781 24 51 23.550781 51 23 L 51 21 C 51 20.449219 50.550781 20 50 20 C 49.449219 20 49 20.449219 49 21 L 49 23 C 49 23.550781 49.449219 24 50 24 Z "/>
        <path style=" fill:#8D6C9F;" d="M 28.5 28 L 55 28 C 56.65625 28 58 26.65625 58 25 L 58 12 C 58 10.894531 57.105469 10 56 10 L 54 10 C 54 8.894531 53.105469 8 52 8 L 40.53125 8 C 40.214844 8 39.917969 7.851563 39.730469 7.601563 L 37.898438 5.191406 C 37.332031 4.441406 36.449219 4 35.511719 4 L 28 4 C 26.894531 4 26 4.894531 26 6 L 26 16 L 8 16 L 8 9 C 8 8.449219 7.550781 8 7 8 C 6.449219 8 6 8.449219 6 9 L 6 45 C 6 46.65625 7.34375 48 9 48 L 26 48 L 26 55.5 C 26 56.878906 27.121094 58 28.5 58 L 55 58 C 56.65625 58 58 56.65625 58 55 L 58 42 C 58 40.894531 57.105469 40 56 40 L 54 40 C 54 38.894531 53.105469 38 52 38 L 40.53125 38 C 40.214844 38 39.917969 37.851563 39.730469 37.601563 L 37.898438 35.191406 C 37.332031 34.441406 36.449219 34 35.511719 34 L 28 34 C 26.894531 34 26 34.894531 26 36 L 26 46 L 9 46 C 8.449219 46 8 45.550781 8 45 L 8 18 L 26 18 L 26 25.5 C 26 26.878906 27.121094 28 28.5 28 Z M 56 42 L 56 55 C 56 55.550781 55.550781 56 55 56 C 54.449219 56 54 55.550781 54 55 L 54 42 Z M 28 36 L 35.511719 36 C 35.824219 36 36.121094 36.148438 36.308594 36.398438 L 38.140625 38.820313 C 38.707031 39.566406 39.59375 40 40.53125 40 L 52 40 L 52 55 C 52 55.339844 52.058594 55.679688 52.171875 56 L 28.5 56 C 28.222656 56 28 55.777344 28 55.5 Z M 56 12 L 56 25 C 56 25.550781 55.550781 26 55 26 C 54.449219 26 54 25.550781 54 25 L 54 12 Z M 28 6 L 35.511719 6 C 35.824219 6 36.121094 6.148438 36.308594 6.398438 L 38.140625 8.820313 C 38.707031 9.566406 39.59375 10 40.53125 10 L 52 10 L 52 25 C 52 25.339844 52.058594 25.679688 52.171875 26 L 28.5 26 C 28.222656 26 28 25.777344 28 25.5 Z "/>
        <path style=" fill:#8D6C9F;" d="M 7 6 C 7.550781 6 8 5.550781 8 5 L 8 1 C 8 0.449219 7.550781 0 7 0 C 6.449219 0 6 0.449219 6 1 L 6 5 C 6 5.550781 6.449219 6 7 6 Z "/>
      </g>
      <g id="g-3" transform="matrix(1.936563, 0, 0, 1.317212, 229.61438, 144.160126)">
        <path style=" fill:#C5E4FA;" d="M 53 27 L 27 27 L 27 5 L 37 5 L 40 9 L 53 9 Z "/>
        <path style=" fill:#E3F2FF;" d="M 30 5 L 37 5 L 41 10 L 27 10 L 27 8 C 27 6.34375 28.34375 5 30 5 Z "/>
        <path style=" fill:#ACB7D0;" d="M 53 11 L 57 11 L 57 27 L 53 27 Z "/>
        <path style=" fill:#AFD7EF;" d="M 27 22 L 53 22 L 53 27 L 27 27 Z "/>
        <path style=" fill:#C5E4FA;" d="M 53 57 L 27 57 L 27 35 L 37 35 L 40 39 L 53 39 Z "/>
        <path style=" fill:#E3F2FF;" d="M 30 35 L 37 35 L 41 40 L 27 40 L 27 38 C 27 36.34375 28.34375 35 30 35 Z "/>
        <path style=" fill:#ACB7D0;" d="M 53 41 L 57 41 L 57 57 L 53 57 Z "/>
        <path style=" fill:#AFD7EF;" d="M 27 52 L 53 52 L 53 57 L 27 57 Z "/>
        <path style=" fill:#8D6C9F;" d="M 30 54 C 30.550781 54 31 53.550781 31 53 L 31 51 C 31 50.449219 30.550781 50 30 50 C 29.449219 50 29 50.449219 29 51 L 29 53 C 29 53.550781 29.449219 54 30 54 Z "/>
        <path style=" fill:#8D6C9F;" d="M 35 54 C 35.550781 54 36 53.550781 36 53 L 36 51 C 36 50.449219 35.550781 50 35 50 C 34.449219 50 34 50.449219 34 51 L 34 53 C 34 53.550781 34.449219 54 35 54 Z "/>
        <path style=" fill:#8D6C9F;" d="M 40 54 C 40.550781 54 41 53.550781 41 53 L 41 51 C 41 50.449219 40.550781 50 40 50 C 39.449219 50 39 50.449219 39 51 L 39 53 C 39 53.550781 39.449219 54 40 54 Z "/>
        <path style=" fill:#8D6C9F;" d="M 45 54 C 45.550781 54 46 53.550781 46 53 L 46 51 C 46 50.449219 45.550781 50 45 50 C 44.449219 50 44 50.449219 44 51 L 44 53 C 44 53.550781 44.449219 54 45 54 Z "/>
        <path style=" fill:#8D6C9F;" d="M 50 54 C 50.550781 54 51 53.550781 51 53 L 51 51 C 51 50.449219 50.550781 50 50 50 C 49.449219 50 49 50.449219 49 51 L 49 53 C 49 53.550781 49.449219 54 50 54 Z "/>
        <path style=" fill:#8D6C9F;" d="M 30 24 C 30.550781 24 31 23.550781 31 23 L 31 21 C 31 20.449219 30.550781 20 30 20 C 29.449219 20 29 20.449219 29 21 L 29 23 C 29 23.550781 29.449219 24 30 24 Z "/>
        <path style=" fill:#8D6C9F;" d="M 35 24 C 35.550781 24 36 23.550781 36 23 L 36 21 C 36 20.449219 35.550781 20 35 20 C 34.449219 20 34 20.449219 34 21 L 34 23 C 34 23.550781 34.449219 24 35 24 Z "/>
        <path style=" fill:#8D6C9F;" d="M 40 24 C 40.550781 24 41 23.550781 41 23 L 41 21 C 41 20.449219 40.550781 20 40 20 C 39.449219 20 39 20.449219 39 21 L 39 23 C 39 23.550781 39.449219 24 40 24 Z "/>
        <path style=" fill:#8D6C9F;" d="M 45 24 C 45.550781 24 46 23.550781 46 23 L 46 21 C 46 20.449219 45.550781 20 45 20 C 44.449219 20 44 20.449219 44 21 L 44 23 C 44 23.550781 44.449219 24 45 24 Z "/>
        <path style=" fill:#8D6C9F;" d="M 50 24 C 50.550781 24 51 23.550781 51 23 L 51 21 C 51 20.449219 50.550781 20 50 20 C 49.449219 20 49 20.449219 49 21 L 49 23 C 49 23.550781 49.449219 24 50 24 Z "/>
        <path style=" fill:#8D6C9F;" d="M 28.5 28 L 55 28 C 56.65625 28 58 26.65625 58 25 L 58 12 C 58 10.894531 57.105469 10 56 10 L 54 10 C 54 8.894531 53.105469 8 52 8 L 40.53125 8 C 40.214844 8 39.917969 7.851563 39.730469 7.601563 L 37.898438 5.191406 C 37.332031 4.441406 36.449219 4 35.511719 4 L 28 4 C 26.894531 4 26 4.894531 26 6 L 26 16 L 8 16 L 8 9 C 8 8.449219 7.550781 8 7 8 C 6.449219 8 6 8.449219 6 9 L 6 45 C 6 46.65625 7.34375 48 9 48 L 26 48 L 26 55.5 C 26 56.878906 27.121094 58 28.5 58 L 55 58 C 56.65625 58 58 56.65625 58 55 L 58 42 C 58 40.894531 57.105469 40 56 40 L 54 40 C 54 38.894531 53.105469 38 52 38 L 40.53125 38 C 40.214844 38 39.917969 37.851563 39.730469 37.601563 L 37.898438 35.191406 C 37.332031 34.441406 36.449219 34 35.511719 34 L 28 34 C 26.894531 34 26 34.894531 26 36 L 26 46 L 9 46 C 8.449219 46 8 45.550781 8 45 L 8 18 L 26 18 L 26 25.5 C 26 26.878906 27.121094 28 28.5 28 Z M 56 42 L 56 55 C 56 55.550781 55.550781 56 55 56 C 54.449219 56 54 55.550781 54 55 L 54 42 Z M 28 36 L 35.511719 36 C 35.824219 36 36.121094 36.148438 36.308594 36.398438 L 38.140625 38.820313 C 38.707031 39.566406 39.59375 40 40.53125 40 L 52 40 L 52 55 C 52 55.339844 52.058594 55.679688 52.171875 56 L 28.5 56 C 28.222656 56 28 55.777344 28 55.5 Z M 56 12 L 56 25 C 56 25.550781 55.550781 26 55 26 C 54.449219 26 54 25.550781 54 25 L 54 12 Z M 28 6 L 35.511719 6 C 35.824219 6 36.121094 6.148438 36.308594 6.398438 L 38.140625 8.820313 C 38.707031 9.566406 39.59375 10 40.53125 10 L 52 10 L 52 25 C 52 25.339844 52.058594 25.679688 52.171875 26 L 28.5 26 C 28.222656 26 28 25.777344 28 25.5 Z "/>
        <path style=" fill:#8D6C9F;" d="M 7 6 C 7.550781 6 8 5.550781 8 5 L 8 1 C 8 0.449219 7.550781 0 7 0 C 6.449219 0 6 0.449219 6 1 L 6 5 C 6 5.550781 6.449219 6 7 6 Z "/>
      </g>
    </g>
  </g>
</svg>