<?xml version="1.0" encoding="utf-8"?>
<svg viewBox="0 0 500 500" xmlns="http://www.w3.org/2000/svg">
  <path style="fill: rgb(250, 239, 222);" d="M 270.593 9.296 L 63.681 9.296 C 51.733 9.296 42.092 18.94 42.092 30.878 L 42.092 376.242 C 42.092 388.157 51.733 397.831 63.681 397.831 L 337.092 397.831 C 349.007 397.831 358.671 388.157 358.671 376.242 L 358.671 97.35 C 358.705 91.674 356.507 86.166 352.549 82.087 L 285.856 15.616 C 281.804 11.57 276.326 9.296 270.593 9.296 Z"/>
  <path style="fill: rgb(255, 247, 240);" d="M 358.671 183.469 L 358.671 145.859 L 357.017 88.86 C 355.951 86.166 354.344 83.717 352.321 81.665 L 321.242 50.586 L 42.092 330.172 L 43.165 381.689 C 45.668 391.136 54.211 397.71 63.963 397.744 L 144.312 397.744 Z"/>
  <path style="fill: rgb(255, 247, 240);" d="M 285.856 15.616 C 285.182 14.971 284.447 14.384 283.692 13.821 L 42.092 255.415 L 43.165 297.516 L 305.5 35.182 Z"/>
  <path style="fill: rgb(255, 247, 240);" d="M 42.092 212.246 L 244.623 9.722 L 266.212 9.722 L 42.092 233.832 Z"/>
  <path style="fill: rgb(255, 255, 255);" d="M 81.671 88.86 L 72.725 105.136 L 56.482 114.048 L 72.725 122.951 L 81.671 139.227 L 90.577 122.951 L 106.849 114.048 L 90.577 105.136 Z"/>
  <path style="fill: rgb(255, 255, 255);" d="M 211.74 31.301 L 205.611 42.518 L 194.4 48.727 L 205.611 54.826 L 211.74 66.12 L 217.925 54.826 L 229.166 48.727 L 217.925 42.518 Z"/>
  <path style="fill: rgb(255, 255, 255);" d="M 318.005 275.934 L 313.849 283.548 L 306.197 287.795 L 313.849 291.982 L 318.005 299.68 L 322.252 291.982 L 329.897 287.795 L 322.252 283.548 Z"/>
  <path style="fill: rgb(187, 222, 249);" d="M 272.334 9.722 L 272.334 96.058 L 358.671 96.058 Z"/>
  <path style="fill: rgb(141, 108, 159);" d="M 356.43 75.348 L 294.118 13.036 C 287.369 6.287 278.205 2.493 268.651 2.523 L 57.549 2.523 C 45.634 2.523 35.97 12.191 35.97 24.106 L 35.97 383.86 C 35.97 395.775 45.634 405.442 57.549 405.442 L 345.354 405.442 C 357.269 405.442 366.943 395.775 366.943 383.86 L 366.943 100.808 C 366.967 91.252 363.173 82.087 356.43 75.348 Z M 346.28 85.492 C 347.32 86.502 348.222 87.599 349.037 88.776 L 287.792 88.776 C 283.827 88.776 280.596 85.576 280.596 81.587 L 280.596 20.506 C 281.78 21.298 282.901 22.224 283.914 23.233 Z M 345.354 391.055 L 57.549 391.055 C 53.591 391.055 50.354 387.818 50.354 383.86 L 50.354 24.106 C 50.354 20.147 53.591 16.907 57.549 16.907 L 266.212 16.907 L 266.212 81.665 C 266.212 93.58 275.877 103.254 287.792 103.254 L 352.549 103.254 L 352.549 383.86 C 352.549 387.818 349.312 391.055 345.354 391.055 Z"/>
  <path style="fill: rgb(141, 108, 159);" d="M 251.822 139.227 C 251.822 143.192 255.049 146.422 259.017 146.422 L 287.792 146.422 C 291.76 146.422 294.99 143.192 294.99 139.227 C 294.99 135.259 291.76 132.032 287.792 132.032 L 259.017 132.032 C 255.049 132.032 251.822 135.259 251.822 139.227 Z"/>
  <path style="fill: rgb(141, 108, 159);" d="M 115.111 146.422 L 230.233 146.422 C 234.198 146.422 237.428 143.192 237.428 139.227 C 237.428 135.259 234.198 132.032 230.233 132.032 L 115.111 132.032 C 111.153 132.032 107.916 135.259 107.916 139.227 C 107.916 143.192 111.153 146.422 115.111 146.422 Z"/>
  <path style="fill: rgb(141, 108, 159);" d="M 115.111 231.709 L 259.017 231.709 C 262.975 231.709 266.212 228.479 266.212 224.52 C 266.212 220.555 262.975 217.325 259.017 217.325 L 115.111 217.325 C 111.153 217.325 107.916 220.555 107.916 224.52 C 107.916 228.479 111.153 231.709 115.111 231.709 Z"/>
  <path style="fill: rgb(141, 108, 159);" d="M 115.111 261.08 L 244.623 261.08 C 248.581 261.08 251.822 257.85 251.822 253.885 C 251.822 249.927 248.581 246.697 244.623 246.697 L 115.111 246.697 C 111.153 246.697 107.916 249.927 107.916 253.885 C 107.916 257.85 111.153 261.08 115.111 261.08 Z"/>
  <path style="fill: rgb(141, 108, 159);" d="M 115.111 175.207 L 287.792 175.207 C 291.76 175.207 294.99 171.97 294.99 168.011 C 294.99 164.043 291.76 160.813 287.792 160.813 L 115.111 160.813 C 111.153 160.813 107.916 164.043 107.916 168.011 C 107.916 171.97 111.153 175.207 115.111 175.207 Z"/>
  <path style="fill: rgb(141, 108, 159);" d="M 115.111 203.981 L 287.792 203.981 C 291.76 203.981 294.99 200.754 294.99 196.786 C 294.99 192.821 291.76 189.59 287.792 189.59 L 115.111 189.59 C 111.153 189.59 107.916 192.821 107.916 196.786 C 107.916 200.754 111.153 203.981 115.111 203.981 Z"/>
  <path style="fill: rgb(250, 239, 222);" d="M 341.684 85.646 L 134.772 85.646 C 122.823 85.646 113.183 95.29 113.183 107.235 L 113.183 452.599 C 113.183 464.514 122.823 474.178 134.772 474.178 L 408.183 474.178 C 420.098 474.178 429.762 464.514 429.762 452.599 L 429.762 173.711 C 429.792 168.025 427.598 162.523 423.64 158.448 L 356.947 91.973 C 352.895 87.927 347.413 85.646 341.684 85.646 Z"/>
  <path style="fill: rgb(255, 247, 240);" d="M 429.762 259.819 L 429.762 222.216 L 428.108 165.22 C 427.041 162.523 425.434 160.078 423.412 158.025 L 392.333 126.936 L 113.183 406.529 L 114.256 458.047 C 116.758 467.493 125.302 474.071 135.054 474.094 L 215.403 474.094 Z"/>
  <path style="fill: rgb(255, 247, 240);" d="M 356.947 91.973 C 356.273 91.332 355.535 90.742 354.783 90.178 L 113.183 331.772 L 114.256 373.874 L 376.59 111.539 Z"/>
  <path style="fill: rgb(255, 247, 240);" d="M 113.183 288.604 L 315.714 86.072 L 337.296 86.072 L 113.183 310.183 Z"/>
  <path style="fill: rgb(255, 255, 255);" d="M 152.762 165.22 L 143.815 181.493 L 127.573 190.399 L 143.815 199.312 L 152.762 215.584 L 161.664 199.312 L 177.94 190.399 L 161.664 181.493 Z"/>
  <path style="fill: rgb(255, 255, 255);" d="M 282.83 107.658 L 276.702 118.869 L 265.491 125.084 L 276.702 131.183 L 282.83 142.481 L 289.016 131.183 L 300.257 125.084 L 289.016 118.869 Z"/>
  <path style="fill: rgb(255, 255, 255);" d="M 389.096 352.284 L 384.94 359.906 L 377.288 364.146 L 384.94 368.339 L 389.096 376.037 L 393.342 368.339 L 400.987 364.146 L 393.342 359.906 Z"/>
  <path style="fill: rgb(187, 222, 249);" d="M 343.425 86.072 L 343.425 172.416 L 429.762 172.416 Z"/>
  <g transform="matrix(7.838844, 0, 0, 7.838844, -1032.024658, -840.689514)">
    <path style=" fill:#8D6C9F;" d="M 186.193 127.323 L 178.245 119.374 C 177.384 118.514 176.215 118.03 174.996 118.033 L 148.066 118.033 C 146.546 118.033 145.313 119.267 145.313 120.787 L 145.313 166.68 C 145.313 168.201 146.546 169.434 148.066 169.434 L 184.781 169.434 C 186.301 169.434 187.535 168.201 187.535 166.68 L 187.535 130.572 C 187.538 129.352 187.054 128.184 186.193 127.323 Z M 184.899 128.617 C 185.032 128.747 185.147 128.886 185.25 129.037 L 177.438 129.037 C 176.932 129.037 176.52 128.628 176.52 128.119 L 176.52 120.328 C 176.671 120.428 176.814 120.547 176.943 120.676 Z M 184.781 167.598 L 148.066 167.598 C 147.561 167.598 147.148 167.186 147.148 166.68 L 147.148 120.787 C 147.148 120.282 147.561 119.869 148.066 119.869 L 174.684 119.869 L 174.684 128.13 C 174.684 129.65 175.918 130.883 177.438 130.883 L 185.699 130.883 L 185.699 166.68 C 185.699 167.186 185.286 167.598 184.781 167.598 Z"/>
  </g>
  <g transform="matrix(3.078354, 0, 0, 3.078354, -645.812012, -602.920105)">
    <g transform="matrix(1.364077, 0, 0, 1.364077, 12.585669, -170.819305)">
      <g>
        <path d="M 233.088 361.216 L 222.949 361.216 L 222.949 371.355 C 222.949 373.217 221.431 374.735 219.569 374.735 C 217.708 374.735 216.189 373.217 216.189 371.355 L 216.189 361.216 L 206.05 361.216 C 204.188 361.216 202.67 359.697 202.67 357.836 C 202.67 355.974 204.188 354.456 206.05 354.456 L 216.189 354.456 L 216.189 344.317 C 216.189 342.455 217.708 340.937 219.569 340.937 C 221.431 340.937 222.949 342.455 222.949 344.317 L 222.949 354.456 L 233.088 354.456 C 234.95 354.456 236.468 355.974 236.468 357.836 C 236.468 359.697 234.95 361.216 233.088 361.216 Z" transform="matrix(-1, 0, 0, -1, 439.138006, 715.672014)" style="fill: rgb(137, 166, 251);"/>
      </g>
    </g>
    <g transform="matrix(1.460141, 0, 0, 1.460141, -8.506951, -204.817749)">
      <g>
        <path d="M 233.088 361.216 L 222.949 361.216 L 222.949 371.355 C 222.949 373.217 221.431 374.735 219.569 374.735 C 217.708 374.735 216.189 373.217 216.189 371.355 L 216.189 361.216 L 206.05 361.216 C 204.188 361.216 202.67 359.697 202.67 357.836 C 202.67 355.974 204.188 354.456 206.05 354.456 L 216.189 354.456 L 216.189 344.317 C 216.189 342.455 217.708 340.937 219.569 340.937 C 221.431 340.937 222.949 342.455 222.949 344.317 L 222.949 354.456 L 233.088 354.456 C 234.95 354.456 236.468 355.974 236.468 357.836 C 236.468 359.697 234.95 361.216 233.088 361.216 Z" transform="matrix(-1, 0, 0, -1, 439.138006, 715.672014)" style="fill: rgb(137, 166, 251);"/>
      </g>
    </g>
    <g transform="matrix(1.524183, 0, 0, 1.524183, -22.486395, -227.65213)">
      <g>
        <path d="M 233.088 361.216 L 222.949 361.216 L 222.949 371.355 C 222.949 373.217 221.431 374.735 219.569 374.735 C 217.708 374.735 216.189 373.217 216.189 371.355 L 216.189 361.216 L 206.05 361.216 C 204.188 361.216 202.67 359.697 202.67 357.836 C 202.67 355.974 204.188 354.456 206.05 354.456 L 216.189 354.456 L 216.189 344.317 C 216.189 342.455 217.708 340.937 219.569 340.937 C 221.431 340.937 222.949 342.455 222.949 344.317 L 222.949 354.456 L 233.088 354.456 C 234.95 354.456 236.468 355.974 236.468 357.836 C 236.468 359.697 234.95 361.216 233.088 361.216 Z" transform="matrix(-1, 0, 0, -1, 439.138006, 715.672014)" style="fill: rgb(137, 166, 251);"/>
      </g>
    </g>
    <g transform="matrix(1.556204, 0, 0, 1.556204, -29.976122, -239.569321)">
      <g>
        <path d="M 233.088 361.216 L 222.949 361.216 L 222.949 371.355 C 222.949 373.217 221.431 374.735 219.569 374.735 C 217.708 374.735 216.189 373.217 216.189 371.355 L 216.189 361.216 L 206.05 361.216 C 204.188 361.216 202.67 359.697 202.67 357.836 C 202.67 355.974 204.188 354.456 206.05 354.456 L 216.189 354.456 L 216.189 344.317 C 216.189 342.455 217.708 340.937 219.569 340.937 C 221.431 340.937 222.949 342.455 222.949 344.317 L 222.949 354.456 L 233.088 354.456 C 234.95 354.456 236.468 355.974 236.468 357.836 C 236.468 359.697 234.95 361.216 233.088 361.216 Z" transform="matrix(-1, 0, 0, -1, 439.138006, 715.672014)" style="fill: rgb(137, 166, 251);"/>
      </g>
    </g>
  </g>
  <g transform="matrix(-2.67618, -5.469464, 5.02812, -2.460233, 91.379616, 381.144745)" style="">
    <path style="fill: rgb(159, 181, 248);" d="M 42 25 C 39.211 25 36.809 26.637 35.684 29 L 12 29 L 16 25 L 12 21 L 1 32 L 12 43 L 16 39 L 12 35 L 35.684 35 C 36.809 37.363 39.211 39 42 39 C 45.867 39 49 35.867 49 32 C 49 28.133 45.867 25 42 25 Z"/>
  </g>
  <g transform="matrix(-2.67618, -5.469464, 5.02812, -2.460233, 91.379616, 381.144745)" style="">
    <path style=" fill:#8D6C9F;" d="M 20 36 L 14.41 36 C 14.41 36 17.102 39.32 16.711 39.711 L 12.711 43.711 C 12.512 43.898 12.262 44 12 44 C 11.738 44 11.488 43.898 11.289 43.711 L 0.289 32.711 C -0.102 32.32 -0.102 31.68 0.289 31.289 L 11.289 20.289 C 11.68 19.898 12.32 19.898 12.711 20.289 L 16.711 24.289 C 17.102 24.68 17.102 25.32 16.711 25.711 L 14.41 28 L 18.024 28 L 18.024 28.082 L 23.51 28.082 L 23.51 28 L 35.078 28 C 36.5 25.551 39.148 24 42 24 C 46.41 24 50 27.59 50 32 C 50 36.41 46.41 40 42 40 C 39.148 40 36.5 38.449 35.078 36 L 22 36 L 22 36.049 L 20 36.049 L 20 36 Z M 35.68 34 C 36.07 34 36.422 34.219 36.59 34.57 C 37.578 36.648 39.699 38 42 38 C 45.309 38 48 35.309 48 32 C 48 28.691 45.309 26 42 26 C 39.699 26 37.578 27.352 36.59 29.43 C 36.422 29.781 36.07 30 35.68 30 L 12 30 C 11.602 30 11.23 29.762 11.078 29.379 C 10.922 29.012 11.012 28.578 11.289 28.289 L 14.59 25 L 12 22.41 L 2.41 32 L 12 41.59 L 14.59 39 L 11.289 35.711 C 11.012 35.422 10.922 34.988 11.078 34.621 C 11.23 34.238 11.602 34 12 34 L 35.68 34 Z"/>
  </g>
  <path style="fill: rgb(141, 108, 159);" d="M 152.058 72.7 C 152.058 78.886 146.608 83.895 139.88 83.895 C 133.152 83.895 127.702 78.886 127.702 72.7 C 127.702 66.513 133.152 61.504 139.88 61.504 C 146.608 61.504 152.058 66.513 152.058 72.7 Z" transform="matrix(-0.439505, -0.89824, 0.89824, -0.439505, 136.056381, 230.297138)"/>
</svg>