<?xml version="1.0" encoding="utf-8"?>
<svg viewBox="0 0 500 500" xmlns="http://www.w3.org/2000/svg">
  <path style="fill: rgb(250, 239, 222);" d="M 329.992 9.801 L 74.959 9.801 C 60.239 9.801 48.356 21.684 48.356 36.409 L 48.356 462.089 C 48.356 476.775 60.239 488.69 74.959 488.69 L 411.956 488.69 C 426.642 488.69 438.559 476.775 438.559 462.089 L 438.559 118.334 C 438.592 111.338 435.892 104.547 431.01 99.524 L 348.802 17.595 C 343.814 12.61 337.061 9.801 329.992 9.801 Z"/>
  <path style="fill: rgb(255, 247, 240);" d="M 437.477 224.475 L 437.477 178.126 L 435.432 107.875 C 434.12 104.547 432.142 101.534 429.651 99.004 L 391.336 60.689 L 47.274 405.309 L 48.591 468.807 C 51.671 480.442 62.204 488.551 74.222 488.584 L 173.266 488.584 Z"/>
  <path style="fill: rgb(255, 247, 240);" d="M 347.72 17.595 C 346.889 16.797 345.99 16.074 345.053 15.379 L 47.274 313.163 L 48.591 365.05 L 371.937 41.709 Z"/>
  <path style="fill: rgb(255, 247, 240);" d="M 47.274 259.953 L 296.902 10.323 L 323.509 10.323 L 47.274 286.556 Z"/>
  <path style="fill: rgb(255, 255, 255);" d="M 194.505 170.529 L 183.486 190.586 L 163.468 201.566 L 183.486 212.55 L 194.505 232.604 L 205.483 212.55 L 225.543 201.566 L 205.483 190.586 Z"/>
  <path style="fill: rgb(255, 255, 255);" d="M 256.371 36.93 L 248.822 50.749 L 234.996 58.405 L 248.822 65.921 L 256.371 79.85 L 263.988 65.921 L 277.848 58.405 L 263.988 50.749 Z"/>
  <path style="fill: rgb(255, 255, 255);" d="M 387.353 338.449 L 382.227 347.838 L 372.803 353.071 L 382.227 358.229 L 387.353 367.724 L 392.583 358.229 L 402.004 353.071 L 392.583 347.838 Z"/>
  <path style="fill: rgb(187, 222, 249);" d="M 331.059 10.323 L 331.059 116.741 L 437.477 116.741 Z"/>
  <path style="fill: rgb(141, 108, 159);" d="M 434.707 91.211 L 357.908 14.408 C 349.591 6.1 338.296 1.421 326.52 1.456 L 66.328 1.456 C 51.637 1.456 39.721 13.374 39.721 28.057 L 39.721 471.475 C 39.721 486.16 51.637 498.082 66.328 498.082 L 421.056 498.082 C 435.747 498.082 447.663 486.16 447.663 471.475 L 447.663 122.599 C 447.698 110.819 443.019 99.524 434.707 91.211 Z M 422.203 103.716 C 423.481 104.965 424.593 106.315 425.595 107.768 L 350.111 107.768 C 345.223 107.768 341.24 103.822 341.24 98.902 L 341.24 23.627 C 342.697 24.594 344.082 25.737 345.33 26.984 Z M 421.056 480.341 L 66.328 480.341 C 61.444 480.341 57.456 476.356 57.456 471.475 L 57.456 28.057 C 57.456 23.176 61.444 19.193 66.328 19.193 L 323.509 19.193 L 323.509 99.004 C 323.509 113.694 335.421 125.612 350.111 125.612 L 429.928 125.612 L 429.928 471.475 C 429.928 476.356 425.943 480.341 421.056 480.341 Z"/>
  <path style="fill: rgb(141, 108, 159); fill-opacity: 0.25;" d="M 137.273 178.82 L 279.165 178.82 C 284.047 178.82 288.03 174.837 288.03 169.95 C 288.03 165.068 284.047 161.083 279.165 161.083 L 137.273 161.083 C 132.392 161.083 128.403 165.068 128.403 169.95 C 128.403 174.837 132.392 178.82 137.273 178.82 Z"/>
  <path style="fill: rgb(141, 108, 159); fill-opacity: 0.25;" d="M 137.273 283.947 L 314.637 283.947 C 319.525 283.947 323.509 279.964 323.509 275.076 C 323.509 270.189 319.525 266.206 314.637 266.206 L 137.273 266.206 C 132.392 266.206 128.403 270.189 128.403 275.076 C 128.403 279.964 132.392 283.947 137.273 283.947 Z"/>
  <path style="fill: rgb(141, 108, 159); fill-opacity: 0.25;" d="M 137.273 214.293 L 350.111 214.293 C 354.998 214.293 358.981 210.311 358.981 205.427 C 358.981 200.541 354.998 196.557 350.111 196.557 L 137.273 196.557 C 132.392 196.557 128.403 200.541 128.403 205.427 C 128.403 210.311 132.392 214.293 137.273 214.293 Z"/>
  <path style="fill: rgb(141, 108, 159); fill-opacity: 0.25;" d="M 137.273 249.767 L 350.111 249.767 C 354.998 249.767 358.981 245.782 358.981 240.897 C 358.981 236.013 354.998 232.03 350.111 232.03 L 137.273 232.03 C 132.392 232.03 128.403 236.013 128.403 240.897 C 128.403 245.782 132.392 249.767 137.273 249.767 Z"/>
  <path style="fill: rgb(141, 108, 159); fill-opacity: 0.25;" d="M 175.038 409.394 C 170.151 409.394 166.168 413.379 166.168 418.264 L 166.168 436.001 C 166.168 440.885 170.151 444.868 175.038 444.868 C 179.922 444.868 183.905 440.885 183.905 436.001 L 183.905 418.264 C 183.905 413.379 179.922 409.394 175.038 409.394 Z"/>
  <path style="fill: rgb(141, 108, 159); fill-opacity: 0.23;" d="M 314.637 409.394 C 309.755 409.394 305.773 413.379 305.773 418.264 L 305.773 436.001 C 305.773 440.885 309.755 444.868 314.637 444.868 C 319.525 444.868 323.509 440.885 323.509 436.001 L 323.509 418.264 C 323.509 413.379 319.525 409.394 314.637 409.394 Z"/>
  <path style="fill: rgb(141, 108, 159); fill-opacity: 0.23;" d="M 358.981 409.394 C 354.093 409.394 350.111 413.379 350.111 418.264 L 350.111 436.001 C 350.111 440.885 354.093 444.868 358.981 444.868 C 363.863 444.868 367.847 440.885 367.847 436.001 L 367.847 418.264 C 367.847 413.379 363.863 409.394 358.981 409.394 Z"/>
  <path style="fill: rgb(141, 108, 159); fill-opacity: 0.25;" d="M 221.374 409.394 C 216.488 409.394 212.503 413.379 212.503 418.264 L 212.503 436.001 C 212.503 440.885 216.488 444.868 221.374 444.868 C 226.257 444.868 230.24 440.885 230.24 436.001 L 230.24 418.264 C 230.24 413.379 226.257 409.394 221.374 409.394 Z"/>
  <g transform="matrix(1.485666, 0, 0, 1.945745, 26.101868, 51.289886)">
    <path d="M 236.488 89.466 L 171.442 21.577 C 168.862 18.89 164.584 18.89 162.003 21.577 L 96.958 89.466 C 94.969 91.542 96.443 94.976 99.315 94.976 L 127.564 94.976 C 129.359 94.976 130.824 96.45 130.824 98.245 L 130.824 153.725 C 130.824 157.325 133.744 160.245 137.353 160.245 L 196.093 160.245 C 199.702 160.245 202.622 157.325 202.622 153.725 L 202.622 98.245 C 202.622 96.45 204.087 94.976 205.881 94.976 L 234.131 94.976 C 237.002 94.976 238.477 91.542 236.488 89.466 Z" style="fill: rgb(245, 110, 106);" transform="matrix(0, 1, -1, 0, 256.626271, -76.819546)"/>
    <path d="M 233.928 19.21 C 237.973 23.285 237.993 29.852 233.986 33.975 L 179.156 90.29 C 177.128 92.386 174.334 93.55 171.414 93.55 L 166.971 93.55 C 164.099 93.55 162.635 90.096 164.623 88.04 L 227.622 22.227 C 230.174 19.55 231.396 16.533 233.928 19.21 Z" style="fill: rgb(250, 184, 167);" transform="matrix(0, 1, -1, 0, 256.201172, -144.483356)"/>
    <path style=" fill:#8D6C9F;" d="M 238.787 88.157 L 173.732 20.278 C 170.007 16.378 163.323 16.378 159.607 20.278 L 94.542 88.157 C 92.728 90.039 92.223 92.823 93.252 95.229 C 94.28 97.644 96.628 99.197 99.257 99.197 L 127.506 99.197 L 127.506 154.677 C 127.506 160.061 131.901 164.465 137.295 164.465 L 196.035 164.465 C 201.428 164.465 205.823 160.061 205.823 154.677 L 205.823 99.197 L 234.073 99.197 C 236.702 99.197 239.049 97.644 240.078 95.229 C 241.116 92.823 240.601 90.039 238.787 88.157 Z M 205.823 92.668 C 202.234 92.668 199.304 95.597 199.304 99.197 L 199.304 154.677 C 199.304 156.472 197.829 157.937 196.035 157.937 L 137.295 157.937 C 135.5 157.937 134.035 156.472 134.035 154.677 L 134.035 99.197 C 134.035 95.597 131.096 92.668 127.506 92.668 L 99.257 92.668 L 164.302 24.789 C 165.554 23.489 167.775 23.489 169.027 24.789 L 234.073 92.668 Z" transform="matrix(0, 1, -1, 0, 257.575866, -75.757887)"/>
  </g>
  <path d="M 128.014 398.517 L 262.967 398.517 L 262.967 443.134 L 128.014 443.134 Z" style="fill: rgb(248, 29, 0);"/>
  <path d="M 259.587 437.134 L 135.019 437.134 C 135.019 424.818 141.994 414.826 150.592 414.826 L 244.012 414.826 C 252.609 414.826 259.587 424.818 259.587 437.134 Z" style="fill: rgb(245, 0, 0);"/>
</svg>